<?xml version="1.0" encoding="utf-8"?>
<!-- Generator: Adobe Illustrator 24.0.1, SVG Export Plug-In . SVG Version: 6.00 Build 0)  -->
<svg version="1.0" id="图层_1" xmlns="http://www.w3.org/2000/svg" xmlns:xlink="http://www.w3.org/1999/xlink" x="0px" y="0px"
	 viewBox="0 0 900 900" style="enable-background:new 0 0 900 900;" xml:space="preserve">
<path d="M786.67,561.52c2.02-0.02,4-0.91,5.35-2.39c1.36-1.47,2.08-3.5,1.9-5.48c-0.28-1.96-0.83-3.93-1.3-5.88
	c-0.51-1.95-1.05-3.89-1.64-5.82c-2.35-7.71-5.42-15.18-9.05-22.36c-3.65-7.16-7.88-14.03-12.68-20.46
	c-4.82-6.42-10.18-12.43-16.01-17.93c-11.66-11.02-25.19-19.95-39.69-26.73l-2.72-1.28c-0.91-0.41-1.84-0.79-2.76-1.18l-2.77-1.17
	l-1.38-0.58l-1.41-0.53l-5.62-2.11l-5.7-1.89c-7.74-2.39-15.44-5.34-22.71-9.1c-3.65-1.87-7.17-4.01-10.57-6.32
	c-3.4-2.31-6.65-4.86-9.7-7.64c-6.13-5.52-11.45-11.9-16.02-18.72c-9.19-13.65-15.34-28.79-23.38-42.53
	c-4.01-6.88-8.53-13.39-13.84-19.19c-5.29-5.8-11.41-10.8-18.06-14.97c-3.33-2.09-6.82-3.92-10.37-5.62
	c-3.56-1.7-7.25-3.13-10.96-4.49c-7.47-2.61-15.18-4.62-22.99-6.17c-1.95-0.4-3.92-0.72-5.88-1.08c-1.97-0.33-3.94-0.61-5.91-0.92
	l-5.94-0.78l-6.05-0.84l-6.06-0.85c-2.01-0.33-4.02-0.74-6.03-1.1c-2.01-0.38-4.02-0.73-6.02-1.15l-5.98-1.42
	c-4.01-0.85-7.91-2.16-11.86-3.3c-0.99-0.27-1.96-0.63-2.92-0.98l-2.91-1.05c-1.93-0.71-3.89-1.35-5.77-2.22l-5.69-2.46l-5.54-2.81
	l-1.38-0.71c-0.46-0.24-0.9-0.52-1.34-0.78l-2.68-1.59l-2.67-1.6l-2.57-1.76c-6.88-4.65-13.2-10.14-18.87-16.14
	c-5.7-5.99-10.76-12.44-15.75-18.76c-5.01-6.3-9.95-12.52-15.64-17.82c-5.66-5.33-12.04-9.74-19.04-12.98l-2.63-1.2
	c-0.43-0.22-0.89-0.38-1.34-0.54l-1.37-0.49c-1.83-0.63-3.61-1.4-5.51-1.85l-2.81-0.78l-1.41-0.39l-0.7-0.19l-0.72-0.14l-5.75-1.17
	c-0.95-0.23-1.94-0.3-2.91-0.45l-2.92-0.4l-2.92-0.4c-0.98-0.1-1.97-0.15-2.95-0.23l-5.91-0.45c-1.98-0.07-3.97-0.1-5.95-0.15
	c-3.94-0.13-8-0.09-12.03-0.09l-12.1,0.01l-24.2,0.02l-48.4,0.04l-0.76,0c-0.13,0-0.26,0-0.29,0.01l-0.17,0.02
	c-0.11,0-0.24,0.03-0.37,0.06c-0.13,0.02-0.26,0.05-0.38,0.1c-0.5,0.16-0.96,0.42-1.36,0.77c-0.8,0.7-1.3,1.75-1.31,2.79
	c0,0.26,0.01,0.52,0.06,0.79l0.03,0.21l0.08,0.37l0.17,0.74c0.23,1.03,0.44,1.87,0.67,2.75c0.49,1.75,1.15,3.45,1.93,5.09
	c1.57,3.27,3.7,6.28,6.29,8.82c1.29,1.28,2.69,2.44,4.17,3.48l1.13,0.76l1.27,0.81l2.64,1.75c6.96,4.81,13.14,10.73,18.23,17.48
	c5.07,6.77,9.04,14.35,11.73,22.36l0.95,3.02l0.15,0.44c0.06,0.12,0.09,0.25,0.16,0.36c0.12,0.24,0.26,0.46,0.42,0.67
	c0.66,0.84,1.67,1.37,2.72,1.46l11.83,0.02l3.03,0l0.76,0c0.18,0,0.11-0.01,0.16-0.01c0.02,0.01,0.04,0,0.06-0.01
	c0.08-0.01,0.16-0.04,0.23-0.08c0.15-0.08,0.27-0.23,0.32-0.38c0.01-0.04,0.03-0.08,0.03-0.12c0-0.02,0.01-0.04,0.01-0.06
	c0-0.06,0,0.04,0.01-0.15l0.08-1.67c0.21-4.45,1.24-8.87,3.05-12.96c1.8-4.08,4.37-7.83,7.52-10.98c3.16-3.15,6.9-5.72,10.98-7.52
	c4.08-1.81,8.5-2.85,12.94-3.06l1.67-0.08c0.55-0.01,1.1,0.04,1.66,0.06l1.65,0.09l0.83,0.05c0.27,0.02,0.55,0.08,0.82,0.11
	l3.28,0.51l3.21,0.83c4.23,1.28,8.25,3.25,11.84,5.81l1.33,0.99c0.44,0.33,0.89,0.65,1.29,1.04c0.82,0.74,1.64,1.48,2.44,2.24
	l2.23,2.45c0.72,0.84,1.34,1.75,2.01,2.63c2.54,3.61,4.49,7.64,5.73,11.87c0.27,1.07,0.56,2.14,0.8,3.21l0.49,3.27
	c0.1,0.54,0.1,1.1,0.14,1.65l0.08,1.65c0.02,0.54,0.07,1.13,0.06,1.62l0,1.51l-0.06,24.22l0,0.76l0,0.38c0,0.12,0,0.24-0.01,0.45
	c-0.02,0.73-0.11,1.45-0.27,2.17c-0.33,1.43-0.95,2.78-1.82,3.95c-1.72,2.35-4.44,3.94-7.35,4.27c-0.36,0.05-0.72,0.05-1.09,0.07
	l-0.53,0.03c-0.15-0.01-0.28,0.02-0.42,0.06c-0.14,0.03-0.28,0.03-0.41,0.09c-0.54,0.14-1.04,0.42-1.46,0.78
	c-0.86,0.72-1.45,1.83-1.49,2.95c-0.02,0.56,0.03,1.12,0.25,1.67l1.07,2.77l2.2,5.64l4.39,11.28l8.78,22.57l4.39,11.28
	c0.36,0.96,0.75,1.84,1.13,2.73l1.15,2.68c0.36,0.91,0.83,1.76,1.27,2.62l1.34,2.59c3.73,6.83,8.46,13.11,13.96,18.61
	c10.99,11.05,25.28,18.77,40.55,22.01l2.88,0.54c0.96,0.18,1.91,0.39,2.89,0.47l2.91,0.34c0.97,0.11,1.92,0.23,2.97,0.33
	c2.04,0.22,4.09,0.4,6.13,0.65l6.1,0.92c8.1,1.42,16.08,3.52,23.82,6.27c15.48,5.5,30.04,13.6,42.79,23.93l4.69,3.98
	c1.55,1.35,3.01,2.78,4.52,4.17c0.37,0.35,0.75,0.69,1.12,1.06l1.07,1.1l2.15,2.2l4.23,4.32l4.2,4.29c0.71,0.71,1.38,1.45,2.12,2.13
	l2.21,2.03l4.41,4.07l2.21,2.03l2.31,1.92c12.17,10.4,25.38,19.6,39.36,27.43c13.98,7.85,28.74,14.32,44.01,19.28
	c15.27,4.96,31.05,8.37,47.02,10.26l1.49,0.2l1.5,0.13l3,0.26l6.01,0.52c2,0.22,4.01,0.23,6.02,0.31l6.03,0.21
	c2.01,0.09,4.03,0.11,6.05,0.12l6.05,0.06l12.11,0.11L786.67,561.52l-48.43,0.54l-12.11,0.11l-6.05,0.06
	c-2.02,0.02-4.04,0.05-6.06-0.01l-6.07-0.1c-2.02-0.05-4.05-0.02-6.07-0.2l-6.06-0.41l-3.03-0.21l-1.52-0.1l-1.51-0.18
	c-16.13-1.59-32.12-4.82-47.64-9.6c-15.52-4.79-30.57-11.11-44.87-18.85c-14.29-7.75-27.81-16.94-40.31-27.37l-2.37-1.92l-2.27-2.04
	l-4.54-4.08l-2.27-2.04c-0.75-0.68-1.45-1.43-2.18-2.14l-4.32-4.31l-4.29-4.28l-2.11-2.11l-1.05-1.05c-0.36-0.34-0.73-0.67-1.1-1.01
	c-1.48-1.33-2.91-2.7-4.42-3.99l-4.59-3.8c-12.48-9.83-26.59-17.54-41.57-22.72c-7.49-2.59-15.2-4.55-23.01-5.85l-5.88-0.83
	c-1.97-0.22-3.94-0.38-5.91-0.58l-3.05-0.31l-3.11-0.33c-1.04-0.08-2.06-0.3-3.09-0.48l-3.08-0.55
	c-16.34-3.32-31.72-11.45-43.61-23.2c-5.96-5.86-11.06-12.59-15.12-19.91l-1.46-2.78c-0.48-0.93-0.99-1.84-1.38-2.81l-1.26-2.87
	c-0.42-0.96-0.85-1.92-1.2-2.85l-4.45-11.26l-8.9-22.52l-4.45-11.26l-2.23-5.63l-0.56-1.41l-0.28-0.7l-0.14-0.35
	c-0.05-0.12-0.09-0.21-0.15-0.41c-0.52-1.34-0.73-2.82-0.66-4.27c0.12-2.93,1.55-5.71,3.76-7.58c1.1-0.95,2.41-1.67,3.82-2.07
	c0.35-0.12,0.7-0.18,1.06-0.25c0.36-0.07,0.72-0.13,1.08-0.15l1.4-0.09c1.11-0.13,2.15-0.75,2.81-1.66
	c0.33-0.45,0.57-0.97,0.69-1.51c0.06-0.27,0.09-0.55,0.1-0.83c0.01-0.05,0.01-0.18,0.01-0.31l0-0.38l0-0.76l-0.06-24.22l0-1.51
	c0.01-0.52-0.04-0.93-0.06-1.4l-0.07-1.37c-0.03-0.46-0.02-0.92-0.12-1.37l-0.42-2.71c-0.21-0.89-0.46-1.77-0.68-2.66
	c-1.05-3.5-2.65-6.83-4.76-9.82c-0.56-0.72-1.07-1.49-1.67-2.18l-1.85-2.03l-2.03-1.85c-0.32-0.32-0.7-0.58-1.07-0.86l-1.1-0.82
	c-2.98-2.12-6.3-3.74-9.79-4.79l-2.65-0.68l-2.71-0.41c-0.23-0.03-0.45-0.08-0.68-0.1l-0.69-0.03l-1.37-0.07
	c-0.46-0.02-0.91-0.06-1.37-0.06l-1.35,0.07c-3.61,0.18-7.18,1.02-10.47,2.49c-3.3,1.46-6.32,3.55-8.88,6.1
	c-2.55,2.56-4.62,5.6-6.07,8.9c-1.45,3.3-2.28,6.87-2.44,10.47l-0.07,1.35l-0.03,0.6c-0.01,0.23-0.04,0.46-0.08,0.69
	c-0.06,0.46-0.19,0.91-0.34,1.34c-0.61,1.75-1.86,3.25-3.48,4.16c-0.8,0.45-1.7,0.76-2.61,0.9c-0.23,0.04-0.46,0.07-0.69,0.08
	c-0.2,0.01-0.52,0.02-0.6,0.02l-0.76,0l-3.03,0l-6.05,0.01l-3.03,0l-1.51,0l-0.76,0c-0.1,0-0.29,0-0.48-0.01l-0.56-0.03
	c-1.48-0.12-2.94-0.55-4.26-1.25c-1.31-0.71-2.48-1.67-3.41-2.84c-0.46-0.58-0.87-1.21-1.2-1.88c-0.18-0.33-0.31-0.68-0.46-1.02
	l-0.18-0.53l-0.15-0.46l-0.87-2.75c-2.46-7.29-6.09-14.18-10.71-20.33c-4.64-6.14-10.28-11.5-16.6-15.88l-2.41-1.6l-1.28-0.82
	l-1.38-0.93c-1.82-1.28-3.53-2.71-5.1-4.27c-3.16-3.12-5.76-6.8-7.68-10.81c-0.96-2-1.76-4.08-2.35-6.22
	c-0.29-1.07-0.56-2.18-0.76-3.13l-0.17-0.74l-0.08-0.37l-0.1-0.53c-0.14-0.73-0.18-1.48-0.17-2.22c0.06-3.01,1.46-5.91,3.7-7.87
	c1.11-0.98,2.44-1.74,3.86-2.2c0.35-0.13,0.71-0.22,1.08-0.29c0.36-0.08,0.73-0.15,1.12-0.18l0.58-0.05
	c0.22-0.02,0.34-0.02,0.46-0.02l0.76,0l48.47,0.04l24.23,0.02l12.12,0.01c4.04,0.01,8.05-0.03,12.18,0.11
	c2.05,0.06,4.1,0.09,6.16,0.17l6.16,0.48c1.03,0.08,2.05,0.15,3.08,0.25l3.08,0.42l3.08,0.42c1.02,0.16,2.05,0.24,3.07,0.48
	l6.11,1.25l0.76,0.16l0.75,0.21l1.51,0.43l3.02,0.85c2.03,0.5,3.97,1.34,5.95,2.03l1.48,0.55c0.49,0.18,0.99,0.36,1.46,0.59
	l2.87,1.33c7.64,3.57,14.67,8.5,20.72,14.27c6.11,5.75,11.2,12.26,16.19,18.61c4.98,6.37,9.87,12.66,15.28,18.4
	c5.39,5.75,11.31,10.94,17.78,15.36l2.42,1.67l2.52,1.52l2.52,1.52c0.42,0.25,0.83,0.52,1.27,0.75l1.31,0.68l5.24,2.7l5.42,2.37
	c1.78,0.84,3.67,1.46,5.52,2.16l2.78,1.02c0.93,0.34,1.85,0.69,2.81,0.96l5.69,1.73c1.88,0.62,3.82,1.07,5.75,1.54l5.79,1.43
	c1.94,0.42,3.91,0.77,5.86,1.17c1.96,0.37,3.91,0.79,5.87,1.12l5.93,0.88l5.94,0.88l6.06,0.85c2.01,0.33,4.03,0.64,6.04,1
	c2.01,0.39,4.02,0.73,6.02,1.16c8.01,1.66,15.95,3.8,23.69,6.58c3.85,1.45,7.68,2.98,11.4,4.79c3.71,1.81,7.36,3.77,10.86,6
	c6.99,4.46,13.44,9.82,18.97,16c5.56,6.16,10.18,13.06,14.22,20.17c8.08,14.24,14.01,29.3,22.75,42.6
	c4.34,6.65,9.37,12.81,15.18,18.17c5.78,5.4,12.37,9.89,19.34,13.68c7.01,3.76,14.41,6.73,22.05,9.22l5.76,2.01l5.68,2.23l1.42,0.56
	l1.4,0.61l2.79,1.23c0.93,0.41,1.87,0.81,2.79,1.24l2.74,1.34c14.62,7.12,28.26,16.39,39.86,27.79
	c5.81,5.69,11.12,11.87,15.87,18.45c1.18,1.65,2.32,3.33,3.44,5.02c1.08,1.72,2.21,3.4,3.21,5.17c2.1,3.47,3.98,7.07,5.76,10.7
	c3.5,7.31,6.42,14.89,8.61,22.68c0.55,1.95,1.05,3.9,1.52,5.87c0.43,1.98,0.93,3.92,1.17,5.96c0.14,2.06-0.66,4.13-2.07,5.59
	C790.71,560.7,788.69,561.54,786.67,561.52z"/>
<path d="M822.15,554.31c-6.63-25.6-20.35-49.03-39.13-67.13c-4.68-4.54-9.69-8.73-14.92-12.62c-5.2-3.94-10.72-7.43-16.39-10.65
	c-5.66-3.25-11.55-6.08-17.52-8.72l-4.52-1.89c-1.5-0.65-3.05-1.19-4.57-1.79l-2.29-0.88c-0.76-0.3-1.53-0.58-2.31-0.84l-4.65-1.58
	l-4.73-1.61c-1.6-0.52-3.16-1.14-4.74-1.73c-3.14-1.2-6.24-2.52-9.28-3.97c-6.09-2.88-11.91-6.33-17.37-10.26
	c-10.94-7.9-19.88-18.26-26.9-29.57c-7.13-11.29-12.59-23.42-19.2-34.84c-6.49-11.46-14.61-22.02-24.79-30.18
	c-2.52-2.06-5.21-3.9-7.92-5.69c-2.77-1.71-5.56-3.37-8.48-4.81c-5.8-2.94-11.86-5.37-18.07-7.37c-6.21-1.99-12.54-3.64-18.95-4.96
	c-6.41-1.31-12.89-2.35-19.4-3.16l-4.9-0.61l-4.97-0.65c-3.31-0.45-6.64-0.8-9.93-1.45l-4.95-0.87c-1.65-0.3-3.31-0.54-4.94-0.95
	l-4.91-1.11l-2.46-0.56c-0.82-0.19-1.64-0.35-2.45-0.6l-4.86-1.37l-2.43-0.68c-0.81-0.23-1.62-0.45-2.41-0.75l-4.78-1.67
	c-1.59-0.56-3.2-1.08-4.75-1.77c-3.11-1.33-6.28-2.51-9.29-4.1c-1.52-0.75-3.05-1.49-4.56-2.26l-4.41-2.55
	c-0.73-0.43-1.48-0.84-2.19-1.3l-2.12-1.42c-1.4-0.96-2.85-1.86-4.21-2.88l-4.05-3.1c-0.69-0.5-1.33-1.06-1.97-1.62l-1.93-1.66
	c-5.11-4.46-9.86-9.33-14.19-14.46c-4.35-5.11-8.42-10.37-12.57-15.47c-4.13-5.11-8.36-10.08-13.07-14.51
	c-9.33-8.97-20.96-15.25-33.55-18.78c-3.1-1.03-6.35-1.57-9.53-2.34c-0.4-0.09-0.8-0.19-1.2-0.27l-1.22-0.2l-2.43-0.39l-4.88-0.78
	c-3.28-0.33-6.56-0.7-9.85-0.99l-9.9-0.57v-0.57c13.25-0.45,26.67,0.15,39.76,3.3c6.56,1.44,12.95,3.8,19.02,6.84l2.26,1.17
	l1.13,0.59l1.08,0.67c1.44,0.91,2.91,1.77,4.32,2.72l4.12,3.02c1.32,1.07,2.6,2.18,3.9,3.28c5.08,4.51,9.63,9.51,13.96,14.58
	c4.32,5.08,8.47,10.21,12.82,15.09c8.68,9.74,18.36,18.44,29.6,24.83l4.2,2.4c1.44,0.74,2.89,1.44,4.34,2.16
	c2.86,1.52,5.9,2.65,8.88,3.93c1.48,0.67,3.03,1.16,4.56,1.71l4.6,1.62c3.09,1,6.24,1.87,9.35,2.82c0.78,0.25,1.58,0.42,2.37,0.62
	l2.38,0.57l4.76,1.15c1.58,0.42,3.2,0.68,4.8,1l4.82,0.92c3.2,0.68,6.47,1.07,9.71,1.56l4.87,0.71l4.95,0.68
	c13.23,1.84,26.43,4.58,39.12,9.11c1.59,0.56,3.15,1.19,4.72,1.78c1.56,0.63,3.11,1.3,4.66,1.95c3.06,1.41,6.1,2.87,9.04,4.53
	c2.97,1.6,5.8,3.44,8.6,5.33c2.75,1.96,5.45,3.98,7.98,6.21c5.11,4.4,9.68,9.39,13.71,14.74c4.02,5.37,7.53,11.07,10.76,16.88
	c6.45,11.63,11.9,23.74,19.08,34.8c1.76,2.78,3.71,5.43,5.71,8.03c2.01,2.59,4.14,5.09,6.42,7.43c1.12,1.19,2.32,2.3,3.5,3.44
	c1.22,1.08,2.41,2.2,3.69,3.22c2.49,2.11,5.14,4.02,7.84,5.84c5.44,3.59,11.21,6.67,17.22,9.19c3.01,1.25,6.04,2.45,9.13,3.49
	c1.55,0.52,3.08,1.06,4.65,1.51c1.56,0.47,3.11,0.94,4.72,1.46c12.81,3.9,25.32,9.05,36.94,15.84c5.8,3.39,11.47,7.05,16.79,11.17
	c5.33,4.11,10.39,8.57,15.12,13.35c4.74,4.77,9.09,9.93,13.05,15.35l2.9,4.12l2.75,4.22c0.86,1.44,1.73,2.88,2.57,4.33
	c0.8,1.47,1.64,2.92,2.41,4.41c6.2,11.87,10.71,24.61,12.91,37.73L822.15,554.31z"/>
<path d="M220.05,216.76c-5.17,5.31-9.19,11.62-12.47,18.21c-3.27,6.61-5.54,13.69-6.88,20.92l-0.82,5.45
	c-0.2,1.83-0.29,3.66-0.44,5.49c-0.03,0.46-0.08,0.92-0.09,1.37l0,1.38l0.01,2.76l0.01,2.76c0.03,0.94,0.04,1.87,0.02,2.81
	c-0.08,3.75-0.57,7.5-1.55,11.14c-0.98,3.63-2.42,7.14-4.24,10.43c-1.82,3.29-3.98,6.38-6.32,9.28c-2.33,2.92-4.88,5.64-7.18,8.46
	c-1.13,1.41-2.23,2.87-2.89,4.41c-0.32,0.77-0.52,1.55-0.48,2.29c0.04,0.74,0.29,1.45,0.75,2.1c0.91,1.31,2.39,2.35,3.91,3.25
	c0.39,0.22,0.77,0.44,1.18,0.65l0.6,0.31l0.64,0.36c0.42,0.25,0.87,0.46,1.26,0.76l1.19,0.86c3.04,2.46,5.29,5.65,7.03,9.01
	c1.77,3.36,3.07,6.9,4.14,10.49c2.12,7.19,3.35,14.57,4.19,21.96c0.8,7.4,1.16,14.83,1.26,22.26l0.02,2.79
	c0,0.98,0.02,1.72,0.19,2.54c0.37,1.58,1.26,3.04,2.53,4.08c1.26,1.04,2.86,1.66,4.49,1.7c0.2,0.02,0.41,0.02,0.61-0.01
	c0.2-0.02,0.41-0.02,0.61-0.05c0.41-0.09,0.78-0.13,1.25-0.26l2.71-0.65c7.25-1.67,14.6-2.96,22.05-3.52
	c3.72-0.28,7.47-0.36,11.22-0.11c3.74,0.27,7.5,0.85,11.1,2.08c3.59,1.18,7.04,3.23,9.56,6.14c2.45,2.78,4.86,5.6,7.24,8.44
	c4.76,5.68,9.44,11.41,14.08,17.19c9.22,11.59,18.38,23.21,27.36,34.98c-9.36-11.47-18.68-22.97-28.17-34.32
	c-4.72-5.7-9.47-11.37-14.29-16.97c-2.41-2.8-4.85-5.58-7.33-8.31c-2.38-2.67-5.54-4.5-8.97-5.59c-3.42-1.13-7.05-1.64-10.69-1.85
	c-3.64-0.21-7.31-0.13-10.96,0.16c-7.32,0.58-14.58,1.89-21.74,3.57l-2.68,0.66c-0.42,0.12-0.97,0.21-1.46,0.31
	c-0.26,0.03-0.51,0.04-0.77,0.06c-0.26,0.03-0.52,0.03-0.77,0.01c-2.07-0.04-4.11-0.83-5.7-2.13c-1.61-1.3-2.75-3.15-3.23-5.17
	c-0.23-0.99-0.26-2.11-0.25-2.98l-0.03-2.76c-0.13-7.37-0.53-14.74-1.34-22.05c-0.8-7.31-1.98-14.59-4.02-21.62
	c-1.02-3.51-2.28-6.94-3.95-10.15c-1.64-3.21-3.75-6.19-6.48-8.41l-1.06-0.77c-0.35-0.27-0.75-0.45-1.12-0.67l-0.57-0.33l-0.63-0.33
	c-0.42-0.21-0.84-0.46-1.25-0.69c-1.63-0.99-3.29-2.1-4.51-3.85c-0.61-0.86-1.01-1.96-1.06-3.07c-0.05-1.12,0.24-2.17,0.63-3.1
	c0.81-1.87,2-3.38,3.17-4.85c2.39-2.9,4.91-5.58,7.23-8.43c2.33-2.83,4.48-5.79,6.28-8.96c1.8-3.16,3.24-6.53,4.23-10.03
	c1-3.5,1.52-7.13,1.65-10.78c0.03-0.91,0.03-1.83,0.01-2.74l0.03-2.79l0.03-2.79l0.02-1.4c0.02-0.46,0.08-0.93,0.11-1.39
	c0.18-1.85,0.3-3.72,0.52-5.56l0.91-5.51c1.51-7.29,3.96-14.39,7.4-20.98l1.31-2.46c0.42-0.83,0.95-1.6,1.41-2.4
	c0.93-1.61,2-3.12,3.04-4.66C215.03,222.21,217.36,219.31,220.05,216.76z"/>
<path d="M317.9,471.29l-14.25-17.43c-4.75-5.81-9.53-11.59-14.34-17.35c-4.81-5.76-9.65-11.49-14.57-17.14l-3.71-4.22l-1.88-2.08
	c-0.62-0.68-1.26-1.43-1.87-2.05c-2.51-2.53-5.85-4.14-9.34-5.13l1.25-1.11c0.47,2.62,0.71,5.31,0.56,8.01
	c-0.15,2.69-0.7,5.41-1.8,7.93c-1.09,2.53-2.74,4.82-4.77,6.69l-1.61,1.29c-0.26,0.23-0.55,0.41-0.84,0.58l-0.87,0.54l-0.87,0.54
	c-0.29,0.19-0.61,0.3-0.91,0.45l-1.85,0.86c-0.62,0.26-1.27,0.45-1.91,0.68c-0.64,0.2-1.27,0.48-1.93,0.61
	c-1.29,0.29-2.63,0.65-3.89,0.89c-2.54,0.49-5.07,1.04-7.59,1.62c-5.04,1.16-10.05,2.49-15.01,3.95c-4.97,1.45-9.88,3.09-14.75,4.84
	c-4.88,1.71-9.67,3.66-14.44,5.66c-9.48,4.11-18.71,8.81-27.51,14.2c-8.76,5.44-17.1,11.55-24.75,18.44
	c-7.64,6.88-14.6,14.53-20.45,22.97c-5.87,8.42-10.69,17.55-14.3,27.15l-1.33,3.61c-0.24,0.6-0.41,1.21-0.6,1.83l-0.55,1.84
	l-1.1,3.69c-0.08,0.3-0.2,0.63-0.26,0.91l-0.17,0.84c-0.15,0.56-0.13,1.13-0.2,1.7c-0.13,2.28,0.49,4.56,1.59,6.55
	c1.1,2,2.83,3.62,4.81,4.72c0.49,0.28,1.03,0.48,1.55,0.71l0.82,0.25c0.27,0.09,0.54,0.17,0.83,0.21c0.56,0.1,1.12,0.23,1.69,0.23
	l0.86,0.05l0.98,0l7.8,0.01l15.61,0.04l31.22,0.11l7.8,0.03l3.9,0.01c1.19,0.02,2.33-0.13,3.45-0.44c2.24-0.6,4.3-1.85,5.88-3.56
	c0.4-0.42,0.76-0.88,1.1-1.36l1.14-1.59l2.28-3.19c6.13-8.48,12.72-16.63,19.86-24.28c7.16-7.63,14.86-14.76,23.08-21.23
	c8.24-6.45,17.03-12.2,26.29-17.05c1.14-0.63,2.32-1.2,3.5-1.77c1.18-0.57,2.34-1.16,3.53-1.7c2.39-1.06,4.76-2.15,7.2-3.09
	c4.84-1.95,9.78-3.67,14.81-5.06c5.03-1.4,10.12-2.55,15.28-3.32c2.58-0.37,5.17-0.69,7.77-0.87
	C312.69,471.29,315.3,471.17,317.9,471.29z M317.9,471.29c-2.6-0.05-5.2,0.15-7.78,0.41c-2.59,0.25-5.16,0.65-7.71,1.1
	c-5.11,0.93-10.16,2.15-15.13,3.66c-4.97,1.49-9.84,3.31-14.6,5.35c-2.4,0.99-4.73,2.12-7.07,3.22c-1.17,0.56-2.31,1.18-3.46,1.76
	c-1.15,0.59-2.31,1.18-3.43,1.83c-9.05,5.03-17.67,10.83-25.74,17.31c-8.05,6.51-15.57,13.66-22.55,21.3
	c-6.97,7.66-13.38,15.81-19.33,24.27l-2.22,3.19l-1.11,1.6c-0.41,0.59-0.85,1.16-1.33,1.69c-1.92,2.14-4.47,3.72-7.25,4.49
	c-1.38,0.39-2.85,0.58-4.26,0.57l-3.9,0.01l-7.8,0.03l-31.22,0.11l-15.61,0.04l-7.8,0.01l-0.98,0l-1.09-0.06
	c-0.73-0.01-1.45-0.16-2.17-0.29c-0.36-0.05-0.71-0.15-1.06-0.27l-1.05-0.32c-0.67-0.29-1.36-0.55-2-0.9
	c-2.56-1.41-4.77-3.49-6.2-6.05c-1.43-2.54-2.21-5.49-2.06-8.42c0.07-0.73,0.07-1.47,0.25-2.18l0.22-1.07
	c0.07-0.36,0.18-0.64,0.27-0.97l1.12-3.79l0.56-1.9c0.19-0.63,0.37-1.27,0.61-1.88l1.36-3.72c3.68-9.89,8.67-19.3,14.72-27.93
	c6.03-8.66,13.19-16.49,21.03-23.51c7.84-7.03,16.37-13.24,25.33-18.7c8.99-5.42,18.39-10.13,28.02-14.23
	c9.66-4.06,19.56-7.52,29.63-10.33c5.04-1.41,10.11-2.69,15.22-3.8c2.56-0.56,5.12-1.07,7.7-1.54c1.3-0.23,2.48-0.54,3.72-0.8
	c0.62-0.12,1.2-0.37,1.8-0.54c0.59-0.2,1.2-0.37,1.78-0.6l1.7-0.76c0.28-0.14,0.58-0.23,0.84-0.4l0.79-0.48l0.79-0.47
	c0.27-0.15,0.53-0.31,0.76-0.51l1.45-1.13c1.82-1.63,3.3-3.62,4.3-5.86c2.03-4.5,2.13-9.75,1.29-14.73l-0.26-1.57l1.51,0.45
	c3.68,1.11,7.32,2.88,10.09,5.75c2.57,2.84,4.95,5.69,7.38,8.58c4.81,5.77,9.53,11.61,14.21,17.48c4.69,5.87,9.34,11.76,13.97,17.67
	C308.76,459.38,313.33,465.33,317.9,471.29z"/>
<path d="M262.04,407.07c0.67,2.53,1.04,5.16,0.99,7.82c-0.07,2.66-0.6,5.35-1.73,7.84c-1.11,2.49-2.82,4.74-4.9,6.54
	c-0.51,0.46-1.08,0.84-1.63,1.26l-0.83,0.62c-0.29,0.18-0.59,0.35-0.88,0.52l-1.78,1.03c-0.61,0.3-1.24,0.56-1.86,0.84
	c-1.23,0.61-2.53,0.98-3.82,1.39c-1.28,0.47-2.61,0.69-3.92,1.01c-1.33,0.32-2.59,0.55-3.86,0.81c-1.27,0.25-2.54,0.53-3.81,0.79
	c-5.07,1.1-10.14,2.25-15.16,3.55l-3.76,0.98l-3.75,1.04c-2.5,0.69-4.99,1.41-7.48,2.14c-2.47,0.77-4.96,1.49-7.42,2.32l-3.69,1.21
	l-3.67,1.28c-2.45,0.84-4.87,1.75-7.3,2.63c-2.43,0.88-4.82,1.86-7.24,2.79c-2.39,0.99-4.78,1.98-7.15,3
	c-2.35,1.07-4.73,2.08-7.05,3.21c-9.37,4.34-18.46,9.26-27.12,14.83c-1.08,0.7-2.19,1.36-3.25,2.08l-3.18,2.19
	c-1.05,0.74-2.14,1.43-3.16,2.22l-3.08,2.32c-2.09,1.51-4.02,3.21-6.02,4.82l-1.5,1.22l-1.44,1.28l-2.87,2.57
	c-0.47,0.43-0.97,0.85-1.43,1.3l-1.37,1.36l-2.74,2.72c-0.94,0.89-1.77,1.87-2.64,2.81l-2.61,2.85l-0.65,0.71l-0.61,0.75l-1.22,1.49
	l-2.45,2.99c-1.56,2.05-3.03,4.17-4.56,6.25c-5.89,8.49-10.6,17.82-14.24,27.63c2.42-10.18,6.52-20.02,11.88-29.13
	c1.42-2.23,2.8-4.48,4.28-6.68l2.33-3.22l1.17-1.61l0.58-0.81l0.62-0.77l2.52-3.07c0.85-1.01,1.67-2.06,2.59-3.01l2.7-2.92
	l1.35-1.46c0.45-0.48,0.94-0.93,1.41-1.4c3.75-3.75,7.68-7.32,11.83-10.61l3.11-2.47c1.02-0.84,2.13-1.58,3.19-2.37l3.21-2.34
	c1.08-0.77,2.19-1.48,3.29-2.23c8.82-5.86,18.12-10.95,27.66-15.47c19.17-8.89,39.35-15.37,59.9-19.76c5.15-1.08,10.3-2.1,15.5-2.89
	c1.3-0.19,2.6-0.4,3.9-0.57c1.3-0.18,2.63-0.34,3.85-0.57c1.24-0.23,2.51-0.37,3.71-0.73l1.83-0.47l0.46-0.12l0.44-0.16l0.88-0.31
	c0.59-0.21,1.19-0.41,1.77-0.64l1.68-0.81c0.28-0.14,0.57-0.26,0.84-0.41l0.78-0.5c0.51-0.34,1.07-0.64,1.55-1.02
	c1.99-1.48,3.63-3.37,4.87-5.54c1.23-2.17,1.97-4.65,2.28-7.2C262.51,412.28,262.38,409.66,262.04,407.07z"/>
<path d="M235,280.78l-25.39,25.18C209.61,305.97,193.66,277.01,235,280.78z"/>
<path d="M235.27,284.32c-2.1,2.66-4.36,5.17-6.66,7.63c-1.14,1.24-2.33,2.43-3.5,3.64l-3.58,3.56l-3.66,3.47
	c-1.25,1.13-2.47,2.29-3.74,3.39c-2.52,2.23-5.1,4.41-7.82,6.43c2.1-2.66,4.35-5.17,6.66-7.63c1.14-1.24,2.33-2.43,3.5-3.64
	l3.58-3.56l3.66-3.47c1.25-1.13,2.47-2.29,3.74-3.39C229.98,288.53,232.55,286.35,235.27,284.32z"/>
<path d="M236.38,278.55c-2.74-0.21-5.45-0.39-8.16-0.49c-2.71-0.09-5.41-0.12-8.09,0.07c-2.67,0.18-5.34,0.55-7.82,1.44
	c-1.23,0.46-2.42,1.05-3.42,1.89c-1.01,0.83-1.8,1.95-2.29,3.23c0.18-1.37,0.84-2.69,1.81-3.74c0.97-1.05,2.2-1.84,3.48-2.42
	c1.29-0.6,2.65-0.98,4.01-1.29c1.37-0.27,2.76-0.44,4.14-0.55c2.77-0.16,5.54-0.07,8.27,0.25
	C231.03,277.27,233.74,277.77,236.38,278.55z"/>
<path d="M293.34,298.38c0.24,9.56,0.34,19.12,0.52,28.68l0.3,28.68c0.2,19.12,0.22,38.24,0.25,57.36
	c-0.02,19.12-0.05,38.24-0.25,57.36l-0.3,28.68c-0.18,9.56-0.28,19.12-0.52,28.68c-0.24-9.56-0.35-19.12-0.52-28.68l-0.3-28.68
	c-0.19-19.12-0.22-38.24-0.25-57.36c0.03-19.12,0.05-38.24,0.25-57.36l0.3-28.68C293,317.5,293.1,307.94,293.34,298.38z"/>
<path d="M272.15,522.57c0,5.12,1.12,10.25,3.29,14.85c2.14,4.62,5.29,8.69,8.98,12.01c7.44,6.64,17.01,10.43,26.86,10.71
	c4.92,0.13,9.9-0.6,14.6-2.31c1.17-0.44,2.3-0.97,3.46-1.46c1.11-0.57,2.2-1.21,3.3-1.81c1.05-0.69,2.06-1.45,3.1-2.17
	c0.96-0.82,1.92-1.64,2.87-2.48c3.63-3.53,6.49-7.86,8.34-12.56c1.88-4.7,2.67-9.78,2.5-14.78c-0.4-10.02-4.77-19.58-11.78-26.39
	c-3.52-3.39-7.68-6.09-12.19-7.89c-4.51-1.79-9.34-2.74-14.2-2.78c-4.86-0.03-9.71,0.86-14.26,2.63c-1.13,0.46-2.23,0.98-3.36,1.47
	c-1.09,0.55-2.15,1.17-3.23,1.75l-3.07,2.06l-2.89,2.34c-3.71,3.31-6.86,7.37-8.99,11.98C273.31,512.33,272.18,517.45,272.15,522.57
	z M271.73,522.57c0-5.18,0.89-10.36,2.67-15.28c1.8-4.91,4.49-9.57,8.06-13.55c3.57-3.97,8.01-7.25,12.98-9.44
	c4.96-2.19,10.41-3.32,15.85-3.37c5.44-0.02,10.91,1.06,15.91,3.22c5.01,2.14,9.57,5.27,13.34,9.16c3.77,3.89,6.76,8.51,8.68,13.54
	c1.94,5.02,2.75,10.42,2.58,15.71c-0.39,10.63-4.88,20.82-12.21,28.31l-2.86,2.7l-3.11,2.43c-1.1,0.72-2.19,1.47-3.32,2.16
	c-1.17,0.6-2.32,1.27-3.52,1.84c-4.81,2.25-10.12,3.54-15.51,3.69c-5.38,0.12-10.82-0.89-15.78-3.03c-4.97-2.11-9.42-5.36-13-9.31
	c-3.58-3.96-6.27-8.62-8.07-13.52C272.65,532.93,271.75,527.75,271.73,522.57z"/>
<path d="M318.11,536.76c-5.24,0.01-10.45-1.97-14.37-5.49c-3.96-3.48-6.61-8.49-7.23-13.86c-0.68-5.36,0.74-11.05,4-15.62
	c3.22-4.59,8.29-8.01,14.04-9.19l0.05,4.81c-1.33-0.07-2.64-0.1-3.93,0.07l-1.94,0.23l-1.9,0.42c-2.5,0.63-4.88,1.61-7.06,2.91
	c-2.15,1.35-4.09,2.98-5.76,4.83l-1.2,1.44l-1.06,1.53l-0.27,0.38l-0.23,0.41l-0.45,0.81l-0.46,0.8l-0.37,0.85
	c-0.55,1.11-0.89,2.29-1.31,3.44c-0.27,1.2-0.61,2.37-0.71,3.6l-0.12,0.91c-0.04,0.3-0.03,0.61-0.05,0.92
	c-0.01,0.61-0.08,1.22-0.06,1.83l0.11,1.83c0,0.31,0.05,0.61,0.11,0.91l0.15,0.9c0.74,4.83,3.08,9.34,6.43,12.94
	c3.41,3.53,7.87,6.17,12.81,7.2c2.46,0.58,5.04,0.71,7.6,0.49c1.29-0.06,2.54-0.36,3.83-0.59l1.87-0.55l0.47-0.14l0.45-0.18
	l0.91-0.37c2.4-1.02,4.75-2.35,6.76-4.12c2.03-1.75,3.81-3.81,5.28-6.12c1.44-2.32,2.46-4.91,3.14-7.6l0.42-2.05l0.21-2.09
	c0.15-1.39,0.11-2.8-0.01-4.21l1.24,0.01c-0.48,2.52-1.42,4.91-2.71,7.08c-1.28,2.18-2.97,4.09-4.89,5.68
	C328.03,535,323.07,536.78,318.11,536.76z M318.11,536.76c2.48-0.02,4.96-0.47,7.27-1.35c2.32-0.88,4.45-2.21,6.29-3.84
	c1.85-1.63,3.36-3.62,4.48-5.78c1.13-2.17,1.82-4.54,2.09-6.93l0.53-4.53l0.71,4.54c0.23,1.45,0.43,2.93,0.41,4.41l-0.01,2.23
	l-0.23,2.23c-0.4,2.96-1.23,5.89-2.5,8.66c-1.31,2.75-3.03,5.32-5.12,7.61c-2.07,2.31-4.6,4.21-7.32,5.78l-1.04,0.57l-0.52,0.28
	l-0.54,0.24l-2.19,0.94c-1.51,0.49-3.03,1.01-4.61,1.27l-1.18,0.24c-0.39,0.07-0.79,0.09-1.19,0.14c-0.8,0.07-1.6,0.18-2.4,0.21
	l-2.42-0.02c-0.41,0.01-0.81-0.03-1.21-0.08l-1.21-0.13c-3.21-0.4-6.42-1.27-9.37-2.72c-2.96-1.43-5.69-3.32-8.1-5.58
	c-2.35-2.33-4.37-4.99-5.93-7.93c-1.58-2.93-2.59-6.15-3.14-9.42l-0.18-1.23c-0.06-0.41-0.12-0.82-0.13-1.24l-0.11-2.49
	c-0.01-0.83,0.07-1.66,0.11-2.48c0.03-0.41,0.03-0.83,0.09-1.24l0.2-1.23c0.21-1.65,0.7-3.24,1.14-4.84l0.89-2.32l0.23-0.58
	l0.28-0.55l0.56-1.1c1.55-2.9,3.47-5.63,5.86-7.87c2.36-2.27,5.06-4.14,7.96-5.57c2.92-1.42,6.06-2.28,9.21-2.73l2.38-0.23
	l2.38,0.01c1.58-0.01,3.17,0.21,4.69,0.49l18.41,3.31l-18.35,1.49c-4.62,0.38-9.18,2.62-12.44,6.24c-1.64,1.8-2.93,3.95-3.79,6.28
	c-0.86,2.33-1.26,4.86-1.18,7.39c0.09,2.53,0.66,5.06,1.7,7.41c1.05,2.34,2.55,4.5,4.41,6.31c1.87,1.79,4.08,3.25,6.5,4.23
	C312.88,536.22,315.49,536.73,318.11,536.76z"/>
<path d="M274.54,291.22c1.55,4.19,2.81,8.49,3.94,12.81c1.13,4.33,2.1,8.7,2.88,13.1c1.55,8.81,2.55,17.75,2.62,26.73
	c0.07,8.97-0.68,17.98-2.59,26.78c-1.9,8.8-5.04,17.38-9.61,25.17c-4.6,7.77-10.58,14.7-17.57,20.36
	c-3.51,2.81-7.24,5.33-11.12,7.58c-3.91,2.19-7.94,4.17-12.1,5.84c-4.17,1.64-8.41,3.08-12.72,4.26c-1.08,0.29-2.15,0.63-3.24,0.88
	l-3.27,0.77l-1.63,0.38l-1.65,0.32l-3.29,0.64c-8.81,1.57-17.73,2.48-26.67,2.83l-6.71,0.17l-6.68,0.21l-6.67,0.22
	c-1.11,0.01-2.22,0.11-3.33,0.19l-3.33,0.25l-6.65,0.49c-1.11,0.06-2.21,0.23-3.31,0.36l-3.31,0.41l-6.62,0.8l-6.57,1.13
	c-8.77,1.42-17.37,3.71-25.84,6.3c-8.39,2.86-16.62,6.18-24.41,10.37c-7.75,4.25-15.07,9.29-21.68,15.15
	c-6.61,5.86-12.44,12.6-17.25,20.03c-0.59,0.94-1.24,1.83-1.78,2.8l-1.65,2.88l-0.83,1.44l-0.75,1.48l-1.49,2.97
	c-1.83,4.03-3.56,8.13-4.85,12.38c-2.67,8.45-4.41,17.28-4.52,26.19l-0.21,0.01c-0.17-4.48,0.2-8.95,0.83-13.38
	c0.62-4.44,1.61-8.82,2.87-13.13c1.2-4.33,2.85-8.51,4.61-12.64l1.44-3.05l0.72-1.52l0.8-1.48l1.62-2.96
	c0.53-0.99,1.18-1.91,1.77-2.87c4.78-7.62,10.63-14.58,17.28-20.66c6.65-6.09,14.11-11.23,21.97-15.62l6.02-3.05
	c0.5-0.25,1-0.52,1.51-0.75l1.55-0.66l3.1-1.32l3.1-1.32c1.03-0.45,2.11-0.77,3.16-1.16l6.36-2.23c8.6-2.56,17.32-4.8,26.18-6.16
	l6.63-1.08l6.68-0.74l3.34-0.36c1.11-0.11,2.22-0.27,3.34-0.31l6.7-0.4l3.35-0.2c1.12-0.06,2.23-0.15,3.35-0.15l6.71-0.07l6.7-0.07
	l6.68-0.03c8.89-0.21,17.8-0.84,26.57-2.4c8.76-1.53,17.43-3.78,25.65-7.19c4.11-1.71,8.09-3.69,11.93-5.92
	c3.79-2.31,7.42-4.88,10.8-7.73c6.76-5.73,12.44-12.66,16.79-20.33c4.36-7.68,7.37-16.07,9.32-24.69c1.95-8.63,2.77-17.5,2.78-26.37
	c0-8.87-0.71-17.76-2.08-26.55c-1.4-8.78-3.26-17.52-5.92-26.03L274.54,291.22z"/>
<path d="M337.29,306.02c-0.14,8.17,0.26,16.32,1.07,24.36c0.2,2.01,0.45,4.02,0.73,6.01c0.28,2,0.56,3.99,0.91,5.97
	c0.67,3.96,1.54,7.88,2.53,11.74c2.01,7.72,4.71,15.21,8.35,22.15c3.68,6.91,8.26,13.26,13.84,18.64
	c5.55,5.4,12.19,9.76,19.52,12.81c3.66,1.55,7.51,2.66,11.43,3.54c1.95,0.47,3.95,0.74,5.94,1.06c2,0.2,4.01,0.48,6.03,0.55
	c4.03,0.26,8.1,0.19,12.14-0.1c2.02-0.16,4.04-0.32,6.05-0.59c2-0.23,4.05-0.5,6.1-0.78c8.2-1.02,16.52-1.39,24.85-0.98
	c4.16,0.26,8.34,0.63,12.47,1.35l1.56,0.25l1.54,0.31c1.03,0.21,2.07,0.39,3.09,0.63c2.04,0.51,4.09,1,6.11,1.62
	c4.05,1.16,8.02,2.65,11.89,4.37c3.87,1.7,7.65,3.65,11.28,5.84c3.63,2.19,7.17,4.56,10.52,7.17c3.34,2.63,6.53,5.45,9.56,8.45
	c6.05,6,11.25,12.86,15.5,20.27c2.11,3.72,3.97,7.58,5.52,11.58c1.55,3.99,2.84,8.09,3.74,12.29c0.92,4.19,1.51,8.47,1.69,12.78
	c0.17,4.31-0.1,8.64-0.82,12.91c-0.72,4.27-1.97,8.46-3.79,12.39c-1.8,3.94-4.17,7.61-7.03,10.82c-2.84,3.23-6.18,5.95-9.79,8.14
	c-3.62,2.17-7.52,3.78-11.5,4.89l-0.27-0.74c3.69-1.73,7.18-3.81,10.3-6.28c3.13-2.46,5.85-5.36,8.13-8.52
	c2.26-3.18,4.04-6.65,5.35-10.28c1.32-3.63,2.08-7.44,2.49-11.28c0.39-3.84,0.34-7.73-0.04-11.59c-0.36-3.86-1.08-7.69-2.1-11.45
	c-2.05-7.51-5.16-14.75-9.13-21.49c-3.96-6.74-8.72-13.03-14.11-18.74c-5.41-5.69-11.5-10.76-18.12-15.05
	c-3.29-2.17-6.76-4.08-10.3-5.84c-1.76-0.91-3.58-1.69-5.39-2.5l-2.76-1.12c-0.91-0.39-1.85-0.73-2.78-1.07
	c-7.45-2.75-15.24-4.74-23.2-5.86c-1.99-0.24-3.99-0.52-6-0.66c-1-0.07-2.01-0.19-3.02-0.23l-3.03-0.11
	c-1.01-0.05-2.02-0.04-3.03-0.04c-1.01,0.01-2.02-0.01-3.03,0.02l-3.03,0.16l-1.52,0.08l-1.51,0.13c-4.01,0.3-8.16,0.9-12.27,1.1
	c-1.03,0.09-2.06,0.1-3.09,0.15c-1.03,0.04-2.06,0.11-3.1,0.12c-2.07,0-4.14,0.07-6.21-0.02c-2.07-0.02-4.14-0.17-6.22-0.29
	c-2.07-0.2-4.15-0.37-6.21-0.68c-4.14-0.56-8.26-1.41-12.31-2.63c-4.05-1.22-8.01-2.82-11.8-4.82c-3.78-2.01-7.37-4.43-10.66-7.22
	c-6.59-5.59-11.83-12.66-15.66-20.29c-3.86-7.63-6.44-15.76-8.1-23.98c-0.85-4.11-1.41-8.26-1.8-12.42
	c-0.2-2.08-0.36-4.15-0.46-6.23c-0.09-2.08-0.13-4.16-0.13-6.23c-0.03-4.15,0.19-8.29,0.54-12.41c0.39-4.12,0.91-8.21,1.78-12.27
	L337.29,306.02z"/>
</svg>
