<?xml version="1.0" encoding="utf-8"?>
<!-- Generator: Adobe Illustrator 24.0.1, SVG Export Plug-In . SVG Version: 6.00 Build 0)  -->
<svg version="1.0" id="图层_1" xmlns="http://www.w3.org/2000/svg" xmlns:xlink="http://www.w3.org/1999/xlink" x="0px" y="0px"
	 viewBox="0 0 502 613" style="enable-background:new 0 0 502 613;" xml:space="preserve">
<g>
	<g>
		<path d="M467,579.5H35v-546h432V579.5z M40,574.5h422v-536H40V574.5z"/>
	</g>
	<g>
		<rect x="55.5" y="86.47" width="391" height="5"/>
	</g>
	<g>
		<path d="M396.5,54.5c-5.8,0-10.5,4.7-10.5,10.5s4.7,10.5,10.5,10.5S407,70.8,407,65S402.3,54.5,396.5,54.5z M401.5,68h-10
			c-1.65,0-3-1.35-3-3s1.35-3,3-3h10c1.65,0,3,1.35,3,3S403.15,68,401.5,68z"/>
	</g>
	<g>
		<path d="M431.5,54.5c-5.8,0-10.5,4.7-10.5,10.5s4.7,10.5,10.5,10.5S442,70.8,442,65S437.3,54.5,431.5,54.5z M436.5,68h-2v2
			c0,1.65-1.35,3-3,3s-3-1.35-3-3v-2h-2c-1.65,0-3-1.35-3-3s1.35-3,3-3h2v-2c0-1.65,1.35-3,3-3s3,1.35,3,3v2h2c1.65,0,3,1.35,3,3
			S438.15,68,436.5,68z"/>
	</g>
	<g>
		<path d="M361.5,54.5c-5.8,0-10.5,4.7-10.5,10.5s4.7,10.5,10.5,10.5S372,70.8,372,65S367.3,54.5,361.5,54.5z M361.5,70
			c-2.75,0-5-2.25-5-5s2.25-5,5-5s5,2.25,5,5S364.25,70,361.5,70z"/>
	</g>
	<g>
		<g>
			<g>
				<g>
					<path d="M136.77,343.88c-1.65,0-3.31-0.25-4.86-0.84c-1.55-0.58-2.96-1.51-4.16-2.64c-1.21-1.13-2.21-2.49-2.9-4.01
						c-0.69-1.52-1.08-3.16-1.23-4.82l-0.48-19.83l-0.63-19.82l-0.33-9.91l-0.16-4.98c-0.03-1.88,0.35-3.78,1.04-5.51
						c0.68-1.74,1.73-3.41,3.07-4.78c1.31-1.35,2.92-2.52,4.74-3.25c1.82-0.74,3.77-1.06,5.66-1.06c1.92,0,3.88,0.38,5.69,1.13
						c0.92,0.38,1.81,0.87,2.63,1.46c0.81,0.57,1.6,1.35,2.16,1.94c1.3,1.35,2.45,3.04,3.17,4.9c0.74,1.83,1.05,3.9,1.03,5.73
						l0.02,4.95c0.04,13.21-0.19,26.42-0.54,39.63l-1.95-1.95l10.25,0.3l5.13,0.17l2.56,0.09c0.89,0.01,1.9,0.12,2.82,0.35
						c1.88,0.45,3.62,1.41,5,2.71c1.4,1.3,2.4,2.94,3.04,4.66c0.64,1.74,0.87,3.61,0.69,5.43c-0.16,1.81-0.75,3.61-1.74,5.13
						c-1,1.52-2.31,2.78-3.85,3.7c-1.54,0.93-3.33,1.39-5.09,1.44l-10.27-0.18C150.44,343.92,143.6,343.9,136.77,343.88z
						 M136.77,343.88c6.83-0.02,13.67-0.04,20.5-0.17l10.23-0.2c3.34-0.16,6.28-2.3,7.88-5.09c1.6-2.78,1.65-6.33,0.37-9.18
						c-0.64-1.44-1.58-2.73-2.76-3.68c-1.18-0.96-2.59-1.61-4.05-1.86c-0.75-0.13-1.46-0.16-2.28-0.12l-2.56,0.09l-5.13,0.17
						l-10.25,0.3l-1.9,0.06l-0.05-2c-0.36-13.21-0.58-26.42-0.54-39.63l0.02-4.95c0.02-1.46-0.17-2.73-0.63-3.97
						c-0.46-1.23-1.17-2.35-2.13-3.4c-0.56-0.61-0.93-1.02-1.46-1.42c-0.5-0.39-1.06-0.73-1.65-1c-1.22-0.56-2.56-0.88-3.94-0.93
						c-1.4-0.05-2.78,0.13-4.04,0.59s-2.45,1.17-3.49,2.14c-1.03,0.93-1.85,2.07-2.45,3.37s-0.96,2.69-1.02,4.11l-0.17,4.93
						l-0.33,9.91l-0.63,19.82c-0.19,6.6-0.36,13.22-0.39,19.8c0.11,3.27,1.47,6.51,3.87,8.79c1.17,1.16,2.58,2.07,4.12,2.67
						C133.46,343.61,135.12,343.88,136.77,343.88z"/>
				</g>
			</g>
		</g>
		<g>
			<g>
				<g>
					<path d="M209.84,345.09c-8.19,0.08-16.44-2.81-22.65-8.36c-3.09-2.77-5.67-6.14-7.49-9.93c-1.84-3.79-2.85-8-3-12.27
						c-0.15-4.26,0.56-8.61,2.18-12.64c1.63-4.01,4.01-7.75,7.14-10.85c3.14-3.08,6.85-5.54,10.95-7.2c4.1-1.66,8.54-2.41,12.9-2.42
						c4.35,0,8.8,0.74,12.9,2.4c4.09,1.62,7.84,4.12,10.96,7.16c3.16,3.07,5.58,6.81,7.19,10.85c1.6,4.06,2.23,8.41,2.07,12.67
						c-0.17,4.27-1.24,8.45-3.03,12.26c-1.79,3.82-4.41,7.17-7.5,9.93C226.28,342.27,218.03,345.16,209.84,345.09z M209.84,345.09
						c4.1-0.01,8.21-0.72,12-2.25c3.8-1.52,7.25-3.83,10.15-6.66c2.88-2.85,5.14-6.3,6.59-10.02c1.42-3.74,2.07-7.74,1.9-11.67
						c-0.17-3.93-1.11-7.81-2.78-11.27c-1.66-3.48-4.06-6.57-6.91-9.09c-2.87-2.56-6.19-4.5-9.76-5.81
						c-3.54-1.31-7.33-1.92-11.17-1.91c-3.83-0.01-7.62,0.6-11.16,1.91c-3.54,1.31-6.91,3.28-9.73,5.82
						c-5.68,5.06-9.45,12.51-9.78,20.39c-0.18,3.93,0.41,7.94,1.88,11.66c1.49,3.7,3.7,7.18,6.6,10.02
						c2.9,2.83,6.37,5.11,10.17,6.63C201.63,344.39,205.74,345.08,209.84,345.09z"/>
				</g>
				<g>
					<path d="M201.42,314.64c-0.01,2.41,0.71,4.9,2.32,6.63c0.79,0.87,1.75,1.57,2.78,1.97s2.11,0.48,3.14,0.34
						c0.52-0.1,1-0.33,1.48-0.47c0.48-0.19,0.96-0.4,1.36-0.67c0.84-0.5,1.45-1.14,1.9-1.87c0.45-0.73,0.76-1.57,0.96-2.51
						c0.12-0.47,0.17-0.97,0.24-1.45l0.12-1.56c0.13-1.05,0-1.97-0.17-2.85c-0.1-0.43-0.22-0.85-0.39-1.25
						c-0.16-0.35-0.47-0.97-0.69-1.35c-0.96-1.7-2.31-3-4.41-3.4c-1.03-0.2-2.12-0.19-3.16,0.14c-1.05,0.32-2.03,0.97-2.85,1.81
						s-1.53,1.84-1.97,2.95C201.62,312.22,201.43,313.43,201.42,314.64z M201.42,314.64c-0.01-1.21,0.14-2.43,0.48-3.6
						c0.34-1.18,0.92-2.29,1.61-3.33c0.7-1.04,1.59-2.02,2.73-2.74c1.13-0.74,2.5-1.18,3.89-1.29c1.38-0.14,2.91,0.05,4.3,0.66
						c1.4,0.6,2.6,1.59,3.53,2.69c0.49,0.6,0.82,1.01,1.26,1.71c0.4,0.67,0.74,1.38,0.97,2.11c0.46,1.45,0.64,2.98,0.52,4.34
						c-0.12,2.65-0.78,5.75-2.98,8.09c-1.08,1.15-2.5,1.98-3.91,2.37c-0.71,0.22-1.41,0.31-2.11,0.37
						c-0.72,0.02-1.43,0.09-2.12,0.03c-1.38-0.2-2.73-0.73-3.81-1.53c-1.09-0.79-1.92-1.79-2.59-2.86
						C201.85,319.53,201.41,317.05,201.42,314.64z"/>
				</g>
			</g>
		</g>
		<g>
			<g>
				<g>
					<path d="M269,284.83c1.63-0.34,3.28-0.54,4.94-0.59c1.66-0.04,3.33,0.03,4.97,0.35c1.64,0.3,3.23,0.83,4.71,1.61
						c1.48,0.78,2.82,1.8,3.98,3.01l0.03,0.03v0.04v0.53l-0.14-0.08c3.31-1.85,6.59-3.77,9.88-5.66l-0.03,0.02
						c0.73-0.58,1.66-0.84,2.56-0.91s1.82,0.02,2.69,0.34c0.86,0.31,1.64,0.83,2.29,1.47c0.63,0.63,1.22,1.29,1.75,2.01
						c1.06,1.43,1.89,3.05,2.42,4.76c0.52,1.71,0.74,3.54,0.74,5.29l0.48,20.89l0.26,10.44l0.13,5.23c0.04,1.77,0.01,3.55-0.09,5.34
						c-0.2,3.56-0.7,7.15-1.68,10.65c-0.97,3.5-2.4,6.94-4.45,10.06c-2.04,3.13-4.75,5.87-7.9,7.95c-3.15,2.09-6.66,3.53-10.27,4.41
						c-3.61,0.89-7.3,1.21-10.96,1.12c-0.91-0.03-1.86-0.04-2.75-0.09c-0.86-0.06-1.77-0.13-2.67-0.23
						c-1.8-0.19-3.61-0.46-5.42-0.86c-1.81-0.4-3.62-0.92-5.4-1.65c-0.89-0.36-1.78-0.82-2.59-1.28c-0.8-0.44-1.62-0.94-2.41-1.48
						c-3.1-2.12-6.29-5.26-7.09-9.78c-0.37-2.23-0.02-4.48,0.84-6.46c0.8-1.82,1.93-3.69,3.69-5.1c1.73-1.43,3.98-2.21,6.06-2.36
						c2.09-0.18,4.13,0.13,6.02,0.73l-0.65-0.1h0.26l0.46,0.01l0.37,0.15l3.51,1.47l0.39,0.21c0.03-0.02,0.05-0.03,0.07-0.03
						c0.02,0-0.03,0,0.23,0.09l1.1,0.41l-0.15-0.06c2.45,0.91,5.05,1.41,7.71,1.47l-0.25,0.02c1.76-0.19,3.5-0.58,4.72-1.32
						c1.18-0.71,1.87-1.9,2.08-3.5l0.02-0.15c0.02-0.36,0.06-0.72,0.1-1.09l2.52,1.47c-3.84,2.08-8.32,3.19-12.71,2.82
						c-1.08-0.09-2.13-0.24-3.17-0.41l-1.57-0.28c-0.55-0.12-1.06-0.25-1.58-0.39c-2.06-0.57-4.06-1.37-5.95-2.36
						c-7.62-4.02-12.92-11.55-14.67-19.71c-1.69-8.16-0.6-16.89,3.44-24.12c2-3.61,4.68-6.85,7.96-9.35
						C261.11,287.33,264.94,285.52,269,284.83z M269,284.83c-4.05,0.74-7.85,2.57-11.08,5.1c-3.23,2.53-5.91,5.75-7.8,9.38
						s-3.07,7.61-3.5,11.66c-0.44,4.05-0.22,8.18,0.82,12.09c1.03,3.91,2.86,7.59,5.36,10.71c1.25,1.56,2.68,2.96,4.24,4.2
						c0.78,0.62,1.59,1.19,2.43,1.73c0.81,0.54,1.69,0.96,2.6,1.38c1.8,0.83,3.68,1.47,5.6,1.9c0.48,0.11,0.97,0.2,1.43,0.28
						l1.48,0.18c1,0.11,1.99,0.2,2.96,0.23c3.83,0.12,7.61-1.02,10.89-3.01l2.64-1.6l-0.12,3.07c-0.02,0.58-0.06,1.17-0.1,1.76
						l0.02-0.15c-0.1,1.13-0.39,2.32-0.98,3.43c-0.58,1.11-1.48,2.09-2.51,2.78c-1.02,0.68-2.08,1.12-3.12,1.44
						c-1.05,0.32-2.08,0.53-3.11,0.69l-0.09,0.01h-0.17c-3.06,0.06-6.19-0.36-9.14-1.38l-0.15-0.06l-0.64-0.21l-0.64-0.23
						c-0.27-0.1-0.54-0.22-0.8-0.35l0.39,0.21l-3.55-1.37l0.83,0.16h-0.26h-0.3l-0.35-0.1c-1.43-0.42-2.91-0.58-4.29-0.42
						c-1.37,0.15-2.55,0.63-3.49,1.44c-0.95,0.81-1.68,1.99-2.27,3.35c-0.52,1.22-0.68,2.56-0.47,3.76
						c0.21,1.21,0.83,2.43,1.73,3.54c0.88,1.09,2.05,2.08,3.35,2.95c0.66,0.44,1.32,0.84,2.05,1.23c0.71,0.39,1.37,0.71,2.09,1.02
						c1.43,0.6,2.97,1.07,4.56,1.44s3.22,0.63,4.88,0.82c0.83,0.1,1.65,0.17,2.53,0.24c0.86,0.06,1.65,0.06,2.47,0.1
						c3.29,0.13,6.6-0.17,9.78-0.83c3.17-0.69,6.23-1.85,8.93-3.54c2.71-1.69,5.05-3.93,6.94-6.55c3.8-5.28,5.61-11.96,6.34-18.67
						c0.18-1.69,0.29-3.39,0.34-5.1l0.13-5.22l0.26-10.44l0.48-20.89c0.07-1.72-0.06-3.4-0.49-5.04c-0.43-1.63-1.14-3.2-2.12-4.59
						c-1.01-1.36-2.1-2.77-3.66-3.35c-0.77-0.3-1.61-0.41-2.44-0.37c-0.83,0.04-1.66,0.26-2.32,0.75l-0.02,0.01l-0.01,0.01
						c-3.34,1.81-6.69,3.58-10.01,5.43l-0.14,0.08v-0.16v-0.53l0.03,0.06c-1.13-1.2-2.45-2.23-3.91-3.01s-3.04-1.32-4.67-1.64
						c-1.62-0.33-3.29-0.42-4.95-0.39C272.29,284.32,270.63,284.5,269,284.83z"/>
				</g>
				<g>
					<path d="M269.9,314.7c0.02,2.09,0.72,4.23,2.16,5.7c1.42,1.5,3.39,2.29,5.24,2.11c0.94-0.06,1.82-0.29,2.6-0.68
						c0.81-0.4,1.5-0.89,2.04-1.47c1.09-1.14,1.67-2.64,2.06-4.35l-0.07,0.42c-0.02-0.54,0.01-1.08,0.01-1.63
						c0-0.54,0.03-1.08,0.05-1.62l0.04,0.43c-0.16-1-0.4-1.94-0.76-2.8c-0.36-0.86-0.85-1.64-1.49-2.35
						c-0.64-0.69-1.38-1.25-2.3-1.6c-0.93-0.35-1.98-0.47-3.12-0.35l0.08-0.02c-0.88,0.15-1.76,0.47-2.58,0.94
						c-0.41,0.24-0.81,0.5-1.2,0.79c-0.37,0.28-0.68,0.63-0.99,1c-0.59,0.76-1.07,1.63-1.34,2.57
						C270.02,312.72,269.92,313.71,269.9,314.7z M269.9,314.7c-0.01-1.97,0.34-3.98,1.34-5.77c0.24-0.44,0.51-0.89,0.87-1.29
						c0.33-0.39,0.68-0.77,1.07-1.12c0.76-0.72,1.63-1.36,2.61-1.86l0.08-0.02c1.22-0.51,2.66-0.83,4.14-0.74
						c1.49,0.07,3.02,0.6,4.28,1.45c1.26,0.83,2.35,1.97,3.12,3.28c0.78,1.3,1.27,2.73,1.52,4.13l0.04,0.22v0.21
						c-0.01,0.61-0.02,1.23-0.05,1.84s-0.04,1.23-0.1,1.84l-0.02,0.24l-0.05,0.17c-0.35,1.18-0.87,2.35-1.59,3.44
						c-0.74,1.08-1.7,2.07-2.83,2.76c-1.12,0.72-2.38,1.12-3.58,1.31c-1.24,0.2-2.49,0.13-3.65-0.14c-1.17-0.27-2.27-0.78-3.19-1.47
						c-0.93-0.68-1.67-1.52-2.28-2.42C270.38,318.93,269.91,316.79,269.9,314.7z"/>
				</g>
			</g>
		</g>
		<g>
			<g>
				<g>
					<path d="M346.38,345.09c-8.19,0.08-16.44-2.81-22.65-8.36c-3.09-2.77-5.67-6.14-7.49-9.93c-1.84-3.79-2.85-8-3-12.27
						c-0.15-4.26,0.56-8.61,2.18-12.64c1.63-4.01,4.01-7.75,7.14-10.85c3.14-3.08,6.85-5.54,10.95-7.2s8.54-2.41,12.9-2.42
						c4.35,0,8.8,0.74,12.9,2.4c4.09,1.62,7.84,4.12,10.96,7.16c3.16,3.07,5.58,6.81,7.19,10.85c1.6,4.06,2.23,8.41,2.07,12.67
						c-0.17,4.27-1.24,8.45-3.03,12.26c-1.79,3.82-4.41,7.17-7.5,9.93C362.82,342.27,354.57,345.16,346.38,345.09z M346.38,345.09
						c4.1-0.01,8.21-0.72,12-2.25c3.8-1.52,7.25-3.83,10.15-6.66c2.88-2.85,5.14-6.3,6.59-10.02c1.42-3.74,2.07-7.74,1.9-11.67
						c-0.17-3.93-1.11-7.81-2.78-11.27c-1.66-3.48-4.06-6.57-6.91-9.09c-2.87-2.56-6.19-4.5-9.76-5.81
						c-3.54-1.31-7.33-1.92-11.17-1.91c-3.83-0.01-7.62,0.6-11.16,1.91s-6.91,3.28-9.73,5.82c-5.68,5.06-9.45,12.51-9.78,20.39
						c-0.18,3.93,0.41,7.94,1.88,11.66c1.49,3.7,3.7,7.18,6.6,10.02c2.9,2.83,6.37,5.11,10.17,6.63
						C338.17,344.39,342.28,345.08,346.38,345.09z"/>
				</g>
				<g>
					<path d="M337.96,314.64c-0.01,2.41,0.71,4.9,2.32,6.63c0.79,0.87,1.75,1.57,2.78,1.97s2.11,0.48,3.14,0.34
						c0.52-0.1,1-0.33,1.48-0.47c0.48-0.19,0.96-0.4,1.36-0.67c0.84-0.5,1.45-1.14,1.9-1.87c0.45-0.73,0.76-1.57,0.96-2.51
						c0.12-0.47,0.17-0.97,0.24-1.45l0.12-1.56c0.13-1.05,0-1.97-0.17-2.85c-0.1-0.43-0.22-0.85-0.39-1.25
						c-0.16-0.35-0.47-0.97-0.69-1.35c-0.96-1.7-2.31-3-4.41-3.4c-1.03-0.2-2.12-0.19-3.16,0.14c-1.05,0.32-2.03,0.97-2.85,1.81
						s-1.53,1.84-1.97,2.95C338.16,312.22,337.97,313.43,337.96,314.64z M337.96,314.64c-0.01-1.21,0.14-2.43,0.48-3.6
						c0.34-1.18,0.92-2.29,1.61-3.33c0.7-1.04,1.59-2.02,2.73-2.74c1.13-0.74,2.5-1.18,3.89-1.29c1.38-0.14,2.91,0.05,4.3,0.66
						c1.4,0.6,2.6,1.59,3.53,2.69c0.49,0.6,0.82,1.01,1.26,1.71c0.4,0.67,0.74,1.38,0.97,2.11c0.46,1.45,0.64,2.98,0.52,4.34
						c-0.12,2.65-0.78,5.75-2.98,8.09c-1.08,1.15-2.5,1.98-3.91,2.37c-0.71,0.22-1.41,0.31-2.11,0.37
						c-0.72,0.02-1.43,0.09-2.12,0.03c-1.38-0.2-2.73-0.73-3.81-1.53c-1.09-0.79-1.92-1.79-2.59-2.86
						C338.39,319.53,337.95,317.05,337.96,314.64z"/>
				</g>
			</g>
		</g>
	</g>
</g>
</svg>
