<?xml version="1.0" encoding="utf-8"?>
<!-- Generator: Adobe Illustrator 24.0.1, SVG Export Plug-In . SVG Version: 6.00 Build 0)  -->
<svg version="1.0" id="图层_1" xmlns="http://www.w3.org/2000/svg" xmlns:xlink="http://www.w3.org/1999/xlink" x="0px" y="0px"
	 viewBox="0 0 502 613" style="enable-background:new 0 0 502 613;" xml:space="preserve">
<path d="M359.63,318.79c-0.14-1.08-0.21-2.18-0.45-3.23c-0.78-4.26-2.33-8.27-4.37-11.99c-1.77-3.21-3.99-6.17-6.55-8.83
	c0.46-0.28,0.9-0.6,1.27-0.98c1.06-1.12,1.61-2.45,1.87-3.68c0.08-0.32,0.11-0.62,0.14-0.92c0.04-0.31,0.07-0.61,0.06-0.9l0-0.86
	l-0.04-0.72c-0.06-0.96-0.11-1.91-0.19-2.87c-0.16-1.91-0.29-3.83-0.5-5.74l-0.56-5.74c-0.16-2.03-0.75-4.01-1.6-5.77
	c-0.87-1.76-1.9-3.42-3.17-4.87c-1.24-1.47-2.67-2.79-4.32-3.76c0.82,0.5,1.57,1.09,2.28,1.73c0.67,0.68,1.32,1.38,1.87,2.16
	c1.12,1.54,1.96,3.27,2.51,5.06c0.5,1.81,0.77,3.64,0.52,5.44l-0.59,5.74c-0.21,1.91-0.36,3.83-0.53,5.74
	c-0.09,0.96-0.14,1.91-0.21,2.87l-0.04,0.72l-0.06,0.57c-0.01,0.19-0.05,0.36-0.09,0.52c-0.04,0.17-0.06,0.34-0.13,0.49
	c-0.18,0.62-0.46,1.09-0.75,1.34c-0.29,0.26-0.56,0.38-1.01,0.42c-0.44,0.04-1.04-0.05-1.67-0.3c-0.03-0.01-0.06-0.03-0.09-0.04
	c-0.25-0.18-0.52-0.34-0.78-0.5c-0.11-2.36-0.26-4.73-0.46-7.09c-0.22-2.82-0.53-5.64-0.79-8.46c-0.28-2.82-0.51-5.64-0.69-8.46
	c-0.08-1.29-0.13-2.57-0.18-3.86c-0.01-1.52-0.02-3.03-0.02-4.55l0.91,0.44l-0.91-0.47c0-1.28,0-2.57-0.01-3.85l-0.01-3.14
	c0.01-0.52-0.03-1.06-0.16-1.57c-0.16-0.5-0.37-0.99-0.7-1.41c-0.63-0.84-1.57-1.45-2.6-1.65c-1.03-0.24-2.12-0.01-3.03,0.5
	c0.91-0.5,2-0.72,3.02-0.47c1.02,0.21,1.95,0.82,2.56,1.66c0.32,0.41,0.52,0.9,0.67,1.39c0.12,0.51,0.16,1.02,0.14,1.55l-0.02,3.14
	c-0.03,2.81-0.05,5.61-0.08,8.42c-0.05,1.28-0.12,2.57-0.2,3.85c-0.2,2.82-0.44,5.63-0.74,8.45c-0.28,2.82-0.6,5.63-0.84,8.45
	c-0.14,1.49-0.26,2.98-0.36,4.48l-1.37-0.77c-7.02-3.89-14-7.84-21.06-11.65c-5.17-2.82-10.36-5.61-15.55-8.37
	c2.56-1.55,5.12-3.11,7.7-4.65c8.65-5.26,17.42-10.32,26.13-15.48c-8.79,5.03-17.52,10.15-26.36,15.08
	c-2.75,1.56-5.51,3.09-8.26,4.63c-4.38-2.33-8.77-4.63-13.19-6.9c0.76-0.43,1.41-1.02,1.89-1.67c0.61-0.81,1-1.69,1.25-2.55
	c0.49-1.72,0.45-3.37,0.23-4.92c-0.5-3.09-1.85-5.81-3.56-8.15l-0.66-0.86l-0.64-0.78l-1.28-1.55l-2.56-3.11
	c-3.43-4.14-6.83-8.29-10.17-12.5c-1.66-2.1-3.3-4.23-4.92-6.36c-1.08-1.5-2.25-2.98-3.65-4.19l0.01-0.39l0.11-4.29l0.05-2.15
	c0.02-0.67,0.05-1.55-0.21-2.34c-0.48-1.6-1.84-2.89-3.47-3.34c-0.81-0.23-1.69-0.25-2.53-0.05c-0.41,0.11-0.82,0.26-1.19,0.45
	c-0.36,0.18-0.64,0.35-0.96,0.52l-15.07,8.25c-10.06,5.49-20.09,11.02-30.1,16.59l-14.97,8.43l-14.89,8.56
	c-4.98,2.83-9.9,5.77-14.83,8.67l-1,0.6c-0.47,0.3-0.91,0.66-1.29,1.07c-0.77,0.82-1.32,1.83-1.6,2.92
	c-0.14,0.54-0.21,1.1-0.21,1.66l0,1.08l0,2.15c0,2.41,0.04,4.82,0.07,7.23c-0.88-0.38-1.81-0.62-2.77-0.62
	c-0.67,0.02-1.34,0.17-1.95,0.47c-0.61,0.31-1.11,0.8-1.5,1.35c-0.75,1.15-1.07,2.53-1.11,3.89l-0.16,4.02l-0.43,8.04
	c-0.06,1.36-0.2,2.63-0.23,4.07c-0.02,1.46,0.2,2.9,0.58,4.28c0.49,1.79,1.23,3.5,2.19,5.11c-1.91-0.1-3.98,0.41-5.62,1.58
	l0.61,1.04c-0.06,0.03-0.11,0.06-0.17,0.09c-2.01,1.19-3.48,3.12-4.34,5.17c-0.86,2.07-1.28,4.26-1.33,6.42
	c-0.08,2.09-0.09,4.09-0.14,6.14l-0.48,24.45c-0.17,8.15-0.33,16.3-0.41,24.46c-0.09,8.15-0.25,16.3-0.27,24.46l0,1.4l1.21,0.7
	c9.44,5.46,18.83,11.02,28.31,16.41c9.47,5.41,18.91,10.88,28.42,16.21l14.25,8.04l14.3,7.95l26.91,14.94l0,3.96l3.44-2.05
	l0.28,0.15l0-0.31l24.44-14.54l24.52-14.78l49.04-29.57l0.34-0.21l0-0.38l-0.12-9.22c0.74-13.05,1.21-26.11,1.55-39.16
	c0.26-8.02,0.32-16.04,0.48-24.06l0.06-6.02C359.74,321.05,359.67,319.86,359.63,318.79z M190.34,307.58
	c-0.5-3.09-1.85-5.81-3.56-8.15l-0.66-0.86l-0.64-0.78l-1.28-1.55l-1.83-2.22c3.85-2.37,7.7-4.76,11.55-7.14
	c2.52-1.24,5.03-2.5,7.52-3.79c6.95-3.61,13.8-7.4,20.57-11.33c6.77-3.93,13.45-8.01,20.03-12.26c0.38-0.25,0.75-0.5,1.13-0.74
	c-0.57,2.56-0.93,5.11-1.22,7.67c-0.38,3.58-0.56,7.17-0.56,10.75c-0.01,3.58,0.15,7.17,0.51,10.75c0.31,2.95,0.74,5.89,1.44,8.84
	l-0.72,0.4l-0.42,0.23c-0.13,0.07-0.38,0.22-0.55,0.34c-0.38,0.26-0.73,0.56-1.04,0.9c-0.63,0.68-1.11,1.49-1.38,2.38
	c-0.14,0.44-0.23,0.9-0.27,1.37c-0.03,0.54-0.03,0.73-0.04,1.08l-0.09,3.8l-0.12,7.11c-0.58-0.02-1.16,0.08-1.72,0.2l-1.77,0.36
	c-2.36,0.47-4.73,0.91-7.11,1.32l-7.14,1.17l-1.79,0.27c-0.61,0.1-1.14,0.14-1.91,0.34c-0.71,0.23-1.4,0.61-1.97,1.14
	c-0.58,0.52-0.98,1.18-1.3,1.84c-0.62,1.34-0.8,2.75-0.82,4.1c-0.01,1.36,0.17,2.68,0.49,3.97c0.45,1.79,1.13,3.51,2.04,5.13
	c-5.67-3.32-11.33-6.64-16.97-10c-4.09-2.4-8.17-4.83-12.24-7.27c0.96-0.44,1.78-1.14,2.36-1.91c0.61-0.81,1-1.69,1.25-2.55
	C190.6,310.78,190.56,309.13,190.34,307.58z M246.28,348.8c-0.67,0.04-1.48-0.18-2.3-0.59c-0.4-0.21-0.79-0.45-1.34-0.81l-1.53-0.96
	l-3.08-1.9c-2.06-1.26-4.13-2.48-6.21-3.69c-2.09-1.2-4.18-2.39-6.3-3.54l-1.58-0.86c-0.43-0.24-0.85-0.49-1.26-0.79
	c-0.81-0.59-1.59-1.29-2.29-2.08c-1.41-1.58-2.59-3.47-3.36-5.5c-0.77-2-1.22-4.27-0.69-6.12c0.26-0.92,0.79-1.62,1.62-2.03
	c0.38-0.17,1.03-0.35,1.6-0.52l1.74-0.51l6.97-1.97c2.33-0.63,4.66-1.24,7-1.82l1.76-0.43c0.56-0.14,1.12-0.28,1.69-0.26l-0.01,0.44
	l-0.03,1.47l1.44,0.62c1.84,0.79,3.63,2.52,4.95,4.46c1.32,1.95,2.33,4.18,2.69,6.39c0.08,0.55,0.13,1.1,0.14,1.63l-0.01,1.98
	l-0.03,4.03l-0.06,8.06l-0.03,4.39l0.15-0.09C247.48,348.47,246.92,348.73,246.28,348.8z M313.61,278.2
	c6.84,4.2,13.76,8.25,20.65,12.37l1,0.59l-0.15,0.08l1.79,1.1l-42.61,23.4c-7.6,4.17-15.14,8.43-22.69,12.68
	c-6.29,3.55-12.54,7.17-18.8,10.78l-0.01-3.74l-0.01-4.03l-0.01-2.05c-0.01-0.81-0.1-1.6-0.23-2.38c-0.55-3.1-1.87-5.87-3.63-8.3
	c-1.52-2.03-3.32-3.91-5.75-5.22l-0.07-6.18l-0.07-3.8c-0.02-0.76-0.03-0.97,0.06-1.31c0.08-0.33,0.24-0.64,0.46-0.9
	c0.11-0.13,0.23-0.25,0.37-0.36c0.08-0.06,0.11-0.08,0.25-0.17l0.4-0.25l1.62-0.99l3.24-1.98l6.47-3.98l25.85-15.97
	c5.16-3.16,10.32-6.32,15.49-9.46C302.67,271.52,308.13,274.88,313.61,278.2z M280.91,276.18l-26.65,14.59l-6.65,3.66l-3.12,1.72
	c0.63-2.73,1.03-5.46,1.33-8.19c0.38-3.58,0.56-7.17,0.57-10.75c0.01-3.58-0.15-7.17-0.5-10.75c-0.3-2.85-0.71-5.71-1.38-8.56
	c5.09-3.35,10.12-6.8,15.01-10.5c0.83,0.55,1.65,1.07,2.49,1.6c4.53,2.87,9.12,5.65,13.76,8.33l1.75,0.99l0.45,0.25l0.54,0.29
	c0.35,0.2,0.76,0.35,1.15,0.52c0.82,0.3,1.7,0.53,2.68,0.6c0.57,0.03,1.17-0.01,1.77-0.13c4.08,2.62,8.17,5.2,12.28,7.77
	C291.24,270.47,286.08,273.33,280.91,276.18z M263.03,213.6c0.92,0.97,1.65,2.11,2.42,3.2c1.53,2.2,3.03,4.42,4.51,6.66
	c2.95,4.48,5.84,9.01,8.7,13.56l2.15,3.4l1.08,1.7l0.54,0.85l0.48,0.8c1.25,2.12,2.03,4.48,2.19,6.72c0.07,1.11-0.05,2.2-0.35,3.05
	c-0.31,0.87-0.8,1.32-1.22,1.47c-0.23,0.08-0.5,0.12-0.86,0.09c-0.36-0.04-0.78-0.17-1.22-0.33c-0.23-0.11-0.45-0.18-0.68-0.32
	l-0.35-0.19l-0.42-0.25l-1.74-1.02c-4.64-2.68-9.34-5.27-14.1-7.75l-3.54-1.83c-0.99-0.51-1.94-1.23-2.81-2.07
	c-1.75-1.67-3.2-3.78-4.15-6.09c-0.47-1.15-0.82-2.36-0.96-3.58c-0.12-1.25-0.18-2.65-0.26-3.97l-0.39-8.04
	c-0.03-0.92-0.07-1.84-0.1-2.76l0.01-0.71c0.01-0.96,0.07-1.9,0.35-2.79c0.26-0.88,0.73-1.7,1.41-2.26
	c0.68-0.56,1.56-0.85,2.46-0.83c0.9,0.01,1.8,0.26,2.62,0.66c0.84,0.38,1.56,0.98,2.32,1.52l0.78,0.55l0.01-0.5
	C262.32,212.88,262.69,213.23,263.03,213.6z M164.6,258.76l0.01-1.07c0-0.16,0.03-0.31,0.07-0.46c0.08-0.3,0.24-0.58,0.46-0.8
	c0.11-0.11,0.23-0.21,0.36-0.29l0.85-0.49c4.96-2.86,9.94-5.69,14.86-8.62l14.8-8.72l14.72-8.85c9.79-5.95,19.55-11.94,29.29-17.97
	l14.62-9.03c0.3-0.18,0.62-0.39,0.9-0.55c0.25-0.15,0.52-0.26,0.79-0.35c0.55-0.16,1.15-0.18,1.72-0.05
	c1.15,0.26,2.17,1.13,2.56,2.26c0.21,0.57,0.23,1.15,0.23,1.91l0.04,2.15l0.06,3.37c-0.56-0.38-1.13-0.74-1.77-0.99
	c-0.93-0.4-1.94-0.64-2.98-0.63c-1.03,0.01-2.09,0.38-2.88,1.07c-0.8,0.69-1.28,1.64-1.54,2.61c-0.28,0.97-0.3,1.98-0.29,2.95
	l0.01,0.69l-0.11,2.78l-0.43,8.04c-0.06,1.36-0.2,2.63-0.23,4.07c-0.02,1.46,0.2,2.9,0.58,4.28c0.77,2.77,2.06,5.4,3.95,7.67
	c0.95,1.13,2.05,2.18,3.35,3.06c0.13,0.09,0.26,0.17,0.39,0.26c-6.45,2.78-12.72,5.87-18.92,9.07c-6.95,3.62-13.8,7.4-20.57,11.33
	c-6.76,3.93-13.44,8.01-20.03,12.26c-3.03,1.98-6.05,3.98-9.04,6.03c-3.23,1.76-6.45,3.53-9.68,5.3l-7.65-11.07l-4.29-6.14
	c-0.75-1.04-1.36-2-2.26-3.15c-0.63-0.79-1.32-1.54-2.09-2.24c0.04-2.51,0.1-5.03,0.11-7.54L164.6,258.76z M153.43,285.29
	l-0.39-8.04c-0.05-1.34-0.11-2.68-0.13-4.02c-0.03-1.31,0.17-2.67,0.87-3.79c0.36-0.54,0.82-1.04,1.4-1.36
	c0.58-0.31,1.24-0.49,1.9-0.52c0.95-0.02,1.89,0.22,2.77,0.58c0.01,0.45,0.01,0.9,0.02,1.35l0.01,1.17l0.89,0.66
	c0.83,0.61,1.61,1.37,2.32,2.21c0.67,0.8,1.45,1.91,2.19,2.88l4.49,5.99l9.05,11.94l0.97,1.28l0.34-0.21l1.65,2.6l1.08,1.7
	l0.54,0.85l0.48,0.8c1.25,2.12,2.03,4.48,2.19,6.72c0.07,1.11-0.05,2.2-0.35,3.05c-0.31,0.87-0.8,1.32-1.22,1.47
	c-0.23,0.08-0.5,0.12-0.86,0.09c-0.36-0.04-0.78-0.17-1.22-0.33c-0.23-0.11-0.45-0.18-0.68-0.32l-0.35-0.19l-0.42-0.25l-1.74-1.02
	c-4.64-2.68-9.34-5.27-14.1-7.75L161.6,301c-0.99-0.51-1.94-1.23-2.81-2.07c-1.75-1.67-3.2-3.78-4.15-6.09
	c-0.47-1.15-0.82-2.36-0.96-3.58C153.56,288.02,153.5,286.61,153.43,285.29z M216.61,431.61l-14.09-8.32
	c-9.37-5.58-18.83-11.01-28.25-16.51c-9.01-5.28-18.11-10.42-27.16-15.62c0.01-7.68-0.09-15.36-0.13-23.05
	c-0.04-8.15-0.15-16.3-0.27-24.46l-0.34-24.46c-0.02-2.03-0.08-4.1-0.07-6.09c-0.03-1.92,0.29-3.81,0.93-5.53
	c0.65-1.71,1.74-3.21,3.22-4.16c0.04-0.03,0.09-0.05,0.13-0.07l0.59,1.01c0,0,0,0,0,0v0c0.57-0.21,1.13-0.38,1.73-0.51
	c0.59-0.13,1.21-0.21,1.86-0.27c0.66-0.06,1.35-0.08,2.08-0.09l1.14,0.01l0.45,0.01c0.36,0.3,0.74,0.59,1.14,0.85
	c1.18,0.79,2.26,1.49,3.41,2.21c4.53,2.87,9.12,5.65,13.76,8.33l1.75,0.99l0.45,0.25l0.54,0.29c0.35,0.2,0.76,0.35,1.15,0.52
	c0.82,0.3,1.7,0.53,2.68,0.6c0.65,0.04,1.34-0.03,2.03-0.19c4.39,2.44,8.77,4.89,13.13,7.36c5.83,3.27,11.65,6.57,17.46,9.88
	c0.34,0.58,0.71,1.14,1.11,1.68c0.81,1.09,1.73,2.11,2.82,3.01c0.54,0.45,1.12,0.86,1.72,1.25l1.55,0.95
	c2.06,1.26,4.14,2.47,6.22,3.69c2.09,1.2,4.19,2.38,6.3,3.53l3.18,1.71l1.6,0.84c0.49,0.26,1.16,0.6,1.85,0.88
	c0.09,0.04,0.19,0.07,0.29,0.11c3.08,2.42,5.67,5.51,7.77,8.86c2.38,3.81,4.2,8,5.1,12.32c0.22,1.08,0.39,2.16,0.48,3.24
	c0.1,1.1,0.09,2.09,0.07,3.32l-0.09,7.09l-0.11,14.18c-0.04,9.45-0.16,18.91-0.13,28.36l0.03,25.4l-25.03-15.02L216.61,431.61z
	 M306.74,427.84l-24.98,13.98l-21.32,12.1l0.16-24.28c0.09-9.45,0.02-18.91,0.03-28.36l-0.03-14.18l-0.05-7.09
	c0-1.13-0.01-2.51-0.16-3.76c-0.13-1.27-0.35-2.53-0.63-3.76c-1.14-4.92-3.22-9.51-5.96-13.63c-1.61-2.39-3.46-4.65-5.55-6.67
	c1.2-0.59,2.2-1.59,2.71-2.68c0.04-0.08,0.06-0.17,0.1-0.25c0.35-0.68,0.57-1.4,0.7-2.09c0.06-0.33,0.09-0.66,0.14-0.99
	c0.02-0.25,0.02-0.49,0.03-0.73c7.34-4.32,14.69-8.61,22-12.98c7.42-4.46,14.86-8.92,22.23-13.46l42-25.87l0.52,0.32l1.22,0.75
	c0.4,0.22,0.8,0.44,1.23,0.64c0.87,0.67,1.72,1.41,2.53,2.16c2.66,2.61,4.97,5.65,6.76,8.98c1.83,3.29,3.25,6.85,3.94,10.48
	c0.22,0.91,0.27,1.82,0.41,2.72c0.03,0.93,0.11,1.75,0.09,2.8l0.03,6.02c0.12,8.02,0.14,16.04,0.35,24.07
	c0.26,12.86,0.64,25.72,1.29,38.58l-0.17,9.41L306.74,427.84z"/>
<g>
	<path d="M467,579.5H35v-546h432V579.5z M40,574.5h422v-536H40V574.5z"/>
</g>
<g>
	<rect x="55.5" y="86.47" width="391" height="5"/>
</g>
<g>
	<path d="M396.5,54.5c-5.8,0-10.5,4.7-10.5,10.5c0,5.8,4.7,10.5,10.5,10.5S407,70.8,407,65C407,59.2,402.3,54.5,396.5,54.5z
		 M401.5,68h-10c-1.65,0-3-1.35-3-3c0-1.65,1.35-3,3-3h10c1.65,0,3,1.35,3,3C404.5,66.65,403.15,68,401.5,68z"/>
</g>
<g>
	<path d="M431.5,54.5c-5.8,0-10.5,4.7-10.5,10.5c0,5.8,4.7,10.5,10.5,10.5S442,70.8,442,65C442,59.2,437.3,54.5,431.5,54.5z
		 M436.5,68h-2v2c0,1.65-1.35,3-3,3s-3-1.35-3-3v-2h-2c-1.65,0-3-1.35-3-3c0-1.65,1.35-3,3-3h2v-2c0-1.65,1.35-3,3-3s3,1.35,3,3v2h2
		c1.65,0,3,1.35,3,3C439.5,66.65,438.15,68,436.5,68z"/>
</g>
<g>
	<path d="M361.5,54.5c-5.8,0-10.5,4.7-10.5,10.5c0,5.8,4.7,10.5,10.5,10.5S372,70.8,372,65C372,59.2,367.3,54.5,361.5,54.5z
		 M361.5,70c-2.75,0-5-2.25-5-5c0-2.75,2.25-5,5-5s5,2.25,5,5C366.5,67.75,364.25,70,361.5,70z"/>
</g>
</svg>
