<?xml version="1.0" encoding="utf-8"?>
<!-- Generator: Adobe Illustrator 24.0.1, SVG Export Plug-In . SVG Version: 6.00 Build 0)  -->
<svg version="1.0" id="图层_1" xmlns="http://www.w3.org/2000/svg" xmlns:xlink="http://www.w3.org/1999/xlink" x="0px" y="0px"
	 viewBox="0 0 502 613" style="enable-background:new 0 0 502 613;" xml:space="preserve">
<g>
	<g>
		<path d="M467,579.5H35v-546h432V579.5z M40,574.5h422v-536H40V574.5z"/>
	</g>
	<g>
		<rect x="55.5" y="86.47" width="391" height="5"/>
	</g>
	<g>
		<path d="M396.5,54.5c-5.8,0-10.5,4.7-10.5,10.5s4.7,10.5,10.5,10.5S407,70.8,407,65S402.3,54.5,396.5,54.5z M401.5,68h-10
			c-1.65,0-3-1.35-3-3s1.35-3,3-3h10c1.65,0,3,1.35,3,3S403.15,68,401.5,68z"/>
	</g>
	<g>
		<path d="M431.5,54.5c-5.8,0-10.5,4.7-10.5,10.5s4.7,10.5,10.5,10.5S442,70.8,442,65S437.3,54.5,431.5,54.5z M436.5,68h-2v2
			c0,1.65-1.35,3-3,3s-3-1.35-3-3v-2h-2c-1.65,0-3-1.35-3-3s1.35-3,3-3h2v-2c0-1.65,1.35-3,3-3s3,1.35,3,3v2h2c1.65,0,3,1.35,3,3
			S438.15,68,436.5,68z"/>
	</g>
	<g>
		<path d="M361.5,54.5c-5.8,0-10.5,4.7-10.5,10.5s4.7,10.5,10.5,10.5S372,70.8,372,65S367.3,54.5,361.5,54.5z M361.5,70
			c-2.75,0-5-2.25-5-5s2.25-5,5-5s5,2.25,5,5S364.25,70,361.5,70z"/>
	</g>
</g>
<g>
	<path d="M349.76,423.58l-22.88,0.34l-22.94,0.27l-45.96,0.54l-92.24,0.71l-0.75,0.01l-0.56-0.55l-25.68-25.32l-0.61-0.61l0-0.88
		l-0.25-66.88l-0.11-66.88l-0.01-8.36l0-1.04l0.06-1.26c0.09-0.83,0.21-1.67,0.44-2.48c0.43-1.63,1.16-3.17,2.11-4.55
		c1.91-2.77,4.82-4.8,8.07-5.69c0.81-0.24,1.65-0.36,2.48-0.46l1.26-0.06l1.05,0l4.18-0.01l33.44,0.04l66.88,0.11l66.88,0.25
		l16.72,0.12l8.36,0.06c3.22,0.02,6.44,1.19,8.9,3.27c2.46,2.07,4.16,5.01,4.72,8.17c0.06,0.4,0.13,0.79,0.16,1.19l0.05,1.2
		l-0.01,2.1l-0.03,4.18l-0.12,16.72l-0.24,33.44c-0.07,11.15-0.16,22.29-0.31,33.44l-0.81,66.88l0,0.11l-0.08,0.07L349.76,423.58z
		 M349.76,423.58l11.81-12.19l-0.08,0.19l-0.81-66.88c-0.15-11.15-0.23-22.29-0.31-33.44l-0.24-33.44l-0.12-16.72l-0.03-4.18
		l-0.02-2.08l-0.05-0.89c-0.03-0.29-0.09-0.58-0.13-0.88c-0.45-2.32-1.73-4.46-3.56-5.96c-1.84-1.5-4.16-2.3-6.52-2.29l-8.36,0.06
		L324.63,245l-66.88,0.25l-66.88,0.11l-33.44,0.04l-4.18-0.01l-1.04,0l-0.83,0.04c-0.55,0.07-1.09,0.14-1.62,0.3
		c-2.12,0.58-4.06,1.9-5.32,3.73c-0.63,0.91-1.11,1.92-1.4,2.99c-0.16,0.53-0.23,1.08-0.29,1.63l-0.04,0.83l0,1.04l-0.01,8.36
		l-0.11,66.88l-0.25,66.88l-0.62-1.49l25.32,25.68l-1.31-0.54l91.79,0.71l46.05,0.54L349.76,423.58z"/>
	<path d="M147.43,249.38c2.13,1.76,4.24,3.55,6.3,5.38c2.08,1.81,4.11,3.68,6.15,5.53l6.04,5.63l5.95,5.72l-1.5-0.63l11.63-0.15
		c3.88-0.03,7.76,0.09,11.63,0.22c7.76,0.32,15.51,0.94,23.27,1.15c7.76,0.24,15.51,0.1,23.27-0.18c7.76-0.3,15.51-0.81,23.27-1.04
		c15.51-0.36,31.02-0.8,46.53-0.45c7.76,0.16,15.51,0.4,23.27,0.76c7.76,0.36,15.51,0.82,23.27,1.54v0.5
		c-7.76,0.72-15.51,1.18-23.27,1.54c-7.76,0.36-15.51,0.6-23.27,0.76c-15.51,0.35-31.02-0.09-46.53-0.45
		c-7.76-0.23-15.51-0.74-23.27-1.04c-7.76-0.29-15.51-0.42-23.27-0.18c-7.76,0.21-15.51,0.83-23.27,1.15
		c-3.88,0.14-7.76,0.25-11.63,0.22l-11.63-0.15l-0.93-0.01l-0.57-0.62l-5.61-6.05l-5.52-6.15c-1.81-2.07-3.64-4.14-5.41-6.25
		c-1.79-2.09-3.54-4.23-5.26-6.4L147.43,249.38z"/>
	<path d="M356.32,407.87c-2.13-1.76-4.24-3.55-6.3-5.38c-2.08-1.81-4.11-3.68-6.15-5.53l-6.04-5.63l-5.95-5.72l1.5,0.63l-11.63,0.15
		c-3.88,0.03-7.76-0.09-11.63-0.22c-7.76-0.32-15.51-0.94-23.27-1.15c-7.76-0.24-15.51-0.1-23.27,0.18
		c-7.76,0.3-15.51,0.81-23.27,1.04c-15.51,0.36-31.02,0.8-46.53,0.45c-7.76-0.16-15.51-0.4-23.27-0.76
		c-7.76-0.36-15.51-0.82-23.27-1.54v-0.5c7.76-0.72,15.51-1.18,23.27-1.54c7.76-0.36,15.51-0.6,23.27-0.76
		c15.51-0.35,31.02,0.09,46.53,0.45c7.76,0.23,15.51,0.74,23.27,1.04c7.76,0.29,15.51,0.42,23.27,0.18
		c7.76-0.21,15.51-0.83,23.27-1.15c3.88-0.14,7.76-0.25,11.63-0.22l11.63,0.15l0.93,0.01l0.57,0.62l5.61,6.05l5.52,6.15
		c1.81,2.07,3.64,4.14,5.41,6.25c1.79,2.09,3.54,4.23,5.26,6.4L356.32,407.87z"/>
	<path d="M168.16,283.72c1.03,9.64,1.58,19.29,1.94,28.93c0.4,9.64,0.55,19.29,0.56,28.93c0,9.64-0.15,19.29-0.55,28.93
		c-0.37,9.64-0.91,19.29-1.95,28.93c-1.04-9.64-1.58-19.29-1.95-28.93c-0.4-9.64-0.55-19.29-0.55-28.93
		c0.01-9.64,0.16-19.29,0.56-28.93C166.58,303.01,167.12,293.36,168.16,283.72z"/>
	<path d="M343.96,283.72c1.03,9.64,1.58,19.29,1.94,28.93c0.4,9.64,0.55,19.29,0.56,28.93c0,9.64-0.15,19.29-0.55,28.93
		c-0.37,9.64-0.91,19.29-1.95,28.93c-1.04-9.64-1.58-19.29-1.95-28.93c-0.4-9.64-0.55-19.29-0.55-28.93
		c0.01-9.64,0.16-19.29,0.56-28.93C342.38,303.01,342.92,293.36,343.96,283.72z"/>
</g>
</svg>
