<?xml version="1.0" encoding="utf-8"?>
<!-- Generator: Adobe Illustrator 24.0.1, SVG Export Plug-In . SVG Version: 6.00 Build 0)  -->
<svg version="1.0" id="图层_1" xmlns="http://www.w3.org/2000/svg" xmlns:xlink="http://www.w3.org/1999/xlink" x="0px" y="0px"
	 viewBox="0 0 600 600" style="enable-background:new 0 0 600 600;" xml:space="preserve">
<g id="wreaths72">
	<g>
		<path d="M363.49,557.02c-10.12-4.8-21.72-5.23-32.59-7.23c-13.66-2.5-26.95-7.92-40.01-12.51c-8.04-2.83-16.14-5.4-24.27-7.87
			c0.01-0.01,0.01-0.02,0.01-0.04c2.86-6.11,3.16-14.28,0-20.42c-0.65-1.28-2.48-1.12-3.18,0c-3.37,5.38-2.67,11.62-1.68,17.55
			c-2.16-0.45-4.24-1.43-6.33-2.08c-2.92-0.91-5.77-1.99-8.77-2.57c2.45-3.62,3.13-7.3,2.79-11.91c-0.27-3.6-0.64-8.44-3.09-11.25
			c-1.01-1.15-2.63-0.36-3.09,0.81c-2.64,6.68-4.57,13.58-2.83,20.62c-6.39-0.81-12.53-4.18-18.9-5.05c1.6-2.12,2.58-5.13,3.16-7.2
			c1.76-6.29,0.21-14.91-1.6-21.03c-0.4-1.33-2.09-1.81-3.09-0.82c-3.05,3.05-4.82,8-5.98,12.07c-1.45,5.11-0.14,9.82,0.94,14.65
			c-7.17-1.09-15.1-4.32-21.39-7.58c5.39-8.76,9.3-18.87,5-29.04c-0.49-1.16-2.11-1.09-2.9-0.38c-8.16,7.38-6.48,17.06-6.8,26.74
			c-6.8-3.42-14.06-5.87-20.12-10.62c2.47-1.72,4.52-4.97,5.68-7.08c3.85-7.01,3.83-16.19,4.22-23.95c0.09-1.7-2.03-2.32-3.15-1.29
			c-4.3,3.89-7.68,8.32-10.11,13.6c-2.3,4.99-2.32,9.77-2.31,14.89c-3.25-1.94-6.64-3.55-9.59-6.03c-2.13-1.78-4.16-3.63-6.34-5.29
			c0.19-0.14,0.35-0.29,0.46-0.51c6.05-11.09,6.81-23.68,2.58-35.54c-0.42-1.19-2.12-1.97-3.08-0.81
			c-8.02,9.59-11.34,21.09-6.52,32.11c-1.53-0.82-2.99-1.7-4.36-2.69c-2.96-2.57-5.86-5.23-8.7-7.93c-1.2-1.33-2.38-2.7-3.54-4.12
			c0.23-0.35,0.47-0.71,0.68-1.07c8.17-7.74,10.81-23.22,6.96-33.45c-0.52-1.38-1.96-1.72-3.09-0.81
			c-8.81,7.09-11.4,19.54-9.08,30.31c-5.2-5.1-9.67-10.81-13.28-17.15c8.16-9.31,12.73-26.2,9.89-37.49
			c-0.28-1.1-1.73-1.77-2.71-1.1c-12.83,8.71-12.92,20.29-12.85,33.47c-3.6-6.45-7.9-12.5-12.3-18.43
			c7.52-10.9,18.16-21.15,15.29-35.48c-0.2-1.03-1.34-1.48-2.27-1.29c-9.7,2.02-13.44,13.89-15.32,24.33
			c-0.24,0.75-0.49,1.49-0.75,2.23c-0.47,1.35-1.05,2.54-1.66,3.67c-2.31-5.76-5.47-11.1-8.41-16.56
			c5.64-5.14,9.77-11.97,11.51-19.36c1.95-3.3,3.39-6.69,3.35-10.24c0.57-2.63,0.59-5.19-0.58-7.22c-3.02-5.26-9.61,1.86-11.17,4.54
			c-4.74,8.14-4.27,18.19-7.15,26.98c-0.01,0.02-0.02,0.04-0.03,0.07c-0.06-0.04-0.12-0.09-0.19-0.14
			c-3.67-7.3-5.47-15.41-9.36-22.59c1.58-1.39,2.86-2.98,3.94-4.7c6.81-5.72,14.4-18.15,12.34-27c-0.24-1.05-1.3-1.44-2.27-1.29
			c-10.55,1.77-14.03,15.03-17.13,24.35c-1.96-6.17-3.86-12.34-6.01-18.44c0.23-0.28,0.37-0.65,0.33-1.13
			c-0.03-0.38-0.02-0.77-0.01-1.16c0-0.01,0.01-0.02,0.01-0.04c0-0.02,0.01-0.04,0.01-0.07c7.28-5.77,19.38-16,15.49-25.56
			c-0.35-0.88-1.24-1.67-2.27-1.3c-8.97,3.23-13.75,11.3-15.82,20.1c-0.92-2.7-1.67-5.44-2.32-8.21c-0.64-3.16-1.24-6.31-1.76-9.49
			c0.78-0.01,1.57-0.48,1.82-1.33c0.03-0.1,0.07-0.19,0.1-0.3c1.6-0.91,3.12-2.08,4.52-3.42c2.07-1.56,3.96-3.39,5.27-4.57
			c3.74-3.37,4.87-7.67,3.88-12.44c-0.23-1.13-1.76-1.75-2.71-1.1c-6.42,4.33-10.36,9.79-13.08,16.56c-0.5-1.25-0.94-2.51-1.3-3.8
			c-0.56-4.52-1.03-9.06-1.35-13.6c0.42-0.01,0.84-0.14,1.2-0.45c6.06-5.24,16.54-12.25,14.84-21.55c-0.13-0.72-1.03-1.45-1.78-1.36
			c-8.63,1.12-11.62,9.96-14.61,17.12c-0.01-0.35-0.02-0.7-0.03-1.05c0.03-2.09,0.05-4.16,0.06-6.24c0.05-0.12,0.12-0.23,0.15-0.38
			c0.62-3.47,2.26-6.53,2.82-10.06c0.48-3.03,0.37-6.12,0.13-9.16c-0.08-1.1-0.23-2.2-0.46-3.28c-0.21-4.04-1.17-8.21-4.91-10.35
			c-0.53-0.3-1.05-0.31-1.48-0.15c-0.42-0.01-0.86,0.15-1.25,0.54c-5.14,5.11-5.1,11.4-3.41,17.63c0.28,1.4,0.62,2.79,1.03,4.17
			c1.01,3.37,3.14,6.42,3.52,9.97c0.03,0.27,0.11,0.49,0.22,0.69c0.01,1.37,0.03,2.73,0.01,4.11c-4.63-5.35-11.1-10.65-15.09-5.46
			c-5.3,6.88,7.84,13.71,15.06,14.24c0.09,5.95,0.58,11.83,2.37,17.41c-1.6-0.94-3.19-1.9-4.98-2.57c-2.87-1.09-9.47-2.41-11.72,0.6
			c-6.44,8.62,13.32,10.19,17.02,10.2c0.1,0,0.18-0.04,0.27-0.06c1.29,6.53,2.6,12.93,4.8,19.14c-6.93-5.21-19.34-11.7-21.22-3.62
			c-2.01,8.67,15.78,13.09,22.23,12.07c0.25,0.12,0.51,0.22,0.77,0.35c0.12,0.06,0.24,0.06,0.37,0.09
			c2.19,6.31,4.13,12.68,6.17,19.04c-8.93-4.73-14.24-9.43-25.25-5.74c-1.13,0.39-1.71,1.63-1.1,2.71c0.38,0.68,0.93,1.34,1.53,1.99
			c4.56,10.38,17.98,12.05,28.09,10.23c0.12-0.02,0.18-0.08,0.28-0.11c2.66,5.2,4.33,10.85,6.48,16.29
			c-6.85-3.82-15.33-6.58-22.2-2.81c-4.93,2.7-3.7,7.54,0.45,10.52c6.33,4.55,15.31,6.55,22.89,4.41c1.89-0.54,3.43-1.52,4.74-2.77
			c2.86,5.37,6.05,10.6,8.42,16.2c-7.8-4.07-16.44-6.03-24.17,0.1c-3.15,2.5-2.51,4.91-0.4,6.91c0.07,0.52,0.37,1.01,0.88,1.35
			c2.09,1.41,4.36,2.33,6.7,2.83c1.57,0.56,2.97,0.91,3.81,1.01c1.63,0.2,3.09,0.22,4.47,0.17c5.35,0.8,11.39,0.34,14.5-3.57
			c5.01,6.77,9.86,13.71,13.69,21.22c-4.78-1.41-10.21-0.89-14.91,0.32c-2.73,0.7-7.96,3.21-9.63,6.53
			c-0.12,0.19-0.19,0.38-0.24,0.57c-0.06,0.15-0.1,0.3-0.14,0.46c-0.1,0.07-0.2,0.12-0.29,0.19c-0.88,0.61-1.37,2.1-0.38,2.9
			c0.74,0.59,1.57,1.08,2.42,1.52c0.27,0.17,0.58,0.31,0.89,0.44c0.12,0.06,0.23,0.11,0.35,0.15c0.07,0.02,0.14,0.05,0.21,0.08
			c8.98,3.53,22.04-0.28,27.14-7.97c0.11-0.15,0.15-0.35,0.19-0.52c3.34,5.33,7.3,10.23,11.76,14.67
			c-10.69,1.8-19.49,4.95-27.42,13.55c-0.85,0.93-0.62,2.2,0.38,2.9c11.32,7.92,24.67-0.82,32.36-10.58
			c4.92,5.96,10.21,11.29,17.12,14.94c-10.05,0.49-23.54,4.05-25.64,14.03c-0.18,0.29-0.25,0.61-0.21,0.94
			c-0.01,0.01-0.01,0.01-0.01,0.02c-0.1,0.82,0.64,1.54,1.36,1.78c9.56,3.09,18.6-0.11,24.39-7.03c1.45-1.15,2.78-2.45,3.97-3.87
			c0.14-0.17,0.28-0.35,0.42-0.51c0.19-0.24,0.39-0.46,0.57-0.71c0.17-0.23,0.33-0.48,0.5-0.72c3.08,2.21,5.81,4.86,8.79,7.21
			c2.33,1.83,5.03,3.1,7.62,4.55c-8.4,2.46-16.42,7.14-19.86,15.51c-0.43,1.04,0.66,2.49,1.78,2.34
			c8.88-1.18,19.02-5.98,24.12-13.86c5.64,4.29,12.1,6.78,18.39,9.82c-6.31,2.18-11.52,8.37-14.53,13.73
			c-0.68,1.22,0.17,2.78,1.59,2.78c4.24-0.01,7.55-2.37,10.82-4.8c3.24-2.41,6.29-4.91,8.55-8.17c6.14,3.2,13.46,6.22,20.53,7.67
			c-2.34,1.5-4.41,3.56-6.31,5.49c-3.29,3.34-5.86,7.34-7.29,11.8c-0.28,0.87,0.32,2.14,1.29,2.28c5.04,0.7,8.9-2.64,12.08-6.19
			c2.8-3.15,5.81-6.77,7.8-10.71c3.44,0.23,7.14,1.86,10.48,2.56c3.11,0.65,5.98,1.8,9.02,2.41c-5.31,4.12-9.98,10.99-10.28,17.37
			c-0.07,1.46,1.6,2.23,2.78,1.6c7.3-3.92,10.63-10.08,13.04-17.4c0.15,0.06,0.29,0.13,0.47,0.15c5.19,0.62,10.02,3.57,15.12,4.7
			c-2.81,3.2-4.36,7.49-4.4,11.75c-0.02,1.49,1.55,2.2,2.77,1.6c2.64-1.29,4.43-3.49,5.85-6.02c1.16-2.07,1.54-4.2,1.87-6.36
			c15.89,5.1,31.51,11,47.41,16.1c8.29,2.66,16.51,4.62,25.12,5.92c7.98,1.2,16.28,2.15,23.66,5.65
			C363.64,559.13,364.57,557.54,363.49,557.02z"/>
		<path d="M236.51,557.02c10.12-4.8,21.72-5.23,32.6-7.23c13.66-2.51,26.95-7.92,40.01-12.51c8.04-2.83,16.14-5.4,24.27-7.87
			c-0.01-0.01-0.01-0.02-0.01-0.04c-2.86-6.11-3.16-14.28-0.01-20.42c0.66-1.28,2.49-1.12,3.18,0c3.38,5.38,2.67,11.62,1.68,17.55
			c2.16-0.44,4.24-1.43,6.32-2.07c2.93-0.91,5.77-1.99,8.78-2.57c-2.45-3.62-3.13-7.3-2.79-11.92c0.27-3.6,0.65-8.43,3.09-11.25
			c1.01-1.15,2.62-0.36,3.09,0.81c2.65,6.68,4.57,13.58,2.82,20.62c6.39-0.81,12.54-4.18,18.91-5.05c-1.61-2.12-2.58-5.13-3.16-7.21
			c-1.76-6.29-0.21-14.9,1.6-21.03c0.4-1.33,2.09-1.81,3.09-0.82c3.04,3.05,4.82,8,5.98,12.07c1.45,5.11,0.14,9.82-0.94,14.65
			c7.18-1.09,15.1-4.32,21.39-7.58c-5.39-8.76-9.3-18.87-5-29.04c0.49-1.16,2.11-1.09,2.9-0.38c8.16,7.38,6.48,17.06,6.8,26.73
			c6.8-3.42,14.06-5.86,20.12-10.62c-2.47-1.72-4.52-4.97-5.68-7.08c-3.85-7.01-3.83-16.19-4.23-23.95
			c-0.08-1.7,2.03-2.32,3.15-1.29c4.3,3.89,7.68,8.32,10.11,13.6c2.3,4.99,2.32,9.77,2.3,14.89c3.26-1.94,6.65-3.55,9.6-6.03
			c2.13-1.78,4.15-3.63,6.34-5.29c-0.18-0.14-0.35-0.29-0.46-0.51c-6.05-11.09-6.81-23.68-2.59-35.54c0.43-1.19,2.13-1.97,3.09-0.81
			c8.02,9.59,11.34,21.09,6.51,32.11c1.53-0.82,2.99-1.7,4.37-2.69c2.96-2.57,5.85-5.23,8.69-7.93c1.21-1.33,2.39-2.7,3.54-4.12
			c-0.23-0.35-0.47-0.71-0.68-1.07c-8.17-7.74-10.81-23.22-6.96-33.45c0.52-1.38,1.96-1.72,3.09-0.81
			c8.81,7.09,11.4,19.54,9.08,30.31c5.19-5.1,9.67-10.81,13.28-17.15c-8.16-9.31-12.74-26.2-9.89-37.49c0.28-1.1,1.73-1.77,2.71-1.1
			c12.83,8.71,12.92,20.29,12.85,33.47c3.6-6.45,7.9-12.5,12.3-18.43c-7.52-10.9-18.16-21.15-15.3-35.48
			c0.21-1.03,1.35-1.48,2.27-1.29c9.7,2.02,13.43,13.89,15.31,24.33c0.25,0.75,0.5,1.49,0.76,2.23c0.48,1.35,1.05,2.54,1.66,3.67
			c2.31-5.76,5.46-11.1,8.41-16.56c-5.63-5.14-9.76-11.97-11.5-19.36c-1.95-3.3-3.4-6.69-3.35-10.24c-0.56-2.63-0.59-5.19,0.58-7.22
			c3.02-5.26,9.61,1.86,11.17,4.54c4.75,8.14,4.28,18.19,7.15,26.98c0.01,0.02,0.02,0.04,0.03,0.07c0.06-0.04,0.12-0.09,0.19-0.14
			c3.67-7.3,5.47-15.41,9.36-22.59c-1.59-1.39-2.87-2.98-3.94-4.7c-6.8-5.72-14.4-18.15-12.34-27c0.24-1.05,1.31-1.44,2.27-1.29
			c10.55,1.77,14.02,15.03,17.12,24.35c1.96-6.17,3.86-12.34,6.01-18.44c-0.23-0.28-0.38-0.65-0.33-1.13
			c0.03-0.38,0.02-0.77,0.01-1.16c0-0.01-0.01-0.02-0.01-0.04c-0.01-0.02-0.01-0.04-0.01-0.07c-7.28-5.77-19.39-16-15.49-25.56
			c0.36-0.88,1.24-1.67,2.28-1.3c8.97,3.23,13.76,11.3,15.82,20.1c0.92-2.7,1.67-5.44,2.32-8.21c0.64-3.16,1.24-6.31,1.76-9.49
			c-0.78-0.01-1.57-0.48-1.83-1.33c-0.03-0.1-0.07-0.19-0.1-0.3c-1.6-0.91-3.12-2.08-4.51-3.42c-2.07-1.56-3.96-3.39-5.27-4.57
			c-3.74-3.37-4.87-7.67-3.88-12.44c0.23-1.13,1.76-1.75,2.71-1.1c6.42,4.33,10.36,9.79,13.08,16.56c0.5-1.25,0.95-2.51,1.3-3.8
			c0.56-4.52,1.04-9.06,1.35-13.6c-0.42-0.01-0.85-0.14-1.21-0.45c-6.06-5.24-16.54-12.25-14.84-21.55
			c0.14-0.72,1.04-1.45,1.78-1.36c8.63,1.12,11.62,9.96,14.61,17.12c0.01-0.35,0.02-0.7,0.03-1.05c-0.03-2.09-0.04-4.16-0.06-6.24
			c-0.06-0.12-0.12-0.23-0.15-0.38c-0.61-3.47-2.26-6.53-2.81-10.06c-0.48-3.03-0.37-6.12-0.13-9.16c0.08-1.1,0.23-2.2,0.46-3.28
			c0.21-4.04,1.17-8.21,4.91-10.35c0.53-0.3,1.04-0.31,1.48-0.15c0.42-0.01,0.85,0.15,1.25,0.54c5.14,5.11,5.1,11.4,3.41,17.63
			c-0.28,1.4-0.62,2.79-1.03,4.17c-1.01,3.37-3.15,6.42-3.52,9.97c-0.02,0.27-0.11,0.49-0.21,0.69c-0.01,1.37-0.03,2.73-0.02,4.11
			c4.63-5.35,11.11-10.65,15.09-5.46c5.29,6.88-7.83,13.71-15.06,14.24c-0.09,5.95-0.58,11.83-2.37,17.41
			c1.6-0.94,3.19-1.9,4.97-2.57c2.87-1.09,9.46-2.41,11.72,0.6c6.45,8.62-13.32,10.19-17.02,10.2c-0.1,0-0.18-0.04-0.28-0.06
			c-1.28,6.53-2.59,12.93-4.79,19.14c6.94-5.21,19.33-11.7,21.22-3.62c2.02,8.67-15.78,13.09-22.24,12.07
			c-0.25,0.12-0.51,0.22-0.77,0.35c-0.11,0.06-0.24,0.06-0.36,0.09c-2.19,6.31-4.13,12.68-6.16,19.04
			c8.92-4.73,14.24-9.43,25.24-5.74c1.14,0.39,1.71,1.63,1.1,2.71c-0.39,0.68-0.93,1.34-1.53,1.99
			c-4.56,10.38-17.99,12.05-28.09,10.23c-0.12-0.02-0.19-0.08-0.28-0.11c-2.66,5.2-4.33,10.85-6.48,16.29
			c6.85-3.82,15.33-6.58,22.2-2.81c4.93,2.7,3.7,7.54-0.45,10.52c-6.33,4.55-15.32,6.55-22.89,4.41c-1.89-0.54-3.43-1.52-4.74-2.77
			c-2.86,5.37-6.05,10.6-8.42,16.2c7.79-4.07,16.44-6.03,24.17,0.1c3.15,2.5,2.51,4.91,0.4,6.91c-0.07,0.52-0.37,1.01-0.88,1.35
			c-2.09,1.41-4.36,2.33-6.7,2.83c-1.57,0.56-2.96,0.91-3.81,1.01c-1.63,0.2-3.1,0.22-4.47,0.17c-5.36,0.8-11.39,0.34-14.5-3.57
			c-5.01,6.77-9.87,13.71-13.69,21.22c4.78-1.41,10.21-0.89,14.91,0.32c2.74,0.7,7.96,3.21,9.62,6.53c0.12,0.19,0.2,0.38,0.25,0.57
			c0.06,0.15,0.1,0.3,0.14,0.46c0.1,0.07,0.2,0.12,0.29,0.19c0.89,0.61,1.37,2.1,0.38,2.9c-0.75,0.59-1.57,1.08-2.42,1.52
			c-0.27,0.17-0.58,0.31-0.89,0.44c-0.12,0.06-0.24,0.11-0.35,0.15c-0.07,0.02-0.14,0.05-0.21,0.08
			c-8.98,3.53-22.04-0.28-27.14-7.97c-0.11-0.15-0.16-0.35-0.19-0.52c-3.34,5.33-7.29,10.23-11.77,14.67
			c10.69,1.8,19.49,4.95,27.42,13.55c0.85,0.93,0.62,2.2-0.37,2.9c-11.31,7.92-24.67-0.82-32.36-10.58
			c-4.92,5.96-10.21,11.29-17.12,14.94c10.05,0.49,23.54,4.05,25.64,14.03c0.18,0.29,0.25,0.61,0.21,0.94
			c0,0.01,0.01,0.01,0.01,0.02c0.1,0.82-0.64,1.54-1.35,1.78c-9.56,3.09-18.6-0.11-24.39-7.03c-1.46-1.15-2.78-2.45-3.97-3.87
			c-0.14-0.17-0.28-0.35-0.42-0.51c-0.19-0.24-0.39-0.46-0.57-0.71c-0.18-0.23-0.33-0.48-0.5-0.72c-3.08,2.21-5.81,4.86-8.8,7.21
			c-2.33,1.83-5.03,3.1-7.62,4.55c8.39,2.46,16.42,7.14,19.86,15.51c0.42,1.04-0.67,2.49-1.78,2.34
			c-8.88-1.18-19.01-5.98-24.12-13.86c-5.65,4.29-12.1,6.78-18.39,9.82c6.31,2.18,11.52,8.37,14.53,13.73
			c0.68,1.22-0.17,2.78-1.6,2.78c-4.23-0.01-7.54-2.38-10.82-4.8c-3.23-2.41-6.28-4.91-8.55-8.17c-6.14,3.2-13.46,6.22-20.54,7.67
			c2.34,1.5,4.41,3.56,6.31,5.48c3.29,3.35,5.86,7.35,7.29,11.8c0.28,0.88-0.32,2.14-1.29,2.28c-5.05,0.7-8.9-2.64-12.08-6.2
			c-2.81-3.14-5.81-6.76-7.79-10.7c-3.45,0.23-7.14,1.86-10.49,2.55c-3.11,0.66-5.99,1.8-9.02,2.41
			c5.31,4.12,9.98,10.99,10.28,17.37c0.07,1.46-1.6,2.23-2.78,1.6c-7.3-3.92-10.64-10.08-13.04-17.4c-0.15,0.06-0.29,0.13-0.47,0.15
			c-5.19,0.62-10.01,3.57-15.11,4.69c2.81,3.2,4.36,7.5,4.4,11.76c0.02,1.49-1.56,2.2-2.77,1.6c-2.65-1.29-4.44-3.49-5.85-6.02
			c-1.16-2.07-1.53-4.2-1.87-6.36c-15.89,5.1-31.51,11-47.41,16.1c-8.29,2.66-16.52,4.62-25.13,5.92
			c-7.98,1.2-16.28,2.15-23.65,5.65C236.37,559.13,235.44,557.54,236.51,557.02z"/>
	</g>
</g>
<g id="Layer_1">
</g>
<g>
	<path d="M204.91,34.87c7.4,0,13.77,2.67,19.1,8.01c5.29,5.24,7.94,11.61,7.94,19.1v18.82c0,7.54-0.93,16.86-7.94,24.72
		c-4.98,5.59-13.09,10.46-18.96,15.03c-5.06,3.93-7.09,8.06-7.09,11.8v4.5h13.84h20.16v20.09h-54.08v-19.67
		c0-36.1,33.92-31.38,33.92-55.77V61.98c0-3.77-3.08-6.95-6.88-6.95c-3.81,0-6.95,3.15-6.95,6.95v12.85h-20.09V61.98
		C177.87,47.18,190.13,34.87,204.91,34.87z"/>
	<path d="M287.92,42.88c5.29,5.24,7.94,11.61,7.94,19.1v67.92c0,7.45-2.65,13.81-7.94,19.1c-5.29,5.29-11.66,7.94-19.1,7.94
		c-7.54,0-13.91-2.65-19.1-7.94c-5.29-5.29-7.94-11.66-7.94-19.1V61.98c0-7.49,2.65-13.86,7.94-19.1c5.24-5.34,11.61-8.01,19.1-8.01
		C276.22,34.87,282.59,37.54,287.92,42.88z M263.9,57.07c-1.36,1.36-2.04,3-2.04,4.92v67.92c0,1.92,0.68,3.56,2.04,4.92
		c1.4,1.36,3.04,2.04,4.92,2.04s3.49-0.68,4.85-2.04s2.04-3,2.04-4.92V61.98c0-1.92-0.68-3.56-2.04-4.92
		c-1.31-1.36-2.93-2.04-4.85-2.04S265.26,55.71,263.9,57.07z"/>
	<path d="M332.73,34.87c7.4,0,13.77,2.67,19.1,8.01c5.29,5.24,7.94,11.61,7.94,19.1v18.82c0,7.54-0.93,16.86-7.94,24.72
		c-4.98,5.59-13.09,10.46-18.96,15.03c-5.06,3.93-7.09,8.06-7.09,11.8v4.5h13.84h20.16v20.09h-54.08v-19.67
		c0-36.1,33.92-31.38,33.92-55.77V61.98c0-3.77-3.08-6.95-6.88-6.95c-3.81,0-6.95,3.15-6.95,6.95v12.85h-20.09V61.98
		C305.69,47.18,317.95,34.87,332.73,34.87z"/>
	<path d="M415.74,42.88c5.29,5.24,7.94,11.61,7.94,19.1v67.92c0,7.45-2.65,13.81-7.94,19.1s-11.66,7.94-19.1,7.94
		c-7.54,0-13.91-2.65-19.1-7.94c-5.29-5.29-7.94-11.66-7.94-19.1V61.98c0-7.49,2.65-13.86,7.94-19.1c5.24-5.34,11.61-8.01,19.1-8.01
		C404.04,34.87,410.41,37.54,415.74,42.88z M391.72,57.07c-1.36,1.36-2.04,3-2.04,4.92v67.92c0,1.92,0.68,3.56,2.04,4.92
		c1.4,1.36,3.04,2.04,4.92,2.04c1.87,0,3.49-0.68,4.85-2.04c1.36-1.36,2.04-3,2.04-4.92V61.98c0-1.92-0.68-3.56-2.04-4.92
		c-1.31-1.36-2.93-2.04-4.85-2.04C394.72,55.03,393.08,55.71,391.72,57.07z"/>
	<path d="M73.73,266.15v-79.98h16.17v68.88h15.91v11.11H73.73z"/>
	<path d="M109.68,251.08v-24.66c0-6.19,1.46-11,4.38-14.42c2.92-3.42,7.47-5.13,13.66-5.13c6.19,0,10.78,1.71,13.77,5.13
		c2.99,3.42,4.49,8.23,4.49,14.42v24.66c0,4.83-1.79,8.76-5.38,11.8c-3.58,3.04-7.88,4.55-12.89,4.55c-3.23,0-6.21-0.66-8.93-1.98
		c-2.73-1.32-4.93-3.24-6.6-5.78C110.52,257.15,109.68,254.28,109.68,251.08z M131.14,251.26v-28.71c0-2.93-1.14-4.4-3.42-4.4
		c-2.04,0-3.07,1.47-3.07,4.4v28.71c0,0.65,0.02,1.19,0.07,1.62c0.04,0.43,0.16,0.93,0.33,1.51s0.49,1.02,0.93,1.31
		c0.44,0.3,1.02,0.44,1.73,0.44C130,256.15,131.14,254.52,131.14,251.26z"/>
	<path d="M152.92,251.08v-24.66c0-6.19,1.46-11,4.38-14.42c2.92-3.42,7.47-5.13,13.66-5.13c6.19,0,10.78,1.71,13.77,5.13
		c2.99,3.42,4.49,8.23,4.49,14.42v24.66c0,4.83-1.79,8.76-5.38,11.8c-3.58,3.04-7.88,4.55-12.89,4.55c-3.23,0-6.21-0.66-8.93-1.98
		c-2.73-1.32-4.93-3.24-6.6-5.78C153.75,257.15,152.92,254.28,152.92,251.08z M174.38,251.26v-28.71c0-2.93-1.14-4.4-3.42-4.4
		c-2.04,0-3.07,1.47-3.07,4.4v28.71c0,0.65,0.02,1.19,0.07,1.62c0.04,0.43,0.16,0.93,0.33,1.51s0.49,1.02,0.93,1.31
		c0.44,0.3,1.02,0.44,1.73,0.44C173.24,256.15,174.38,254.52,174.38,251.26z"/>
	<path d="M197.09,266.15v-79.98h14.98v42.12l9.15-20.13h16.04l-14.26,24.48l14.22,33.5H221.7l-7.64-25.86l-2,3.38v22.48H197.09z"/>
	<path d="M260.76,266.15v-47.99h-3.38v-10h3.38v-0.09c0.03-1.78,0.1-3.35,0.22-4.71c0.12-1.36,0.33-2.81,0.64-4.35
		c0.31-1.54,0.77-2.87,1.38-3.98c0.61-1.11,1.37-2.14,2.29-3.09c0.92-0.95,2.09-1.67,3.51-2.16c1.42-0.49,3.05-0.73,4.89-0.73
		c1.24,0,2.65,0.05,4.22,0.16c1.57,0.1,2.83,0.22,3.78,0.33l1.42,0.13v11.2c-2.04-0.18-3.35-0.27-3.91-0.27
		c-1.24,0-2.13,0.35-2.67,1.04c-0.53,0.7-0.8,1.96-0.8,3.8v2.71h7.24v10h-7.24v47.99H260.76z"/>
	<path d="M286.27,251.08v-24.66c0-6.19,1.46-11,4.38-14.42c2.92-3.42,7.47-5.13,13.66-5.13c6.19,0,10.78,1.71,13.78,5.13
		c2.99,3.42,4.49,8.23,4.49,14.42v24.66c0,4.83-1.79,8.76-5.38,11.8c-3.58,3.04-7.88,4.55-12.89,4.55c-3.23,0-6.21-0.66-8.93-1.98
		c-2.73-1.32-4.93-3.24-6.6-5.78C287.11,257.15,286.27,254.28,286.27,251.08z M307.73,251.26v-28.71c0-2.93-1.14-4.4-3.42-4.4
		c-2.04,0-3.07,1.47-3.07,4.4v28.71c0,0.65,0.02,1.19,0.07,1.62c0.04,0.43,0.16,0.93,0.33,1.51s0.49,1.02,0.93,1.31
		c0.44,0.3,1.02,0.44,1.73,0.44C306.59,256.15,307.73,254.52,307.73,251.26z"/>
	<path d="M330.22,266.15v-57.99h14.89v4.71c2.28-3.7,4.95-5.55,8-5.55c0.86,0,2.21,0.15,4.04,0.44v12.62
		c-2.76-0.3-4.7-0.44-5.82-0.44c-2.04,0-3.59,0.63-4.64,1.89c-1.05,1.26-1.58,3.06-1.58,5.4v38.93H330.22z"/>
	<path d="M367.45,266.15l-8.49-57.99h12.49l4.62,35.77l4.8-35.77h11.29l4.35,36.48l5.07-36.48h11.55l-8.58,57.99h-12.89l-5.47-34.26
		l-5.87,34.26H367.45z"/>
	<path d="M440.15,266.15l-1.47-6c-0.86,2.7-2.27,4.58-4.22,5.67c-1.96,1.08-4.38,1.62-7.29,1.62c-2.13,0-4-0.42-5.6-1.24
		c-1.6-0.83-2.85-1.95-3.75-3.35c-0.9-1.41-1.57-2.92-2-4.53c-0.43-1.61-0.64-3.31-0.64-5.09c0-2.01,0.21-3.88,0.62-5.6
		c0.42-1.72,0.94-3.24,1.58-4.55c0.64-1.32,1.53-2.58,2.67-3.8c1.14-1.21,2.25-2.24,3.33-3.09s2.47-1.72,4.16-2.62
		c1.69-0.9,3.2-1.66,4.53-2.27c1.33-0.61,3.01-1.33,5.02-2.16v-4.89c0-2.04-0.25-3.57-0.76-4.58c-0.5-1.01-1.36-1.51-2.58-1.51
		c-0.83,0-1.5,0.17-2.02,0.51c-0.52,0.34-0.88,0.85-1.09,1.53c-0.21,0.68-0.34,1.3-0.4,1.84c-0.06,0.55-0.09,1.28-0.09,2.2v3.29
		h-14.53c0-6.67,1.67-11.78,5.02-15.35c3.35-3.57,8.21-5.35,14.58-5.35c4.44,0,8.34,1.62,11.69,4.84c3.35,3.23,5.02,7.06,5.02,11.51
		v27.55c0,4.77,0.64,9.91,1.91,15.42H440.15z M437.13,253.04v-14.26c-4.92,3.97-7.38,8.32-7.38,13.06c0,1.19,0.23,2.2,0.69,3.04
		c0.46,0.84,1.24,1.27,2.33,1.27c0.62,0,1.24-0.2,1.84-0.6c0.61-0.4,1.04-0.75,1.31-1.04C436.2,254.21,436.6,253.72,437.13,253.04z"
		/>
	<path d="M460.15,266.15v-57.99h14.89v4.71c2.28-3.7,4.95-5.55,8-5.55c0.86,0,2.21,0.15,4.04,0.44v12.62
		c-2.76-0.3-4.7-0.44-5.82-0.44c-2.04,0-3.59,0.63-4.64,1.89c-1.05,1.26-1.58,3.06-1.58,5.4v38.93H460.15z"/>
	<path d="M490.14,255.04v-34.26c0-3.67,1.16-6.92,3.47-9.73c2.31-2.81,5.17-4.22,8.58-4.22c1.87,0,3.64,0.48,5.31,1.44
		c1.67,0.96,3.12,2.23,4.33,3.8v-25.91h14.97v79.98h-14.97v-4.35c-1.19,1.75-2.67,3.13-4.44,4.13c-1.78,1.01-3.66,1.51-5.64,1.51
		c-3.29,0-6.04-1.24-8.27-3.71S490.14,258.36,490.14,255.04z M511.83,252.95v-31.46c-1.69-2.22-3.1-3.33-4.22-3.33
		c-1.66,0-2.49,1.27-2.49,3.82v29.99c0,0.8,0.04,1.46,0.11,1.98c0.07,0.52,0.31,1.02,0.71,1.49c0.4,0.47,0.96,0.71,1.67,0.71
		C508.88,256.15,510.28,255.08,511.83,252.95z"/>
	<path d="M117.23,355.88v-27.46h-4.17v-9.78h4.17V300h14.65v18.64h7.04v9.78h-7.04v30.98c0,1.56,0.29,2.73,0.87,3.5
		c0.58,0.77,1.61,1.15,3.09,1.15c1.68,0,3.1-0.09,4.26-0.26v11.34c-1.91,0.58-5,0.87-9.26,0.87c-1.71,0-3.25-0.2-4.63-0.61
		c-1.38-0.41-2.54-0.95-3.48-1.63c-0.94-0.68-1.75-1.54-2.43-2.59c-0.68-1.04-1.22-2.11-1.61-3.19c-0.39-1.09-0.7-2.35-0.91-3.8
		c-0.22-1.45-0.36-2.8-0.43-4.04C117.27,358.9,117.23,357.48,117.23,355.88z"/>
	<path d="M142.79,360.62V336.5c0-6.05,1.43-10.76,4.28-14.1c2.85-3.35,7.31-5.02,13.36-5.02c6.05,0,10.54,1.67,13.47,5.02
		c2.93,3.35,4.39,8.05,4.39,14.1v24.12c0,4.72-1.75,8.57-5.26,11.54c-3.51,2.97-7.71,4.45-12.6,4.45c-3.16,0-6.07-0.64-8.73-1.93
		c-2.67-1.29-4.82-3.17-6.45-5.65C143.61,366.55,142.79,363.75,142.79,360.62z M163.78,360.79v-28.07c0-2.87-1.12-4.3-3.35-4.3
		c-2,0-3,1.43-3,4.3v28.07c0,0.64,0.02,1.17,0.06,1.59c0.04,0.42,0.15,0.91,0.33,1.48c0.17,0.56,0.48,0.99,0.91,1.28
		c0.43,0.29,1,0.44,1.69,0.44C162.66,365.58,163.78,363.98,163.78,360.79z"/>
	<path d="M201.02,355.88v-27.46h-4.17v-9.78h4.17V300h14.65v18.64h7.04v9.78h-7.04v30.98c0,1.56,0.29,2.73,0.87,3.5
		c0.58,0.77,1.61,1.15,3.09,1.15c1.68,0,3.1-0.09,4.26-0.26v11.34c-1.91,0.58-5,0.87-9.26,0.87c-1.71,0-3.25-0.2-4.63-0.61
		c-1.38-0.41-2.54-0.95-3.48-1.63c-0.94-0.68-1.75-1.54-2.43-2.59c-0.68-1.04-1.22-2.11-1.61-3.19c-0.39-1.09-0.7-2.35-0.91-3.8
		c-0.22-1.45-0.36-2.8-0.43-4.04C201.06,358.9,201.02,357.48,201.02,355.88z"/>
	<path d="M227.27,375.35v-78.22h14.65v25.55c1.42-1.59,3.11-2.88,5.06-3.87c1.96-0.99,3.98-1.48,6.06-1.48c2,0,3.79,0.64,5.37,1.91
		c1.58,1.28,2.75,2.84,3.52,4.69c0.77,1.85,1.15,3.77,1.15,5.74v45.67h-14.65V333.5c0-0.12,0.01-0.37,0.02-0.76
		c0.01-0.39,0.01-0.71,0-0.96c-0.02-0.25-0.03-0.57-0.04-0.96c-0.01-0.39-0.06-0.7-0.15-0.93c-0.09-0.23-0.2-0.48-0.35-0.74
		c-0.15-0.26-0.34-0.45-0.59-0.56c-0.25-0.12-0.54-0.17-0.89-0.17c-0.58,0-1.2,0.23-1.87,0.7c-0.67,0.46-1.15,0.85-1.43,1.17
		c-0.29,0.32-0.7,0.78-1.22,1.39v43.67H227.27z"/>
	<path d="M268.47,360.62V336.5c0-6.03,1.43-10.73,4.3-14.1s7.24-5.06,13.12-5.06c5.91,0,10.29,1.68,13.15,5.04
		c2.85,3.36,4.28,8.07,4.28,14.12v11.73h-20.21v12.56c0,3.19,0.93,4.78,2.78,4.78c2.03,0,3.04-1.71,3.04-5.13v-6.21h14.38v6.39
		c0,4.72-1.71,8.57-5.13,11.54c-3.42,2.97-7.52,4.45-12.3,4.45s-8.88-1.49-12.3-4.48C270.18,369.15,268.47,365.31,268.47,360.62z
		 M283.12,340.54h5.69v-7.82c0-2.87-0.97-4.3-2.91-4.3c-1.85,0-2.78,1.43-2.78,4.3V340.54z"/>
	<path d="M324.27,375.35v-56.71h14.65v4.04c1.36-1.59,2.98-2.88,4.87-3.87c1.88-0.99,3.82-1.48,5.82-1.48
		c1.88,0,3.62,0.61,5.21,1.83c1.59,1.22,2.8,2.74,3.61,4.56c1.42-1.91,3.17-3.46,5.24-4.63c2.07-1.17,4.27-1.76,6.58-1.76
		c2,0,3.79,0.64,5.39,1.91c1.59,1.28,2.79,2.85,3.58,4.72c0.8,1.87,1.2,3.77,1.2,5.71v45.67h-14.65v-42.76
		c0-0.52-0.01-0.95-0.04-1.28c-0.03-0.33-0.1-0.76-0.22-1.28c-0.12-0.52-0.33-0.92-0.65-1.19c-0.32-0.28-0.72-0.41-1.22-0.41
		c-1.04,0-2.38,1.07-4,3.22v43.72H345V332.5c0-2.72-0.67-4.08-2-4.08c-1.1,0-2.48,1.09-4.13,3.26v43.67H324.27z"/>
	<path d="M385.81,360.62V336.5c0-6.05,1.43-10.76,4.28-14.1c2.85-3.35,7.31-5.02,13.36-5.02c6.05,0,10.54,1.67,13.47,5.02
		c2.93,3.35,4.39,8.05,4.39,14.1v24.12c0,4.72-1.75,8.57-5.26,11.54c-3.51,2.97-7.71,4.45-12.6,4.45c-3.16,0-6.07-0.64-8.73-1.93
		c-2.67-1.29-4.82-3.17-6.45-5.65C386.63,366.55,385.81,363.75,385.81,360.62z M406.8,360.79v-28.07c0-2.87-1.12-4.3-3.35-4.3
		c-2,0-3,1.43-3,4.3v28.07c0,0.64,0.02,1.17,0.06,1.59c0.04,0.42,0.15,0.91,0.33,1.48c0.17,0.56,0.48,0.99,0.91,1.28
		c0.44,0.29,1,0.44,1.7,0.44C405.69,365.58,406.8,363.98,406.8,360.79z"/>
	<path d="M424.58,361.66l11.21-4c0.29,0.87,0.52,1.54,0.7,2.02c0.17,0.48,0.47,1.17,0.89,2.09c0.42,0.91,0.83,1.62,1.22,2.11
		c0.39,0.49,0.9,0.95,1.52,1.37c0.62,0.42,1.28,0.63,1.98,0.63c1.83,0,2.74-1.07,2.74-3.22c0-0.78-0.18-1.59-0.54-2.41
		c-0.36-0.83-0.74-1.54-1.13-2.13c-0.39-0.59-1.07-1.37-2.04-2.33s-1.72-1.67-2.24-2.13c-0.52-0.46-1.43-1.25-2.74-2.35l-2.39-2.04
		c-3.1-2.69-5.53-5.35-7.3-7.95c-1.77-2.61-2.65-5.5-2.65-8.69c0-2.46,0.51-4.69,1.54-6.67c1.03-1.98,2.41-3.59,4.15-4.8
		s3.69-2.15,5.84-2.8c2.16-0.65,4.42-0.98,6.8-0.98c2.11,0,4.14,0.45,6.08,1.35c1.94,0.9,3.64,2.09,5.11,3.59
		c1.46,1.49,2.73,3.17,3.8,5.04c1.07,1.87,1.9,3.83,2.48,5.89l-10.52,3.61c-0.35-0.87-0.64-1.59-0.87-2.15
		c-0.23-0.56-0.6-1.3-1.11-2.22c-0.51-0.91-1-1.64-1.48-2.19c-0.48-0.55-1.06-1.04-1.76-1.46s-1.42-0.63-2.17-0.63
		c-1.01,0-1.8,0.36-2.37,1.09c-0.57,0.72-0.85,1.55-0.85,2.48c0,1.28,0.7,2.7,2.11,4.28s3.34,3.4,5.8,5.45l2.69,2.39
		c1.45,1.3,2.7,2.53,3.76,3.67c1.06,1.15,2.11,2.44,3.17,3.89c1.06,1.45,1.87,2.97,2.43,4.56c0.56,1.59,0.85,3.19,0.85,4.78
		c0,4.58-1.62,8.36-4.84,11.34c-3.23,2.98-7.13,4.48-11.71,4.48c-4.43,0-8.26-1.38-11.47-4.13
		C428.05,369.73,425.82,366.13,424.58,361.66z"/>
	<path d="M463.91,355.88v-27.46h-4.17v-9.78h4.17V300h14.65v18.64h7.04v9.78h-7.04v30.98c0,1.56,0.29,2.73,0.87,3.5
		c0.58,0.77,1.61,1.15,3.08,1.15c1.68,0,3.1-0.09,4.26-0.26v11.34c-1.91,0.58-5,0.87-9.26,0.87c-1.71,0-3.25-0.2-4.63-0.61
		c-1.38-0.41-2.54-0.95-3.48-1.63c-0.94-0.68-1.75-1.54-2.43-2.59c-0.68-1.04-1.22-2.11-1.61-3.19c-0.39-1.09-0.7-2.35-0.91-3.8
		c-0.22-1.45-0.36-2.8-0.43-4.04C463.94,358.9,463.91,357.48,463.91,355.88z"/>
</g>
</svg>
