<?xml version="1.0" encoding="utf-8"?>
<!-- Generator: Adobe Illustrator 24.0.1, SVG Export Plug-In . SVG Version: 6.00 Build 0)  -->
<svg version="1.0" id="图层_1" xmlns="http://www.w3.org/2000/svg" xmlns:xlink="http://www.w3.org/1999/xlink" x="0px" y="0px"
	 viewBox="0 0 600 600" style="enable-background:new 0 0 600 600;" xml:space="preserve">
<g id="wreaths72">
	<g>
		<path d="M363.49,557.02c-10.12-4.8-21.72-5.23-32.59-7.23c-13.66-2.5-26.95-7.92-40.01-12.51c-8.04-2.83-16.14-5.4-24.27-7.87
			c0.01-0.01,0.01-0.02,0.01-0.04c2.86-6.11,3.16-14.28,0-20.42c-0.65-1.28-2.48-1.12-3.18,0c-3.37,5.38-2.67,11.62-1.68,17.55
			c-2.16-0.45-4.24-1.43-6.33-2.08c-2.92-0.91-5.77-1.99-8.77-2.57c2.45-3.62,3.13-7.3,2.79-11.91c-0.27-3.6-0.64-8.44-3.09-11.25
			c-1.01-1.15-2.63-0.36-3.09,0.81c-2.64,6.68-4.57,13.58-2.83,20.62c-6.39-0.81-12.53-4.18-18.9-5.05c1.6-2.12,2.58-5.13,3.16-7.2
			c1.76-6.29,0.21-14.91-1.6-21.03c-0.4-1.33-2.09-1.81-3.09-0.82c-3.05,3.05-4.82,8-5.98,12.07c-1.45,5.11-0.14,9.82,0.94,14.65
			c-7.17-1.09-15.1-4.32-21.39-7.58c5.39-8.76,9.3-18.87,5-29.04c-0.49-1.16-2.11-1.09-2.9-0.38c-8.16,7.38-6.48,17.06-6.8,26.74
			c-6.8-3.42-14.06-5.87-20.12-10.62c2.47-1.72,4.52-4.97,5.68-7.08c3.85-7.01,3.83-16.19,4.22-23.95c0.09-1.7-2.03-2.32-3.15-1.29
			c-4.3,3.89-7.68,8.32-10.11,13.6c-2.3,4.99-2.32,9.77-2.31,14.89c-3.25-1.94-6.64-3.55-9.59-6.03c-2.13-1.78-4.16-3.63-6.34-5.29
			c0.19-0.14,0.35-0.29,0.46-0.51c6.05-11.09,6.81-23.68,2.58-35.54c-0.42-1.19-2.12-1.97-3.08-0.81
			c-8.02,9.59-11.34,21.09-6.52,32.11c-1.53-0.82-2.99-1.7-4.36-2.69c-2.96-2.57-5.86-5.23-8.7-7.93c-1.2-1.33-2.38-2.7-3.54-4.12
			c0.23-0.35,0.47-0.71,0.68-1.07c8.17-7.74,10.81-23.22,6.96-33.45c-0.52-1.38-1.96-1.72-3.09-0.81
			c-8.81,7.09-11.4,19.54-9.08,30.31c-5.2-5.1-9.67-10.81-13.28-17.15c8.16-9.31,12.73-26.2,9.89-37.49
			c-0.28-1.1-1.73-1.77-2.71-1.1c-12.83,8.71-12.92,20.29-12.85,33.47c-3.6-6.45-7.9-12.5-12.3-18.43
			c7.52-10.9,18.16-21.15,15.29-35.48c-0.2-1.03-1.34-1.48-2.27-1.29c-9.7,2.02-13.44,13.89-15.32,24.33
			c-0.24,0.75-0.49,1.49-0.75,2.23c-0.47,1.35-1.05,2.54-1.66,3.67c-2.31-5.76-5.47-11.1-8.41-16.56
			c5.64-5.14,9.77-11.97,11.51-19.36c1.95-3.3,3.39-6.69,3.35-10.24c0.57-2.63,0.59-5.19-0.58-7.22c-3.02-5.26-9.61,1.86-11.17,4.54
			c-4.74,8.14-4.27,18.19-7.15,26.98c-0.01,0.02-0.02,0.04-0.03,0.07c-0.06-0.04-0.12-0.09-0.19-0.14
			c-3.67-7.3-5.47-15.41-9.36-22.59c1.58-1.39,2.86-2.98,3.94-4.7c6.81-5.72,14.4-18.15,12.34-27c-0.24-1.05-1.3-1.44-2.27-1.29
			c-10.55,1.77-14.03,15.03-17.13,24.35c-1.96-6.17-3.86-12.34-6.01-18.44c0.23-0.28,0.37-0.65,0.33-1.13
			c-0.03-0.38-0.02-0.77-0.01-1.16c0-0.01,0.01-0.02,0.01-0.04c0-0.02,0.01-0.04,0.01-0.07c7.28-5.77,19.38-16,15.49-25.56
			c-0.35-0.88-1.24-1.67-2.27-1.3c-8.97,3.23-13.75,11.3-15.82,20.1c-0.92-2.7-1.67-5.44-2.32-8.21c-0.64-3.16-1.24-6.31-1.76-9.49
			c0.78-0.01,1.57-0.48,1.82-1.33c0.03-0.1,0.07-0.19,0.1-0.3c1.6-0.91,3.12-2.08,4.52-3.42c2.07-1.56,3.96-3.39,5.27-4.57
			c3.74-3.37,4.87-7.67,3.88-12.44c-0.23-1.13-1.76-1.75-2.71-1.1c-6.42,4.33-10.36,9.79-13.08,16.56c-0.5-1.25-0.94-2.51-1.3-3.8
			c-0.56-4.52-1.03-9.06-1.35-13.6c0.42-0.01,0.84-0.14,1.2-0.45c6.06-5.24,16.54-12.25,14.84-21.55c-0.13-0.72-1.03-1.45-1.78-1.36
			c-8.63,1.12-11.62,9.96-14.61,17.12c-0.01-0.35-0.02-0.7-0.03-1.05c0.03-2.09,0.05-4.16,0.06-6.24c0.05-0.12,0.12-0.23,0.15-0.38
			c0.62-3.47,2.26-6.53,2.82-10.06c0.48-3.03,0.37-6.12,0.13-9.16c-0.08-1.1-0.23-2.2-0.46-3.28c-0.21-4.04-1.17-8.21-4.91-10.35
			c-0.53-0.3-1.05-0.31-1.48-0.15c-0.42-0.01-0.86,0.15-1.25,0.54c-5.14,5.11-5.1,11.4-3.41,17.63c0.28,1.4,0.62,2.79,1.03,4.17
			c1.01,3.37,3.14,6.42,3.52,9.97c0.03,0.27,0.11,0.49,0.22,0.69c0.01,1.37,0.03,2.73,0.01,4.11c-4.63-5.35-11.1-10.65-15.09-5.46
			c-5.3,6.88,7.84,13.71,15.06,14.24c0.09,5.95,0.58,11.83,2.37,17.41c-1.6-0.94-3.19-1.9-4.98-2.57c-2.87-1.09-9.47-2.41-11.72,0.6
			c-6.44,8.62,13.32,10.19,17.02,10.2c0.1,0,0.18-0.04,0.27-0.06c1.29,6.53,2.6,12.93,4.8,19.14c-6.93-5.21-19.34-11.7-21.22-3.62
			c-2.01,8.67,15.78,13.09,22.23,12.07c0.25,0.12,0.51,0.22,0.77,0.35c0.12,0.06,0.24,0.06,0.37,0.09
			c2.19,6.31,4.13,12.68,6.17,19.04c-8.93-4.73-14.24-9.43-25.25-5.74c-1.13,0.39-1.71,1.63-1.1,2.71c0.38,0.68,0.93,1.34,1.53,1.99
			c4.56,10.38,17.98,12.05,28.09,10.23c0.12-0.02,0.18-0.08,0.28-0.11c2.66,5.2,4.33,10.85,6.48,16.29
			c-6.85-3.82-15.33-6.58-22.2-2.81c-4.93,2.7-3.7,7.54,0.45,10.52c6.33,4.55,15.31,6.55,22.89,4.41c1.89-0.54,3.43-1.52,4.74-2.77
			c2.86,5.37,6.05,10.6,8.42,16.2c-7.8-4.07-16.44-6.03-24.17,0.1c-3.15,2.5-2.51,4.91-0.4,6.91c0.07,0.52,0.37,1.01,0.88,1.35
			c2.09,1.41,4.36,2.33,6.7,2.83c1.57,0.56,2.97,0.91,3.81,1.01c1.63,0.2,3.09,0.22,4.47,0.17c5.35,0.8,11.39,0.34,14.5-3.57
			c5.01,6.77,9.86,13.71,13.69,21.22c-4.78-1.41-10.21-0.89-14.91,0.32c-2.73,0.7-7.96,3.21-9.63,6.53
			c-0.12,0.19-0.19,0.38-0.24,0.57c-0.06,0.15-0.1,0.3-0.14,0.46c-0.1,0.07-0.2,0.12-0.29,0.19c-0.88,0.61-1.37,2.1-0.38,2.9
			c0.74,0.59,1.57,1.08,2.42,1.52c0.27,0.17,0.58,0.31,0.89,0.44c0.12,0.06,0.23,0.11,0.35,0.15c0.07,0.02,0.14,0.05,0.21,0.08
			c8.98,3.53,22.04-0.28,27.14-7.97c0.11-0.15,0.15-0.35,0.19-0.52c3.34,5.33,7.3,10.23,11.76,14.67
			c-10.69,1.8-19.49,4.95-27.42,13.55c-0.85,0.93-0.62,2.2,0.38,2.9c11.32,7.92,24.67-0.82,32.36-10.58
			c4.92,5.96,10.21,11.29,17.12,14.94c-10.05,0.49-23.54,4.05-25.64,14.03c-0.18,0.29-0.25,0.61-0.21,0.94
			c-0.01,0.01-0.01,0.01-0.01,0.02c-0.1,0.82,0.64,1.54,1.36,1.78c9.56,3.09,18.6-0.11,24.39-7.03c1.45-1.15,2.78-2.45,3.97-3.87
			c0.14-0.17,0.28-0.35,0.42-0.51c0.19-0.24,0.39-0.46,0.57-0.71c0.17-0.23,0.33-0.48,0.5-0.72c3.08,2.21,5.81,4.86,8.79,7.21
			c2.33,1.83,5.03,3.1,7.62,4.55c-8.4,2.46-16.42,7.14-19.86,15.51c-0.43,1.04,0.66,2.49,1.78,2.34
			c8.88-1.18,19.02-5.98,24.12-13.86c5.64,4.29,12.1,6.78,18.39,9.82c-6.31,2.18-11.52,8.37-14.53,13.73
			c-0.68,1.22,0.17,2.78,1.59,2.78c4.24-0.01,7.55-2.37,10.82-4.8c3.24-2.41,6.29-4.91,8.55-8.17c6.14,3.2,13.46,6.22,20.53,7.67
			c-2.34,1.5-4.41,3.56-6.31,5.49c-3.29,3.34-5.86,7.34-7.29,11.8c-0.28,0.87,0.32,2.14,1.29,2.28c5.04,0.7,8.9-2.64,12.08-6.19
			c2.8-3.15,5.81-6.77,7.8-10.71c3.44,0.23,7.14,1.86,10.48,2.56c3.11,0.65,5.98,1.8,9.02,2.41c-5.31,4.12-9.98,10.99-10.28,17.37
			c-0.07,1.46,1.6,2.23,2.78,1.6c7.3-3.92,10.63-10.08,13.04-17.4c0.15,0.06,0.29,0.13,0.47,0.15c5.19,0.62,10.02,3.57,15.12,4.7
			c-2.81,3.2-4.36,7.49-4.4,11.75c-0.02,1.49,1.55,2.2,2.77,1.6c2.64-1.29,4.43-3.49,5.85-6.02c1.16-2.07,1.54-4.2,1.87-6.36
			c15.89,5.1,31.51,11,47.41,16.1c8.29,2.66,16.51,4.62,25.12,5.92c7.98,1.2,16.28,2.15,23.66,5.65
			C363.64,559.13,364.57,557.54,363.49,557.02z"/>
		<path d="M236.51,557.02c10.12-4.8,21.72-5.23,32.6-7.23c13.66-2.51,26.95-7.92,40.01-12.51c8.04-2.83,16.14-5.4,24.27-7.87
			c-0.01-0.01-0.01-0.02-0.01-0.04c-2.86-6.11-3.16-14.28-0.01-20.42c0.66-1.28,2.49-1.12,3.18,0c3.38,5.38,2.67,11.62,1.68,17.55
			c2.16-0.44,4.24-1.43,6.32-2.07c2.93-0.91,5.77-1.99,8.78-2.57c-2.45-3.62-3.13-7.3-2.79-11.92c0.27-3.6,0.65-8.43,3.09-11.25
			c1.01-1.15,2.62-0.36,3.09,0.81c2.65,6.68,4.57,13.58,2.82,20.62c6.39-0.81,12.54-4.18,18.91-5.05c-1.61-2.12-2.58-5.13-3.16-7.21
			c-1.76-6.29-0.21-14.9,1.6-21.03c0.4-1.33,2.09-1.81,3.09-0.82c3.04,3.05,4.82,8,5.98,12.07c1.45,5.11,0.14,9.82-0.94,14.65
			c7.18-1.09,15.1-4.32,21.39-7.58c-5.39-8.76-9.3-18.87-5-29.04c0.49-1.16,2.11-1.09,2.9-0.38c8.16,7.38,6.48,17.06,6.8,26.73
			c6.8-3.42,14.06-5.86,20.12-10.62c-2.47-1.72-4.52-4.97-5.68-7.08c-3.85-7.01-3.83-16.19-4.23-23.95
			c-0.08-1.7,2.03-2.32,3.15-1.29c4.3,3.89,7.68,8.32,10.11,13.6c2.3,4.99,2.32,9.77,2.3,14.89c3.26-1.94,6.65-3.55,9.6-6.03
			c2.13-1.78,4.15-3.63,6.34-5.29c-0.18-0.14-0.35-0.29-0.46-0.51c-6.05-11.09-6.81-23.68-2.59-35.54c0.43-1.19,2.13-1.97,3.09-0.81
			c8.02,9.59,11.34,21.09,6.51,32.11c1.53-0.82,2.99-1.7,4.37-2.69c2.96-2.57,5.85-5.23,8.69-7.93c1.21-1.33,2.39-2.7,3.54-4.12
			c-0.23-0.35-0.47-0.71-0.68-1.07c-8.17-7.74-10.81-23.22-6.96-33.45c0.52-1.38,1.96-1.72,3.09-0.81
			c8.81,7.09,11.4,19.54,9.08,30.31c5.19-5.1,9.67-10.81,13.28-17.15c-8.16-9.31-12.74-26.2-9.89-37.49c0.28-1.1,1.73-1.77,2.71-1.1
			c12.83,8.71,12.92,20.29,12.85,33.47c3.6-6.45,7.9-12.5,12.3-18.43c-7.52-10.9-18.16-21.15-15.3-35.48
			c0.21-1.03,1.35-1.48,2.27-1.29c9.7,2.02,13.43,13.89,15.31,24.33c0.25,0.75,0.5,1.49,0.76,2.23c0.48,1.35,1.05,2.54,1.66,3.67
			c2.31-5.76,5.46-11.1,8.41-16.56c-5.63-5.14-9.76-11.97-11.5-19.36c-1.95-3.3-3.4-6.69-3.35-10.24c-0.56-2.63-0.59-5.19,0.58-7.22
			c3.02-5.26,9.61,1.86,11.17,4.54c4.75,8.14,4.28,18.19,7.15,26.98c0.01,0.02,0.02,0.04,0.03,0.07c0.06-0.04,0.12-0.09,0.19-0.14
			c3.67-7.3,5.47-15.41,9.36-22.59c-1.59-1.39-2.87-2.98-3.94-4.7c-6.8-5.72-14.4-18.15-12.34-27c0.24-1.05,1.31-1.44,2.27-1.29
			c10.55,1.77,14.02,15.03,17.12,24.35c1.96-6.17,3.86-12.34,6.01-18.44c-0.23-0.28-0.38-0.65-0.33-1.13
			c0.03-0.38,0.02-0.77,0.01-1.16c0-0.01-0.01-0.02-0.01-0.04c-0.01-0.02-0.01-0.04-0.01-0.07c-7.28-5.77-19.39-16-15.49-25.56
			c0.36-0.88,1.24-1.67,2.28-1.3c8.97,3.23,13.76,11.3,15.82,20.1c0.92-2.7,1.67-5.44,2.32-8.21c0.64-3.16,1.24-6.31,1.76-9.49
			c-0.78-0.01-1.57-0.48-1.83-1.33c-0.03-0.1-0.07-0.19-0.1-0.3c-1.6-0.91-3.12-2.08-4.51-3.42c-2.07-1.56-3.96-3.39-5.27-4.57
			c-3.74-3.37-4.87-7.67-3.88-12.44c0.23-1.13,1.76-1.75,2.71-1.1c6.42,4.33,10.36,9.79,13.08,16.56c0.5-1.25,0.95-2.51,1.3-3.8
			c0.56-4.52,1.04-9.06,1.35-13.6c-0.42-0.01-0.85-0.14-1.21-0.45c-6.06-5.24-16.54-12.25-14.84-21.55
			c0.14-0.72,1.04-1.45,1.78-1.36c8.63,1.12,11.62,9.96,14.61,17.12c0.01-0.35,0.02-0.7,0.03-1.05c-0.03-2.09-0.04-4.16-0.06-6.24
			c-0.06-0.12-0.12-0.23-0.15-0.38c-0.61-3.47-2.26-6.53-2.81-10.06c-0.48-3.03-0.37-6.12-0.13-9.16c0.08-1.1,0.23-2.2,0.46-3.28
			c0.21-4.04,1.17-8.21,4.91-10.35c0.53-0.3,1.04-0.31,1.48-0.15c0.42-0.01,0.85,0.15,1.25,0.54c5.14,5.11,5.1,11.4,3.41,17.63
			c-0.28,1.4-0.62,2.79-1.03,4.17c-1.01,3.37-3.15,6.42-3.52,9.97c-0.02,0.27-0.11,0.49-0.21,0.69c-0.01,1.37-0.03,2.73-0.02,4.11
			c4.63-5.35,11.11-10.65,15.09-5.46c5.29,6.88-7.83,13.71-15.06,14.24c-0.09,5.95-0.58,11.83-2.37,17.41
			c1.6-0.94,3.19-1.9,4.97-2.57c2.87-1.09,9.46-2.41,11.72,0.6c6.45,8.62-13.32,10.19-17.02,10.2c-0.1,0-0.18-0.04-0.28-0.06
			c-1.28,6.53-2.59,12.93-4.79,19.14c6.94-5.21,19.33-11.7,21.22-3.62c2.02,8.67-15.78,13.09-22.24,12.07
			c-0.25,0.12-0.51,0.22-0.77,0.35c-0.11,0.06-0.24,0.06-0.36,0.09c-2.19,6.31-4.13,12.68-6.16,19.04
			c8.92-4.73,14.24-9.43,25.24-5.74c1.14,0.39,1.71,1.63,1.1,2.71c-0.39,0.68-0.93,1.34-1.53,1.99
			c-4.56,10.38-17.99,12.05-28.09,10.23c-0.12-0.02-0.19-0.08-0.28-0.11c-2.66,5.2-4.33,10.85-6.48,16.29
			c6.85-3.82,15.33-6.58,22.2-2.81c4.93,2.7,3.7,7.54-0.45,10.52c-6.33,4.55-15.32,6.55-22.89,4.41c-1.89-0.54-3.43-1.52-4.74-2.77
			c-2.86,5.37-6.05,10.6-8.42,16.2c7.79-4.07,16.44-6.03,24.17,0.1c3.15,2.5,2.51,4.91,0.4,6.91c-0.07,0.52-0.37,1.01-0.88,1.35
			c-2.09,1.41-4.36,2.33-6.7,2.83c-1.57,0.56-2.96,0.91-3.81,1.01c-1.63,0.2-3.1,0.22-4.47,0.17c-5.36,0.8-11.39,0.34-14.5-3.57
			c-5.01,6.77-9.87,13.71-13.69,21.22c4.78-1.41,10.21-0.89,14.91,0.32c2.74,0.7,7.96,3.21,9.62,6.53c0.12,0.19,0.2,0.38,0.25,0.57
			c0.06,0.15,0.1,0.3,0.14,0.46c0.1,0.07,0.2,0.12,0.29,0.19c0.89,0.61,1.37,2.1,0.38,2.9c-0.75,0.59-1.57,1.08-2.42,1.52
			c-0.27,0.17-0.58,0.31-0.89,0.44c-0.12,0.06-0.24,0.11-0.35,0.15c-0.07,0.02-0.14,0.05-0.21,0.08
			c-8.98,3.53-22.04-0.28-27.14-7.97c-0.11-0.15-0.16-0.35-0.19-0.52c-3.34,5.33-7.29,10.23-11.77,14.67
			c10.69,1.8,19.49,4.95,27.42,13.55c0.85,0.93,0.62,2.2-0.37,2.9c-11.31,7.92-24.67-0.82-32.36-10.58
			c-4.92,5.96-10.21,11.29-17.12,14.94c10.05,0.49,23.54,4.05,25.64,14.03c0.18,0.29,0.25,0.61,0.21,0.94
			c0,0.01,0.01,0.01,0.01,0.02c0.1,0.82-0.64,1.54-1.35,1.78c-9.56,3.09-18.6-0.11-24.39-7.03c-1.46-1.15-2.78-2.45-3.97-3.87
			c-0.14-0.17-0.28-0.35-0.42-0.51c-0.19-0.24-0.39-0.46-0.57-0.71c-0.18-0.23-0.33-0.48-0.5-0.72c-3.08,2.21-5.81,4.86-8.8,7.21
			c-2.33,1.83-5.03,3.1-7.62,4.55c8.39,2.46,16.42,7.14,19.86,15.51c0.42,1.04-0.67,2.49-1.78,2.34
			c-8.88-1.18-19.01-5.98-24.12-13.86c-5.65,4.29-12.1,6.78-18.39,9.82c6.31,2.18,11.52,8.37,14.53,13.73
			c0.68,1.22-0.17,2.78-1.6,2.78c-4.23-0.01-7.54-2.38-10.82-4.8c-3.23-2.41-6.28-4.91-8.55-8.17c-6.14,3.2-13.46,6.22-20.54,7.67
			c2.34,1.5,4.41,3.56,6.31,5.48c3.29,3.35,5.86,7.35,7.29,11.8c0.28,0.88-0.32,2.14-1.29,2.28c-5.05,0.7-8.9-2.64-12.08-6.2
			c-2.81-3.14-5.81-6.76-7.79-10.7c-3.45,0.23-7.14,1.86-10.49,2.55c-3.11,0.66-5.99,1.8-9.02,2.41
			c5.31,4.12,9.98,10.99,10.28,17.37c0.07,1.46-1.6,2.23-2.78,1.6c-7.3-3.92-10.64-10.08-13.04-17.4c-0.15,0.06-0.29,0.13-0.47,0.15
			c-5.19,0.62-10.01,3.57-15.11,4.69c2.81,3.2,4.36,7.5,4.4,11.76c0.02,1.49-1.56,2.2-2.77,1.6c-2.65-1.29-4.44-3.49-5.85-6.02
			c-1.16-2.07-1.53-4.2-1.87-6.36c-15.89,5.1-31.51,11-47.41,16.1c-8.29,2.66-16.52,4.62-25.13,5.92
			c-7.98,1.2-16.28,2.15-23.65,5.65C236.37,559.13,235.44,557.54,236.51,557.02z"/>
	</g>
</g>
<g id="Layer_1">
</g>
<g>
	<path d="M155.96,42.88c5.29,5.24,7.94,11.61,7.94,19.1v2.81v4.43h-4.42h-11.31h-4.42v-4.43v-2.81c0-1.92-0.68-3.56-2.04-4.92
		c-1.31-1.36-2.93-2.04-4.85-2.04c-1.92,0-3.56,0.68-4.92,2.04s-2.04,3-2.04,4.92v67.92c0,1.92,0.68,3.56,2.04,4.92
		c1.4,1.36,3.04,2.04,4.92,2.04s3.49-0.68,4.85-2.04s2.04-3,2.04-4.92v-2.81v-4.43h4.43h11.31h4.43v4.43v2.81
		c0,7.45-2.65,13.81-7.94,19.1s-11.66,7.94-19.1,7.94c-7.54,0-13.91-2.65-19.1-7.94c-5.29-5.29-7.94-11.66-7.94-19.1V61.98
		c0-7.49,2.65-13.86,7.94-19.1c5.24-5.34,11.61-8.01,19.1-8.01C144.25,34.87,150.62,37.54,155.96,42.88z"/>
	<path d="M188.48,34.87h4.35v4.42v46.57h14.47V39.3v-4.42h4.43h11.31h4.43v4.42v113.22v4.42h-4.43h-11.31h-4.43v-4.42v-46.57h-14.47
		v46.57v4.42h-4.35H177.1h-4.35v-4.42V39.3v-4.42h4.35H188.48z"/>
	<path d="M282.45,34.87h4.42v4.42v11.31v4.42h-4.42h-23.6v30.83h12.29h4.35v4.42v11.31v4.35h-4.35h-12.29v30.9h23.6h4.42v4.35v11.31
		v4.42h-4.42h-39.33h-4.35v-4.42V39.3v-4.42h4.35H282.45z"/>
	<path d="M296.63,34.87h26.97c10.82,49.02,11.38,47.06,19.67,83.23c0-18.85-0.7-64.38-0.7-83.23h20.16v122.07h-27.67
		c-11.45-48.04-12.36-50.71-18.33-80.42v80.42h-20.09V34.87z"/>
	<path d="M428.04,115.71v11.38c0,8.29-2.93,15.31-8.78,21.07c-5.85,5.85-12.88,8.78-21.07,8.78h-24.16V34.87h22.76
		c8.19,0,15.22,2.93,21.07,8.78c5.85,5.81,8.78,12.85,8.78,21.14V76.1c0,7.93-4.17,14.57-8.29,19.1
		C422.42,99.91,428.04,107.68,428.04,115.71z M397.48,55.03h-3.37v30.83h3.37c5.29,0,9.76-4.47,9.76-9.76V64.79
		C407.25,59.5,402.78,55.03,397.48,55.03z M398.19,105.95h-4.07v30.9h4.07c5.29,0,9.76-4.47,9.76-9.76v-11.38
		C407.95,110.42,403.48,105.95,398.19,105.95z"/>
	<path d="M482.25,42.88c5.29,5.29,7.94,11.66,7.94,19.1v67.92c0,7.4-2.65,13.77-7.94,19.1c-5.29,5.29-11.66,7.94-19.1,7.94
		c-7.54,0-13.91-2.65-19.1-7.94c-5.29-5.29-7.94-11.66-7.94-19.1V61.98c0-7.49,2.65-13.86,7.94-19.1c5.24-5.34,11.61-8.01,19.1-8.01
		C470.55,34.87,476.92,37.54,482.25,42.88z M458.23,57.07c-1.36,1.36-2.04,3-2.04,4.92v67.92c0,1.92,0.68,3.56,2.04,4.92
		c1.41,1.36,3.04,2.04,4.92,2.04c1.78,0,3.39-0.68,4.85-2.04c1.36-1.36,2.04-3,2.04-4.92V61.98c0-1.92-0.68-3.56-2.04-4.92
		c-1.36-1.36-2.97-2.04-4.85-2.04C461.23,55.03,459.59,55.71,458.23,57.07z"/>
	<path d="M117.57,266.15v-79.98h16.49c2.96,0,5.58,0.16,7.84,0.47c2.27,0.31,4.49,0.92,6.67,1.82c2.18,0.9,3.97,2.11,5.38,3.62
		c1.41,1.51,2.53,3.5,3.38,5.98c0.84,2.47,1.27,5.4,1.27,8.78c0,4.18-0.98,7.47-2.95,9.86c-1.97,2.4-5.03,4.3-9.18,5.69
		c9.51,2.31,14.26,9.04,14.26,20.17c0,8.03-1.93,13.97-5.78,17.82c-3.85,3.85-9.73,5.78-17.64,5.78H117.57z M133.65,217.62h2.75
		c1.48,0,2.73-0.28,3.73-0.84c1.01-0.56,1.77-1.38,2.29-2.47c0.52-1.08,0.88-2.24,1.09-3.49c0.21-1.24,0.31-2.71,0.31-4.4
		c0-1.33-0.1-2.5-0.29-3.51c-0.19-1.01-0.41-1.84-0.64-2.51c-0.24-0.67-0.64-1.23-1.2-1.69c-0.56-0.46-1.06-0.8-1.49-1.02
		c-0.43-0.22-1.08-0.38-1.96-0.49c-0.87-0.1-1.58-0.16-2.11-0.18c-0.53-0.01-1.36-0.02-2.49-0.02V217.62z M133.74,254.73h1.51
		c2.1,0,3.81-0.24,5.11-0.73c1.3-0.49,2.3-1.33,2.98-2.51c0.68-1.18,1.13-2.53,1.36-4.02c0.22-1.5,0.33-3.5,0.33-6.02
		c0-4.18-0.73-7.42-2.2-9.73c-1.47-2.31-3.96-3.47-7.49-3.47h-1.6V254.73z"/>
	<path d="M166.94,251.08v-24.66c0-6.16,1.47-10.97,4.4-14.42c2.93-3.45,7.41-5.18,13.42-5.18c6.04,0,10.52,1.72,13.44,5.15
		c2.92,3.44,4.38,8.25,4.38,14.44v12h-20.66v12.84c0,3.26,0.95,4.89,2.84,4.89c2.07,0,3.11-1.75,3.11-5.24v-6.35h14.71v6.53
		c0,4.83-1.75,8.76-5.24,11.8c-3.5,3.04-7.69,4.55-12.58,4.55c-4.89,0-9.08-1.53-12.58-4.58
		C168.68,259.81,166.94,255.88,166.94,251.08z M181.91,230.56h5.82v-8c0-2.93-0.99-4.4-2.98-4.4c-1.9,0-2.84,1.47-2.84,4.4V230.56z"
		/>
	<path d="M206.93,252.15l11.46-4.09c0.3,0.89,0.53,1.58,0.71,2.07s0.48,1.2,0.91,2.13c0.43,0.93,0.84,1.65,1.24,2.16
		c0.4,0.5,0.92,0.97,1.56,1.4c0.64,0.43,1.31,0.64,2.02,0.64c1.87,0,2.8-1.1,2.8-3.29c0-0.8-0.19-1.62-0.56-2.47
		c-0.37-0.84-0.76-1.57-1.16-2.18c-0.4-0.61-1.1-1.4-2.09-2.38c-0.99-0.98-1.75-1.7-2.29-2.18c-0.53-0.47-1.47-1.27-2.8-2.4
		l-2.44-2.09c-3.17-2.75-5.66-5.47-7.47-8.13c-1.81-2.67-2.71-5.63-2.71-8.89c0-2.52,0.53-4.79,1.58-6.82
		c1.05-2.03,2.47-3.67,4.24-4.91c1.78-1.24,3.77-2.2,5.98-2.87c2.21-0.67,4.52-1,6.95-1c2.16,0,4.24,0.46,6.22,1.38
		c1.98,0.92,3.72,2.14,5.22,3.67c1.5,1.53,2.79,3.24,3.89,5.15c1.1,1.91,1.94,3.92,2.53,6.02l-10.75,3.69
		c-0.36-0.89-0.65-1.62-0.89-2.2c-0.24-0.58-0.62-1.33-1.13-2.27c-0.52-0.93-1.02-1.68-1.51-2.24c-0.49-0.56-1.09-1.06-1.8-1.49
		c-0.71-0.43-1.45-0.64-2.22-0.64c-1.04,0-1.84,0.37-2.42,1.11c-0.58,0.74-0.87,1.59-0.87,2.53c0,1.3,0.72,2.76,2.15,4.38
		c1.44,1.61,3.41,3.47,5.93,5.58l2.76,2.44c1.48,1.33,2.76,2.58,3.84,3.75c1.08,1.17,2.16,2.5,3.24,3.98
		c1.08,1.48,1.91,3.04,2.49,4.67c0.58,1.63,0.87,3.26,0.87,4.89c0,4.68-1.65,8.55-4.95,11.6c-3.3,3.05-7.3,4.58-11.98,4.58
		c-4.53,0-8.44-1.41-11.73-4.22C210.48,260.4,208.2,256.71,206.93,252.15z"/>
	<path d="M248.97,246.24v-28.08h-4.27v-10h4.27V189.1h14.97v19.06h7.2v10h-7.2v31.68c0,1.6,0.3,2.79,0.89,3.58
		c0.59,0.79,1.64,1.18,3.15,1.18c1.72,0,3.17-0.09,4.35-0.27v11.6c-1.96,0.59-5.11,0.89-9.46,0.89c-1.75,0-3.33-0.21-4.73-0.62
		c-1.41-0.41-2.59-0.97-3.55-1.67c-0.96-0.7-1.79-1.58-2.49-2.64c-0.7-1.07-1.24-2.16-1.64-3.27s-0.71-2.41-0.93-3.89
		c-0.22-1.48-0.37-2.86-0.44-4.13C249,249.32,248.97,247.87,248.97,246.24z"/>
	<path d="M292.07,266.15l17.29-79.98h14.31l17.24,79.98h-15.95l-3.29-17.11h-10.44l-3.11,17.11H292.07z M312.33,239.09h8.27
		l-4.04-29.68L312.33,239.09z"/>
	<path d="M344.77,251.31v-24.88c0-6.16,1.47-10.97,4.4-14.42c2.93-3.45,7.41-5.18,13.42-5.18c6.04,0,10.52,1.72,13.44,5.15
		c2.92,3.44,4.38,8.25,4.38,14.44v5.07H365.7v-6.62c0-2.31-0.2-4.01-0.6-5.09c-0.4-1.08-1.24-1.62-2.51-1.62
		c-1.9,0-2.84,1.47-2.84,4.4v28.71c0,3.26,0.95,4.89,2.84,4.89c0.71,0,1.28-0.15,1.71-0.44c0.43-0.3,0.74-0.8,0.93-1.51
		c0.19-0.71,0.32-1.44,0.38-2.2c0.06-0.76,0.09-1.81,0.09-3.18v-6.18h14.71v8.67c0,3.2-0.83,6.05-2.49,8.55
		c-1.66,2.5-3.84,4.39-6.53,5.67c-2.7,1.27-5.63,1.91-8.8,1.91c-4.89,0-9.08-1.49-12.58-4.47S344.77,256.11,344.77,251.31z"/>
	<path d="M387.74,246.24v-28.08h-4.27v-10h4.27V189.1h14.97v19.06h7.2v10h-7.2v31.68c0,1.6,0.3,2.79,0.89,3.58
		c0.59,0.79,1.64,1.18,3.16,1.18c1.72,0,3.17-0.09,4.35-0.27v11.6c-1.96,0.59-5.11,0.89-9.46,0.89c-1.75,0-3.33-0.21-4.73-0.62
		c-1.41-0.41-2.59-0.97-3.55-1.67c-0.96-0.7-1.79-1.58-2.49-2.64c-0.7-1.07-1.24-2.16-1.64-3.27c-0.4-1.11-0.71-2.41-0.93-3.89
		c-0.22-1.48-0.37-2.86-0.44-4.13C387.77,249.32,387.74,247.87,387.74,246.24z"/>
	<path d="M415.69,251.08v-24.66c0-6.19,1.46-11,4.38-14.42c2.92-3.42,7.47-5.13,13.66-5.13s10.78,1.71,13.78,5.13
		c2.99,3.42,4.49,8.23,4.49,14.42v24.66c0,4.83-1.79,8.76-5.38,11.8c-3.58,3.04-7.88,4.55-12.89,4.55c-3.23,0-6.21-0.66-8.93-1.98
		c-2.73-1.32-4.93-3.24-6.6-5.78C416.52,257.15,415.69,254.28,415.69,251.08z M437.15,251.26v-28.71c0-2.93-1.14-4.4-3.42-4.4
		c-2.04,0-3.07,1.47-3.07,4.4v28.71c0,0.65,0.02,1.19,0.07,1.62c0.04,0.43,0.16,0.93,0.33,1.51s0.49,1.02,0.93,1.31
		c0.44,0.3,1.02,0.44,1.73,0.44C436.01,256.15,437.15,254.52,437.15,251.26z"/>
	<path d="M459.63,266.15v-57.99h14.89v4.71c2.28-3.7,4.95-5.55,8-5.55c0.86,0,2.21,0.15,4.04,0.44v12.62
		c-2.76-0.3-4.7-0.44-5.82-0.44c-2.04,0-3.59,0.63-4.64,1.89c-1.05,1.26-1.58,3.06-1.58,5.4v38.93H459.63z"/>
	<path d="M247.3,315.85c0,3.53-0.56,7.01-1.67,10.46c-1.11,3.45-2.69,6.77-4.73,9.95s-4.01,5.99-5.91,8.42
		c-1.9,2.43-4.16,5.18-6.8,8.24c-2.64,3.07-4.56,5.41-5.78,7.04h24.88v15.38h-42.57v-13.73l19.46-27.86
		c1.13-1.63,2.06-3.02,2.8-4.18c0.74-1.16,1.53-2.55,2.38-4.18s1.48-3.24,1.91-4.84c0.43-1.6,0.64-3.17,0.64-4.71
		c0-0.92-0.11-1.85-0.33-2.8c-0.22-0.95-0.56-1.87-1-2.75s-1.06-1.61-1.84-2.16c-0.79-0.55-1.68-0.82-2.69-0.82
		c-0.83,0-1.58,0.19-2.24,0.58s-1.21,0.91-1.62,1.58c-0.42,0.67-0.77,1.43-1.07,2.29c-0.3,0.86-0.5,1.77-0.62,2.73
		c-0.12,0.96-0.22,1.93-0.31,2.91s-0.13,1.9-0.11,2.78c0.01,0.87,0.02,1.68,0.02,2.42c0,0.5,0,0.86,0,1.07h-15.33v-5.02
		c0-2.93,0.24-5.62,0.71-8.06c0.47-2.44,1.24-4.72,2.31-6.82c1.07-2.1,2.41-3.88,4.04-5.33c1.63-1.45,3.64-2.58,6.04-3.4
		c2.4-0.81,5.12-1.22,8.18-1.22c6.75,0,11.98,1.98,15.69,5.93C245.45,303.7,247.3,309.07,247.3,315.85z"/>
	<path d="M253.21,351.89v-32.93c0-3.55,0.42-6.82,1.27-9.8c0.84-2.98,2.11-5.62,3.8-7.93c1.69-2.31,3.93-4.12,6.73-5.42
		c2.8-1.3,6.05-1.96,9.75-1.96c3.67,0,6.91,0.65,9.71,1.96c2.8,1.3,5.04,3.12,6.73,5.44c1.69,2.33,2.96,4.97,3.8,7.93
		c0.84,2.96,1.27,6.22,1.27,9.78v32.93c0,3.41-0.44,6.6-1.33,9.58c-0.89,2.98-2.2,5.62-3.93,7.93c-1.73,2.31-3.99,4.14-6.78,5.49
		c-2.78,1.35-5.94,2.02-9.46,2.02c-3.58,0-6.78-0.67-9.58-2s-5.06-3.16-6.78-5.47c-1.72-2.31-3.01-4.95-3.89-7.93
		C253.65,358.53,253.21,355.33,253.21,351.89z M280.76,351.89v-32.93c0-7.67-2-11.51-6-11.51c-1.1,0-2.03,0.28-2.8,0.84
		c-0.77,0.56-1.35,1.23-1.75,2c-0.4,0.77-0.71,1.74-0.93,2.91c-0.22,1.17-0.36,2.16-0.4,2.96s-0.07,1.73-0.07,2.8v32.93
		c0,0.92,0.04,1.81,0.11,2.69c0.07,0.87,0.23,1.87,0.47,2.98c0.24,1.11,0.56,2.07,0.98,2.89c0.41,0.82,1,1.5,1.76,2.07
		s1.64,0.84,2.64,0.84c1.24,0,2.3-0.39,3.16-1.18c0.86-0.79,1.48-1.83,1.87-3.13c0.38-1.3,0.64-2.52,0.78-3.64
		C280.69,354.28,280.76,353.11,280.76,351.89z"/>
	<path d="M345.24,315.85c0,3.53-0.56,7.01-1.67,10.46c-1.11,3.45-2.69,6.77-4.73,9.95s-4.01,5.99-5.91,8.42
		c-1.9,2.43-4.16,5.18-6.8,8.24c-2.64,3.07-4.56,5.41-5.78,7.04h24.88v15.38h-42.57v-13.73l19.46-27.86
		c1.13-1.63,2.06-3.02,2.8-4.18c0.74-1.16,1.53-2.55,2.38-4.18c0.84-1.63,1.48-3.24,1.91-4.84c0.43-1.6,0.64-3.17,0.64-4.71
		c0-0.92-0.11-1.85-0.33-2.8c-0.22-0.95-0.56-1.87-1-2.75s-1.06-1.61-1.84-2.16c-0.79-0.55-1.68-0.82-2.69-0.82
		c-0.83,0-1.58,0.19-2.24,0.58c-0.67,0.38-1.21,0.91-1.62,1.58c-0.42,0.67-0.77,1.43-1.07,2.29c-0.3,0.86-0.5,1.77-0.62,2.73
		s-0.22,1.93-0.31,2.91s-0.13,1.9-0.11,2.78c0.01,0.87,0.02,1.68,0.02,2.42c0,0.5,0,0.86,0,1.07h-15.33v-5.02
		c0-2.93,0.24-5.62,0.71-8.06c0.47-2.44,1.24-4.72,2.31-6.82s2.41-3.88,4.04-5.33c1.63-1.45,3.64-2.58,6.04-3.4
		c2.4-0.81,5.12-1.22,8.18-1.22c6.75,0,11.98,1.98,15.69,5.93C343.38,303.7,345.24,309.07,345.24,315.85z"/>
	<path d="M351.15,351.89v-32.93c0-3.55,0.42-6.82,1.27-9.8c0.84-2.98,2.11-5.62,3.8-7.93c1.69-2.31,3.93-4.12,6.73-5.42
		c2.8-1.3,6.05-1.96,9.75-1.96c3.67,0,6.91,0.65,9.71,1.96c2.8,1.3,5.04,3.12,6.73,5.44c1.69,2.33,2.95,4.97,3.8,7.93
		c0.84,2.96,1.27,6.22,1.27,9.78v32.93c0,3.41-0.44,6.6-1.33,9.58c-0.89,2.98-2.2,5.62-3.93,7.93c-1.73,2.31-3.99,4.14-6.78,5.49
		c-2.79,1.35-5.94,2.02-9.46,2.02c-3.58,0-6.78-0.67-9.58-2s-5.06-3.16-6.78-5.47c-1.72-2.31-3.01-4.95-3.89-7.93
		S351.15,355.33,351.15,351.89z M378.7,351.89v-32.93c0-7.67-2-11.51-6-11.51c-1.1,0-2.03,0.28-2.8,0.84
		c-0.77,0.56-1.36,1.23-1.75,2c-0.4,0.77-0.71,1.74-0.93,2.91c-0.22,1.17-0.36,2.16-0.4,2.96c-0.04,0.8-0.07,1.73-0.07,2.8v32.93
		c0,0.92,0.04,1.81,0.11,2.69s0.23,1.87,0.47,2.98c0.24,1.11,0.56,2.07,0.98,2.89c0.41,0.82,1,1.5,1.75,2.07
		c0.76,0.56,1.64,0.84,2.64,0.84c1.24,0,2.29-0.39,3.15-1.18s1.48-1.83,1.87-3.13s0.64-2.52,0.78-3.64
		C378.63,354.28,378.7,353.11,378.7,351.89z"/>
</g>
</svg>
