<?xml version="1.0" encoding="utf-8"?>
<!-- Generator: Adobe Illustrator 24.0.1, SVG Export Plug-In . SVG Version: 6.00 Build 0)  -->
<svg version="1.0" id="图层_1" xmlns="http://www.w3.org/2000/svg" xmlns:xlink="http://www.w3.org/1999/xlink" x="0px" y="0px"
	 viewBox="0 0 900 900" style="enable-background:new 0 0 900 900;" xml:space="preserve">
<path d="M614.82,199.13c-14.28-14.28-33.27-22.14-53.46-22.14c-20.19,0-39.18,7.86-53.46,22.14l-58.42,58.42l-58.42-58.42
	c-14.28-14.28-33.26-22.14-53.46-22.14c-20.19,0-39.18,7.86-53.46,22.14L137.48,345.8c-29.47,29.48-29.47,77.44,0,106.92
	l170.4,170.4l-0.1,0.1l141.71,141.71l88.25-88.25c14.28-14.28,22.14-33.27,22.14-53.46c0-20.2-7.87-39.18-22.14-53.45l-11.65-11.65
	l0.1-0.1l-46.88-46.87l58.42-58.42c14.28-14.28,22.14-33.27,22.14-53.46c0-20.19-7.86-39.18-22.14-53.46l-58.42-58.42l58.42-58.42
	c6.31-6.31,14.7-9.79,23.63-9.79c8.92,0,17.31,3.48,23.62,9.79L770.2,414.18l29.84-29.84L614.82,199.13z M167.31,375.64
	l146.67-146.67c6.31-6.31,14.7-9.79,23.62-9.79c8.92,0,17.31,3.48,23.62,9.79l58.42,58.42l-58.42,58.42
	c-29.48,29.48-29.48,77.44,0,106.92l58.42,58.42l-82.04,82.04l-170.3-170.29C154.29,409.86,154.29,388.66,167.31,375.64z
	 M507.9,646.84l-58.42,58.42l-82.04-82.04l82.04-82.04l58.42,58.42c6.31,6.31,9.79,14.7,9.79,23.62
	C517.69,632.14,514.22,640.53,507.9,646.84z M507.91,375.64c6.31,6.31,9.79,14.7,9.79,23.62c0,8.92-3.48,17.31-9.79,23.62
	l-58.42,58.42l-58.42-58.42c-13.03-13.03-13.03-34.22,0-47.25l58.42-58.42L507.91,375.64z"/>
</svg>
