<?xml version="1.0" encoding="utf-8"?>
<!-- Generator: Adobe Illustrator 24.0.1, SVG Export Plug-In . SVG Version: 6.00 Build 0)  -->
<svg version="1.0" id="图层_1" xmlns="http://www.w3.org/2000/svg" xmlns:xlink="http://www.w3.org/1999/xlink" x="0px" y="0px"
	 viewBox="0 0 70.67 70.67" style="enable-background:new 0 0 70.67 70.67;" xml:space="preserve">
<g>
	<path d="M14.34,14.34v42h42v-42H14.34z M49.04,47.63l-1.41,1.41l5.29,5.29H17.75l5.29-5.29l-1.41-1.41l-5.29,5.29V17.75l5.29,5.29
		l1.41-1.41l-5.29-5.29h35.17l-5.29,5.29l1.41,1.41l5.29-5.29v35.17L49.04,47.63z"/>
	<path d="M35.34,22.84c-6.89,0-12.5,5.61-12.5,12.5s5.61,12.5,12.5,12.5s12.5-5.61,12.5-12.5S42.23,22.84,35.34,22.84z M35.34,45.84
		c-5.79,0-10.5-4.71-10.5-10.5s4.71-10.5,10.5-10.5s10.5,4.71,10.5,10.5S41.13,45.84,35.34,45.84z"/>
</g>
</svg>
