<?xml version="1.0" encoding="utf-8"?>
<!-- Generator: Adobe Illustrator 24.0.1, SVG Export Plug-In . SVG Version: 6.00 Build 0)  -->
<svg version="1.0" id="图层_1" xmlns="http://www.w3.org/2000/svg" xmlns:xlink="http://www.w3.org/1999/xlink" x="0px" y="0px"
	 viewBox="0 0 70.67 70.67" style="enable-background:new 0 0 70.67 70.67;" xml:space="preserve">
<g>
	<path d="M14.34,14.34v42h42v-42H14.34z M54.34,54.34h-38v-38h38V54.34z"/>
	<polygon points="22.61,46.65 24.02,48.07 34.34,37.75 34.34,52.34 36.34,52.34 36.34,37.75 46.65,48.07 48.06,46.65 37.75,36.34 
		52.34,36.34 52.34,34.34 37.75,34.34 48.06,24.02 46.65,22.61 36.34,32.92 36.34,18.34 34.34,18.34 34.34,32.92 24.02,22.61 
		22.61,24.02 32.92,34.34 18.34,34.34 18.34,36.34 32.92,36.34 	"/>
</g>
</svg>
