<?xml version="1.0" encoding="utf-8"?>
<!-- Generator: Adobe Illustrator 24.0.1, SVG Export Plug-In . SVG Version: 6.00 Build 0)  -->
<svg version="1.0" id="图层_1" xmlns="http://www.w3.org/2000/svg" xmlns:xlink="http://www.w3.org/1999/xlink" x="0px" y="0px"
	 viewBox="0 0 70.67 70.67" style="enable-background:new 0 0 70.67 70.67;" xml:space="preserve">
<g>
	<polygon points="11.63,55.03 13.04,56.44 29.47,40.01 45.9,56.44 47.32,55.03 29.47,37.18 	"/>
	<polygon points="41.2,37.18 36.89,41.5 38.3,42.91 41.2,40.01 57.63,56.44 59.04,55.03 	"/>
	<path d="M28.84,34.23c5.51,0,10-4.49,10-10s-4.49-10-10-10s-10,4.49-10,10S23.32,34.23,28.84,34.23z M28.84,16.23
		c4.41,0,8,3.59,8,8s-3.59,8-8,8s-8-3.59-8-8S24.43,16.23,28.84,16.23z"/>
</g>
</svg>
