<?xml version="1.0" encoding="utf-8"?>
<!-- Generator: Adobe Illustrator 24.0.1, SVG Export Plug-In . SVG Version: 6.00 Build 0)  -->
<svg version="1.0" id="图层_1" xmlns="http://www.w3.org/2000/svg" xmlns:xlink="http://www.w3.org/1999/xlink" x="0px" y="0px"
	 viewBox="0 0 1001.81 323.34" style="enable-background:new 0 0 1001.81 323.34;" xml:space="preserve">
<g>
	<g>
		<path d="M547.41,108.41h-16.32V92.09h16.32V108.41z M532.05,107.45h14.4v-14.4h-14.4V107.45z"/>
	</g>
	<g>
		<path d="M544.21,100.73h-5.44v-5.44h5.44V100.73z M539.73,99.77h3.52v-3.52h-3.52V99.77z"/>
	</g>
	<g>
		<rect x="534.13" y="102.33" width="3.84" height="0.96"/>
	</g>
	<g>
		<rect x="534.13" y="104.89" width="6.4" height="0.96"/>
	</g>
</g>
<g>
	<g>
		<g>
			<polygon points="81.1,168.84 70.81,168.84 70.81,164.33 71.77,164.33 71.77,167.88 80.14,167.88 80.14,164.33 81.1,164.33 			"/>
		</g>
		<g>
			<polygon points="81.1,157.82 80.14,157.82 80.14,154.28 71.77,154.28 71.77,157.82 70.81,157.82 70.81,153.32 81.1,153.32 			"/>
		</g>
	</g>
	<g>
		<g>
			<path d="M73.19,159.67c0.22,0.31,0.34,0.75,0.34,1.31c0,0.59-0.12,1.07-0.36,1.44c-0.25,0.37-0.58,0.56-1,0.56
				c-0.71,0-1.11-0.33-1.2-0.99h0.54c0.07,0.35,0.3,0.53,0.67,0.53c0.25,0,0.45-0.13,0.6-0.37c0.14-0.24,0.22-0.53,0.22-0.89
				c0-0.02,0-0.04,0-0.07h-0.02c-0.1,0.16-0.24,0.28-0.39,0.36c-0.15,0.07-0.32,0.11-0.51,0.11c-0.36,0-0.65-0.12-0.86-0.35
				c-0.21-0.23-0.31-0.52-0.31-0.88c0-0.37,0.12-0.67,0.36-0.9c0.25-0.24,0.55-0.36,0.91-0.36
				C72.62,159.18,72.95,159.34,73.19,159.67z M71.65,159.87c-0.14,0.15-0.21,0.34-0.21,0.57c0,0.24,0.07,0.42,0.21,0.56
				c0.13,0.14,0.31,0.21,0.54,0.21c0.23,0,0.41-0.07,0.54-0.21c0.13-0.14,0.2-0.34,0.2-0.57c0-0.24-0.07-0.43-0.2-0.57
				c-0.14-0.14-0.32-0.21-0.53-0.21C71.97,159.64,71.78,159.71,71.65,159.87z"/>
		</g>
		<g>
			<path d="M75.02,160.39c0.07,0.07,0.11,0.16,0.11,0.27c0,0.1-0.04,0.19-0.11,0.27c-0.08,0.07-0.17,0.11-0.27,0.11
				c-0.11,0-0.2-0.04-0.27-0.11c-0.08-0.08-0.11-0.17-0.11-0.27c0-0.11,0.04-0.2,0.11-0.27c0.07-0.08,0.15-0.11,0.27-0.11
				C74.85,160.28,74.95,160.32,75.02,160.39z M75.02,162.27c0.07,0.07,0.11,0.16,0.11,0.27c0,0.1-0.04,0.19-0.11,0.27
				c-0.08,0.07-0.17,0.11-0.27,0.11c-0.11,0-0.2-0.04-0.27-0.11c-0.08-0.08-0.11-0.17-0.11-0.27c0-0.11,0.04-0.2,0.11-0.27
				c0.07-0.08,0.15-0.11,0.27-0.11C74.85,162.15,74.95,162.19,75.02,162.27z"/>
		</g>
		<g>
			<path d="M77.36,159.25v3.65H76.8v-2.98c-0.22,0.21-0.5,0.36-0.84,0.46v-0.55c0.16-0.04,0.33-0.11,0.52-0.21
				c0.18-0.11,0.34-0.23,0.46-0.36H77.36z"/>
		</g>
		<g>
			<path d="M80.94,160.17H80.4c-0.08-0.36-0.3-0.53-0.66-0.53c-0.26,0-0.46,0.12-0.6,0.37c-0.15,0.24-0.22,0.53-0.22,0.89
				c0,0.02,0,0.04,0,0.07h0.02c0.1-0.16,0.23-0.28,0.39-0.36c0.14-0.08,0.31-0.11,0.51-0.11c0.36,0,0.65,0.11,0.86,0.34
				c0.21,0.23,0.32,0.53,0.32,0.89c0,0.36-0.12,0.67-0.36,0.9c-0.25,0.24-0.55,0.36-0.91,0.36c-0.45,0-0.79-0.16-1.02-0.49
				c-0.23-0.31-0.34-0.75-0.34-1.3c0-0.59,0.12-1.07,0.36-1.44c0.25-0.37,0.58-0.56,1-0.56C80.44,159.18,80.85,159.51,80.94,160.17z
				 M79.18,161.16c-0.13,0.14-0.2,0.33-0.2,0.57c0,0.24,0.07,0.42,0.21,0.57c0.13,0.14,0.31,0.21,0.53,0.21
				c0.22,0,0.4-0.08,0.54-0.23c0.14-0.15,0.21-0.34,0.21-0.57c0-0.24-0.07-0.42-0.2-0.56c-0.13-0.14-0.32-0.21-0.54-0.21
				C79.49,160.94,79.31,161.02,79.18,161.16z"/>
		</g>
	</g>
</g>
<g>
	<g>
		<g>
			<path d="M151.32,158.84v3.65h-0.56v-2.98c-0.22,0.21-0.5,0.36-0.84,0.46v-0.55c0.16-0.04,0.33-0.11,0.52-0.21
				c0.18-0.11,0.34-0.23,0.46-0.36H151.32z"/>
		</g>
		<g>
			<path d="M153.07,159.98c0.07,0.07,0.11,0.16,0.11,0.27c0,0.1-0.04,0.19-0.11,0.27c-0.08,0.07-0.17,0.11-0.27,0.11
				c-0.11,0-0.2-0.04-0.27-0.11c-0.08-0.08-0.11-0.17-0.11-0.27c0-0.11,0.04-0.2,0.11-0.27c0.07-0.08,0.15-0.11,0.27-0.11
				C152.91,159.87,153,159.9,153.07,159.98z M153.07,161.85c0.07,0.07,0.11,0.16,0.11,0.27c0,0.1-0.04,0.19-0.11,0.27
				c-0.08,0.07-0.17,0.11-0.27,0.11c-0.11,0-0.2-0.04-0.27-0.11c-0.08-0.08-0.11-0.17-0.11-0.27c0-0.11,0.04-0.2,0.11-0.27
				c0.07-0.08,0.15-0.11,0.27-0.11C152.91,161.74,153,161.78,153.07,161.85z"/>
		</g>
		<g>
			<path d="M155.41,158.84v3.65h-0.56v-2.98c-0.22,0.21-0.5,0.36-0.84,0.46v-0.55c0.16-0.04,0.33-0.11,0.52-0.21
				c0.18-0.11,0.34-0.23,0.46-0.36H155.41z"/>
		</g>
	</g>
	<g>
		<path d="M161.33,168.83h-16.32v-16.32h16.32V168.83z M145.97,167.87h14.4v-14.4h-14.4V167.87z"/>
	</g>
</g>
<g>
	<path d="M539.3,168.24l-0.33-0.25l-6.51-6.51c-1.87-1.87-1.87-4.91,0-6.79c0.91-0.91,2.11-1.41,3.39-1.41s2.49,0.5,3.39,1.41
		l0.02,0.02l0.02-0.02c0.91-0.91,2.11-1.41,3.39-1.41s2.49,0.5,3.39,1.41c1.87,1.87,1.87,4.91,0,6.79L539.3,168.24z M535.84,154.25
		c-1.03,0-1.99,0.4-2.71,1.12c-1.5,1.5-1.5,3.93,0,5.43l6.12,6.12l6.12-6.12c1.5-1.5,1.5-3.93,0-5.43
		c-0.72-0.73-1.69-1.12-2.71-1.12s-1.99,0.4-2.71,1.12l-0.7,0.7l-0.7-0.7C537.83,154.65,536.87,154.25,535.84,154.25z"/>
</g>
<g>
	<path d="M616.5,168.28c-0.32,0-0.64-0.02-0.96-0.06c-3.46-0.42-6.24-3.25-6.61-6.71c-0.25-2.32,0.55-4.58,2.18-6.22
		s3.91-2.43,6.21-2.18c3.47,0.37,6.29,3.15,6.71,6.61c0.13,1.04,0.05,2.08-0.24,3.07c-0.41,1.41-0.37,2.46,0.15,4.02l0.34,1.02
		l-1.48-0.49c-1.09-0.36-2.49,0.04-3.72,0.49C618.26,168.13,617.39,168.28,616.5,168.28z M616.5,154.02c-1.77,0-3.45,0.69-4.71,1.95
		c-1.43,1.43-2.12,3.41-1.91,5.44c0.32,3.03,2.75,5.49,5.77,5.86c1.07,0.13,2.12,0.01,3.11-0.35c1.28-0.47,2.74-0.89,4.04-0.59
		c-0.35-1.36-0.32-2.46,0.07-3.81c0.25-0.87,0.32-1.77,0.21-2.68c-0.37-3.02-2.83-5.45-5.86-5.77l0,0
		C616.98,154.04,616.74,154.02,616.5,154.02z"/>
</g>
<g>
	<g>
		<path d="M693.69,161.31c-2.43,0-4.41-1.98-4.41-4.41c0-2.43,1.98-4.41,4.41-4.41s4.41,1.98,4.41,4.41
			C698.1,159.33,696.12,161.31,693.69,161.31z M693.69,153.45c-1.9,0-3.45,1.55-3.45,3.45c0,1.9,1.55,3.45,3.45,3.45
			s3.45-1.55,3.45-3.45C697.14,155,695.59,153.45,693.69,153.45z"/>
	</g>
	<g>
		<path d="M700.92,168.85h-14.46v-1.53c0-2.87,2.34-5.21,5.21-5.21h4.04c2.87,0,5.21,2.34,5.21,5.21V168.85z M687.42,167.89h12.54
			v-0.57c0-2.34-1.91-4.25-4.25-4.25h-4.04c-2.34,0-4.25,1.91-4.25,4.25V167.89z"/>
	</g>
</g>
<g>
	<g>
		<path d="M772.55,168.67H764v-0.96h8.55c2.93,0,5.32-2.38,5.32-5.32s-2.38-5.32-5.32-5.32h-8.79v-0.96h8.79
			c3.46,0,6.28,2.82,6.28,6.28S776.01,168.67,772.55,168.67z"/>
	</g>
	<g>
		<polygon points="767.04,160.39 762.66,156.6 767.04,152.81 767.67,153.54 764.13,156.6 767.67,159.67 		"/>
	</g>
</g>
<g>
	<g>
		<rect x="841.14" y="159.43" transform="matrix(0.3135 -0.9496 0.9496 0.3135 430.4939 915.3211)" width="14.37" height="0.96"/>
	</g>
	<g>
		<path d="M843.86,168.81c-0.3,0-0.59-0.05-0.88-0.14c-0.71-0.24-1.29-0.73-1.63-1.4c-0.34-0.67-0.39-1.43-0.16-2.15
			c0.49-1.47,2.08-2.27,3.55-1.79c1.47,0.49,2.27,2.08,1.79,3.55l0,0c-0.24,0.71-0.73,1.29-1.4,1.63
			C844.73,168.71,844.3,168.81,843.86,168.81z M843.86,164.15c-0.78,0-1.5,0.49-1.76,1.27c-0.15,0.47-0.12,0.97,0.1,1.41
			c0.22,0.44,0.6,0.77,1.07,0.92c0.47,0.16,0.97,0.12,1.41-0.1c0.44-0.22,0.77-0.6,0.92-1.07l0,0c0.32-0.97-0.21-2.02-1.18-2.34
			C844.25,164.18,844.05,164.15,843.86,164.15z"/>
	</g>
	<g>
		<rect x="847.43" y="152.73" transform="matrix(0.9496 -0.3135 0.3135 0.9496 -7.389 273.87)" width="0.96" height="14.37"/>
	</g>
	<g>
		<path d="M852.38,168.81c-0.43,0-0.86-0.1-1.26-0.3c-0.67-0.34-1.17-0.92-1.4-1.63l0,0c-0.49-1.47,0.32-3.06,1.79-3.55
			c0.71-0.24,1.47-0.18,2.15,0.16c0.67,0.34,1.17,0.92,1.4,1.63c0.49,1.47-0.32,3.06-1.79,3.55
			C852.97,168.77,852.67,168.81,852.38,168.81z M850.62,166.58c0.16,0.47,0.48,0.85,0.92,1.07c0.44,0.22,0.94,0.26,1.41,0.1
			c0.97-0.32,1.5-1.37,1.18-2.34c-0.16-0.47-0.48-0.85-0.92-1.07c-0.44-0.22-0.94-0.26-1.41-0.1
			C850.83,164.57,850.3,165.61,850.62,166.58L850.62,166.58z"/>
	</g>
</g>
<g>
	<g>
		<rect x="917.7" y="160.19" width="15.27" height="0.96"/>
	</g>
	<g>
		<rect x="924.86" y="153.04" width="0.96" height="15.27"/>
	</g>
</g>
<g>
	<g>
		<path d="M83.61,231.24l-12.12-8.02l12.12-8.02V231.24z M73.23,223.22l9.42,6.23v-12.47L73.23,223.22z"/>
	</g>
	<g>
		<rect x="68.29" y="216.09" width="0.96" height="14.26"/>
	</g>
</g>
<g>
	<path d="M547.41,231.15h-16.32v-16.32h16.32V231.15z M532.05,230.19h14.4v-14.4h-14.4V230.19z"/>
</g>
<g>
	<g>
		<path d="M624.63,222.04h-16.32v-7.21h16.32V222.04z M609.27,221.08h14.4v-5.29h-14.4V221.08z"/>
	</g>
	<g>
		<path d="M624.63,231.15h-16.32v-7.21h16.32V231.15z M609.27,230.19h14.4v-5.29h-14.4V230.19z"/>
	</g>
</g>
<g>
	<g>
		<path d="M701.85,222.04h-16.32v-7.21h16.32V222.04z M686.49,221.08h14.4v-5.29h-14.4V221.08z"/>
	</g>
	<g>
		<path d="M692.73,231.15h-7.2v-7.21h7.2V231.15z M686.49,230.19h5.29v-5.29h-5.29V230.19z"/>
	</g>
	<g>
		<path d="M701.85,231.15h-7.2v-7.21h7.2V231.15z M695.6,230.19h5.29v-5.29h-5.29V230.19z"/>
	</g>
</g>
<g>
	<g>
		<path d="M769.95,231.15h-7.2v-7.21h7.2V231.15z M763.7,230.19h5.29v-5.29h-5.29V230.19z"/>
	</g>
	<g>
		<path d="M779.06,231.15h-7.2v-7.21h7.2V231.15z M772.82,230.19h5.29v-5.29h-5.29V230.19z"/>
	</g>
	<g>
		<path d="M769.95,222.04h-7.2v-7.21h7.2V222.04z M763.7,221.08h5.29v-5.29h-5.29V221.08z"/>
	</g>
	<g>
		<path d="M779.06,222.04h-7.2v-7.21h7.2V222.04z M772.82,221.08h5.29v-5.29h-5.29V221.08z"/>
	</g>
</g>
<g>
	<g>
		<path d="M856.28,231.15h-16.32v-16.32h16.32V231.15z M840.92,230.19h14.4v-14.4h-14.4V230.19z"/>
	</g>
	<g>
		<rect x="843.5" y="219" width="9.24" height="0.96"/>
	</g>
	<g>
		<rect x="847.64" y="219.48" width="0.96" height="7.56"/>
	</g>
</g>
<g>
	<g>
		<path d="M161.15,226.75h-15.95v-7.52h15.95V226.75z M146.15,225.79h14.03v-5.6h-14.03V225.79z"/>
	</g>
	<g>
		<g>
			<polygon points="146.15,218.47 145.19,218.47 145.19,214.83 147.27,214.83 147.27,215.79 146.15,215.79 			"/>
		</g>
		<g>
			<path d="M157.38,215.79h-3.37v-0.96h3.37V215.79z M152.33,215.79h-3.37v-0.96h3.37V215.79z"/>
		</g>
		<g>
			<polygon points="161.15,218.47 160.19,218.47 160.19,215.79 159.07,215.79 159.07,214.83 161.15,214.83 			"/>
		</g>
	</g>
	<g>
		<g>
			<polygon points="161.15,231.15 159.07,231.15 159.07,230.19 160.19,230.19 160.19,227.51 161.15,227.51 			"/>
		</g>
		<g>
			<path d="M157.38,231.15h-3.37v-0.96h3.37V231.15z M152.33,231.15h-3.37v-0.96h3.37V231.15z"/>
		</g>
		<g>
			<polygon points="147.27,231.15 145.19,231.15 145.19,227.51 146.15,227.51 146.15,230.19 147.27,230.19 			"/>
		</g>
	</g>
</g>
<g>
	<g>
		<polygon points="224.81,231.4 222.13,228.73 222.81,228.05 223.85,229.09 223.85,215.86 224.81,215.86 		"/>
	</g>
	<g>
		<rect x="227.27" y="215.96" width="10.94" height="0.96"/>
	</g>
	<g>
		<rect x="227.27" y="222.93" width="10.94" height="0.96"/>
	</g>
	<g>
		<rect x="227.27" y="229.9" width="10.94" height="0.96"/>
	</g>
</g>
<g>
	<g>
		<rect x="299.92" y="217.58" width="15.36" height="0.96"/>
	</g>
	<g>
		<rect x="304.97" y="215.38" width="5.26" height="0.96"/>
	</g>
	<g>
		<g>
			<rect x="305.54" y="221.88" width="0.96" height="3.61"/>
		</g>
		<g>
			<rect x="308.71" y="221.88" width="0.96" height="3.61"/>
		</g>
	</g>
	<g>
		<polygon points="312.35,230.6 302.86,230.6 302.24,218.08 303.2,218.04 303.77,229.64 311.43,229.64 312.01,218.04 312.97,218.08 
					"/>
	</g>
</g>
<g>
	<g>
		<rect x="380.25" y="225.19" transform="matrix(0.4479 -0.8941 0.8941 0.4479 10.3674 468.1184)" width="7.92" height="0.96"/>
	</g>
	<g>
		<rect x="388.02" y="215.73" transform="matrix(0.4479 -0.8941 0.8941 0.4479 21.4335 467.1329)" width="1.84" height="0.96"/>
	</g>
	<g>
		<path d="M380.08,231.14c-0.48,0-0.95-0.11-1.39-0.33c-1.53-0.77-2.15-2.64-1.39-4.17c0.77-1.53,2.64-2.15,4.17-1.39
			c1.53,0.77,2.15,2.64,1.39,4.17v0c-0.37,0.74-1.01,1.29-1.8,1.56C380.74,231.08,380.41,231.14,380.08,231.14z M380.09,225.88
			c-0.79,0-1.55,0.43-1.92,1.19c-0.53,1.06-0.1,2.35,0.96,2.88c1.06,0.53,2.35,0.1,2.88-0.96c0.53-1.06,0.1-2.35-0.96-2.88
			C380.74,225.96,380.41,225.88,380.09,225.88z"/>
	</g>
	<g>
		<g>
			<rect x="382.93" y="214.57" transform="matrix(0.8941 -0.4479 0.4479 0.8941 -58.958 195.2635)" width="0.96" height="15.45"/>
		</g>
		<g>
			<path d="M389.22,231.14c-1.14,0-2.24-0.63-2.78-1.71c-0.37-0.74-0.43-1.58-0.17-2.37c0.26-0.79,0.81-1.43,1.56-1.8
				c1.53-0.77,3.4-0.15,4.17,1.39c0.77,1.53,0.15,3.4-1.39,4.17C390.16,231.03,389.69,231.14,389.22,231.14z M389.21,225.88
				c-0.32,0-0.65,0.07-0.96,0.23c-0.51,0.26-0.89,0.7-1.08,1.24c-0.18,0.54-0.14,1.13,0.12,1.64c0.53,1.06,1.82,1.49,2.88,0.96
				c1.06-0.53,1.49-1.82,0.96-2.88C390.76,226.32,390,225.88,389.21,225.88z"/>
		</g>
	</g>
	<g>
		<path d="M386.56,217.95v3.26h-0.53v-2.62c-0.2,0.18-0.44,0.31-0.74,0.4v-0.53c0.15-0.04,0.3-0.1,0.47-0.19
			c0.16-0.1,0.3-0.21,0.41-0.32H386.56z"/>
		<path d="M389.23,218.36c0.2,0.3,0.3,0.71,0.3,1.22c0,0.51-0.1,0.92-0.3,1.22c-0.21,0.32-0.51,0.47-0.89,0.47
			c-0.38,0-0.68-0.16-0.89-0.47c-0.2-0.3-0.3-0.71-0.3-1.22c0-0.51,0.1-0.92,0.3-1.22c0.21-0.32,0.51-0.47,0.89-0.47
			C388.72,217.89,389.02,218.04,389.23,218.36z M387.79,218.77c-0.07,0.2-0.11,0.47-0.11,0.81c0,0.34,0.04,0.61,0.11,0.81
			c0.1,0.29,0.29,0.43,0.55,0.43c0.26,0,0.44-0.15,0.55-0.43c0.07-0.2,0.11-0.47,0.11-0.81c0-0.34-0.04-0.61-0.11-0.81
			c-0.11-0.29-0.29-0.43-0.55-0.43C388.08,218.34,387.9,218.48,387.79,218.77z"/>
		<path d="M391.9,219.54h-0.51c-0.04-0.12-0.09-0.21-0.16-0.25c-0.08-0.05-0.2-0.07-0.36-0.07c-0.14,0-0.24,0.02-0.31,0.06
			c-0.08,0.04-0.12,0.11-0.12,0.2c0,0.07,0.06,0.14,0.19,0.2c0.08,0.03,0.23,0.08,0.47,0.14c0.26,0.06,0.47,0.14,0.59,0.22
			c0.19,0.12,0.28,0.29,0.28,0.5c0,0.5-0.36,0.75-1.06,0.75c-0.66,0-1.01-0.28-1.06-0.83h0.51c0.03,0.15,0.08,0.26,0.16,0.32
			c0.08,0.05,0.2,0.09,0.37,0.09c0.36,0,0.55-0.1,0.55-0.29c0-0.11-0.07-0.2-0.21-0.26c-0.07-0.04-0.23-0.08-0.47-0.13
			c-0.28-0.06-0.48-0.13-0.59-0.21c-0.18-0.11-0.27-0.27-0.27-0.48c0-0.22,0.09-0.39,0.27-0.51c0.18-0.13,0.41-0.19,0.7-0.19
			C391.5,218.79,391.84,219.03,391.9,219.54z"/>
	</g>
</g>
<g>
	<g>
		<path d="M454.38,231.01v-16.04l12.12,8.02L454.38,231.01z M455.34,216.76v12.47l9.42-6.23L455.34,216.76z"/>
	</g>
	<g>
		<rect x="468.73" y="215.86" width="0.96" height="14.26"/>
	</g>
</g>
<g>
	<g>
		<g>
			<path d="M226.72,158.84v3.65h-0.56v-2.98c-0.22,0.21-0.5,0.36-0.84,0.46v-0.55c0.16-0.04,0.33-0.11,0.52-0.21
				c0.18-0.11,0.34-0.23,0.46-0.36H226.72z"/>
		</g>
		<g>
			<path d="M230.3,159.76h-0.54c-0.08-0.36-0.3-0.53-0.66-0.53c-0.26,0-0.46,0.12-0.6,0.37c-0.15,0.24-0.22,0.53-0.22,0.89
				c0,0.02,0,0.04,0,0.07h0.02c0.1-0.16,0.23-0.28,0.39-0.36c0.14-0.08,0.31-0.11,0.51-0.11c0.36,0,0.64,0.11,0.86,0.34
				c0.21,0.23,0.32,0.53,0.32,0.89c0,0.36-0.12,0.67-0.36,0.9c-0.25,0.24-0.55,0.36-0.91,0.36c-0.45,0-0.79-0.16-1.02-0.49
				c-0.22-0.31-0.34-0.75-0.34-1.3c0-0.59,0.12-1.07,0.36-1.44c0.25-0.37,0.58-0.56,1-0.56C229.8,158.77,230.21,159.1,230.3,159.76z
				 M228.53,160.75c-0.13,0.14-0.2,0.33-0.2,0.57c0,0.24,0.07,0.42,0.21,0.57c0.13,0.14,0.31,0.21,0.53,0.21
				c0.23,0,0.4-0.08,0.54-0.23c0.14-0.15,0.21-0.34,0.21-0.57c0-0.24-0.07-0.42-0.2-0.56c-0.13-0.14-0.32-0.21-0.54-0.21
				C228.85,160.54,228.67,160.61,228.53,160.75z"/>
		</g>
		<g>
			<path d="M231.86,159.98c0.07,0.07,0.11,0.16,0.11,0.27c0,0.1-0.04,0.19-0.11,0.27c-0.08,0.07-0.17,0.11-0.27,0.11
				c-0.11,0-0.2-0.04-0.27-0.11c-0.08-0.08-0.11-0.17-0.11-0.27c0-0.11,0.04-0.2,0.11-0.27c0.07-0.08,0.15-0.11,0.27-0.11
				C231.69,159.87,231.78,159.91,231.86,159.98z M231.86,161.86c0.07,0.07,0.11,0.16,0.11,0.27c0,0.1-0.04,0.19-0.11,0.27
				c-0.08,0.07-0.17,0.11-0.27,0.11c-0.11,0-0.2-0.04-0.27-0.11c-0.08-0.08-0.11-0.17-0.11-0.27c0-0.11,0.04-0.2,0.11-0.27
				c0.07-0.08,0.15-0.11,0.27-0.11C231.69,161.75,231.78,161.78,231.86,161.86z"/>
		</g>
		<g>
			<path d="M235.1,159.26c0.23,0.31,0.34,0.75,0.34,1.31c0,0.59-0.12,1.07-0.36,1.44c-0.25,0.37-0.58,0.56-1,0.56
				c-0.71,0-1.11-0.33-1.2-0.99h0.54c0.07,0.35,0.3,0.53,0.67,0.53c0.25,0,0.45-0.13,0.6-0.37c0.14-0.24,0.22-0.53,0.22-0.89
				c0-0.02-0.01-0.04-0.01-0.07h-0.02c-0.1,0.16-0.24,0.28-0.39,0.36c-0.15,0.07-0.32,0.11-0.51,0.11c-0.36,0-0.65-0.12-0.87-0.35
				c-0.21-0.23-0.31-0.52-0.31-0.88c0-0.37,0.12-0.67,0.36-0.9c0.25-0.24,0.55-0.36,0.91-0.36
				C234.53,158.77,234.87,158.93,235.1,159.26z M233.56,159.46c-0.14,0.15-0.21,0.34-0.21,0.57c0,0.24,0.07,0.42,0.21,0.56
				c0.13,0.14,0.31,0.21,0.54,0.21c0.23,0,0.41-0.07,0.54-0.21c0.13-0.14,0.2-0.34,0.2-0.57c0-0.24-0.07-0.43-0.21-0.57
				c-0.14-0.14-0.32-0.21-0.53-0.21C233.88,159.23,233.7,159.3,233.56,159.46z"/>
		</g>
	</g>
	<g>
		<path d="M238.64,165.52h-16.51v-9.71h16.51V165.52z M223.09,164.56h14.59v-7.79h-14.59V164.56z"/>
	</g>
</g>
<g>
	<g>
		<polygon points="314.02,168.75 301.19,168.75 301.19,158.85 306.4,158.85 306.4,159.65 301.99,159.65 301.99,167.95 
			313.22,167.95 313.22,159.65 308.8,159.65 308.8,158.85 314.02,158.85 		"/>
	</g>
	<g>
		<polygon points="312.22,158.13 307.6,153.52 302.99,158.13 302.42,157.57 307.6,152.39 312.78,157.57 		"/>
	</g>
	<g>
		<rect x="307.2" y="152.95" width="0.8" height="11.77"/>
	</g>
</g>
<g>
	<g>
		<path d="M392.92,168.77h-16.19v-16.19h12.55l3.64,3.64V168.77z M377.52,167.97h14.59v-11.42l-3.17-3.17h-11.42V167.97z"/>
	</g>
	<g>
		<path d="M387.82,157.54h-7.59v-4.96h7.59V157.54z M381.04,156.74h5.99v-3.36h-5.99V156.74z"/>
	</g>
	<g>
		<path d="M387.82,168.77h-7.59v-4.96h7.59V168.77z M381.04,167.97h5.99v-3.36h-5.99V167.97z"/>
	</g>
</g>
<g>
	<g>
		<path d="M462.04,168.83c-4.5,0-8.16-3.66-8.16-8.16c0-4.5,3.66-8.16,8.16-8.16c4.5,0,8.16,3.66,8.16,8.16
			C470.19,165.17,466.54,168.83,462.04,168.83z M462.04,153.47c-3.97,0-7.2,3.23-7.2,7.2s3.23,7.2,7.2,7.2c3.97,0,7.2-3.23,7.2-7.2
			S466.01,153.47,462.04,153.47z"/>
	</g>
	<g>
		<path d="M457.86,164.84l2.67-5.68l5.68-2.67l-2.67,5.68L457.86,164.84z M461.26,159.89l-1.39,2.95l2.95-1.39l1.39-2.95
			L461.26,159.89z"/>
	</g>
</g>
<g>
	<polygon points="77.72,108.22 69.75,100.25 77.72,92.29 78.4,92.96 71.11,100.25 78.4,107.54 	"/>
</g>
<g>
	<g>
		<polygon points="152.43,100.73 146.16,100.73 150.24,92.04 151.11,92.45 147.67,99.77 152.43,99.77 		"/>
	</g>
	<g>
		<polygon points="149.1,108.46 148.23,108.05 151.67,100.73 146.92,100.73 146.92,99.77 153.18,99.77 		"/>
	</g>
	<g>
		<path d="M156.55,108.26c-0.84,0-1.68-0.32-2.32-0.96c-1.28-1.28-1.28-3.36,0-4.64c1.28-1.28,3.36-1.28,4.64,0
			c1.28,1.28,1.28,3.36,0,4.64h0C158.23,107.94,157.39,108.26,156.55,108.26z M156.55,102.67c-0.59,0-1.19,0.23-1.64,0.68
			c-0.9,0.9-0.9,2.38,0,3.28c0.9,0.91,2.38,0.9,3.28,0h0c0.9-0.9,0.9-2.38,0-3.28C157.74,102.89,157.15,102.67,156.55,102.67z"/>
	</g>
	<g>
		<rect x="153.83" y="104.47" transform="matrix(0.7075 -0.7067 0.7067 0.7075 -28.3729 141.3548)" width="5.51" height="0.96"/>
	</g>
</g>
<g>
	<g>
		<path d="M229.36,99.22h-6.97v-6.97h6.97V99.22z M223.35,98.26h5.05v-5.05h-5.05V98.26z"/>
	</g>
	<g>
		<path d="M229.36,108.25h-6.97v-6.97h6.97V108.25z M223.35,107.29h5.05v-5.05h-5.05V107.29z"/>
	</g>
	<g>
		<path d="M238.39,99.24h-6.97v-6.97h6.97V99.24z M232.37,98.28h5.05v-5.05h-5.05V98.28z"/>
	</g>
	<g>
		<path d="M238.39,108.25h-6.97v-6.97h6.97V108.25z M232.37,107.29h5.05v-5.05h-5.05V107.29z"/>
	</g>
</g>
<g>
	<g>
		<g>
			<path d="M313.71,99.37c-0.44-3.02-3.07-5.29-6.12-5.29c-2.1,0-4.04,1.06-5.19,2.82l-0.8-0.52c1.32-2.04,3.57-3.26,6-3.26
				c3.53,0,6.57,2.63,7.07,6.11L313.71,99.37z"/>
		</g>
		<g>
			<polygon points="314.45,99.98 311.4,98.59 311.8,97.72 313.97,98.71 314.96,96.54 315.83,96.94 			"/>
		</g>
	</g>
	<g>
		<g>
			<path d="M307.62,107.38c-3.53,0-6.57-2.63-7.07-6.11l0.95-0.14c0.44,3.02,3.07,5.29,6.12,5.29c2.1,0,4.04-1.06,5.19-2.82
				l0.8,0.52C312.29,106.16,310.05,107.38,307.62,107.38z"/>
		</g>
		<g>
			<polygon points="300.24,103.96 299.37,103.56 300.76,100.52 303.8,101.91 303.4,102.78 301.23,101.79 			"/>
		</g>
	</g>
</g>
<g>
	<g>
		<polygon points="378.24,96.71 377.28,96.71 377.28,92.71 381.28,92.71 381.28,93.67 378.24,93.67 		"/>
	</g>
	<g>
		<polygon points="381.28,107.79 377.28,107.79 377.28,103.79 378.24,103.79 378.24,106.83 381.28,106.83 		"/>
	</g>
	<g>
		<polygon points="392.36,96.73 391.4,96.73 391.4,93.68 388.36,93.68 388.36,92.72 392.36,92.72 		"/>
	</g>
	<g>
		<polygon points="392.36,107.79 388.36,107.79 388.36,106.83 391.4,106.83 391.4,103.79 392.36,103.79 		"/>
	</g>
</g>
<g>
	<polygon points="459.6,106.13 453.81,100.34 454.49,99.66 459.6,104.77 469.58,94.79 470.26,95.47 	"/>
</g>
<g>
	<g>
		<path d="M624.63,108.41h-16.32V92.09h16.32V108.41z M609.27,107.45h14.4v-14.4h-14.4V107.45z"/>
	</g>
	<g>
		<g>
			<path d="M613.48,97.86v4.69h-0.72v-3.83c-0.28,0.27-0.64,0.47-1.08,0.59V98.6c0.21-0.05,0.43-0.14,0.66-0.28
				c0.24-0.14,0.43-0.3,0.59-0.47H613.48z"/>
		</g>
		<g>
			<path d="M617.54,97.86v0.63h-2.25l-0.14,1.35h0.02c0.14-0.15,0.31-0.26,0.5-0.32c0.17-0.07,0.37-0.11,0.58-0.11
				c0.44,0,0.8,0.14,1.08,0.43c0.28,0.29,0.42,0.68,0.42,1.19c0,0.49-0.18,0.88-0.54,1.19c-0.34,0.28-0.74,0.41-1.2,0.41
				c-0.42,0-0.78-0.12-1.09-0.35c-0.33-0.25-0.52-0.6-0.55-1.03h0.7c0.03,0.26,0.13,0.47,0.31,0.6c0.16,0.12,0.37,0.18,0.63,0.18
				c0.29,0,0.53-0.09,0.73-0.27c0.2-0.18,0.3-0.42,0.3-0.72c0-0.33-0.09-0.58-0.26-0.77c-0.17-0.18-0.41-0.28-0.72-0.28
				c-0.21,0-0.39,0.03-0.55,0.11c-0.17,0.08-0.3,0.2-0.39,0.37h-0.67l0.26-2.63H617.54z"/>
		</g>
		<g>
			<path d="M621.14,100.13h-0.68c-0.05-0.18-0.13-0.31-0.24-0.38c-0.12-0.08-0.3-0.12-0.54-0.12c-0.21,0-0.37,0.03-0.47,0.09
				c-0.12,0.07-0.18,0.17-0.18,0.3c0,0.12,0.09,0.22,0.28,0.3c0.12,0.05,0.34,0.12,0.68,0.2c0.39,0.09,0.68,0.2,0.86,0.32
				c0.27,0.17,0.41,0.41,0.41,0.71c0,0.72-0.51,1.08-1.51,1.08c-0.93,0-1.43-0.4-1.51-1.19h0.68c0.04,0.23,0.12,0.39,0.24,0.49
				c0.12,0.09,0.3,0.13,0.57,0.13c0.54,0,0.81-0.16,0.81-0.46c0-0.16-0.1-0.3-0.3-0.39c-0.11-0.05-0.34-0.12-0.68-0.2
				c-0.4-0.09-0.68-0.19-0.84-0.3c-0.26-0.16-0.39-0.39-0.39-0.68c0-0.31,0.12-0.55,0.38-0.72c0.26-0.18,0.59-0.26,1-0.26
				C620.58,99.06,621.07,99.42,621.14,100.13z"/>
		</g>
	</g>
</g>
<g>
	<g>
		<polygon points="691.41,105.45 690.45,105.45 690.45,93.39 701.21,92.05 701.21,105.14 700.25,105.14 700.25,93.13 691.41,94.24 
					"/>
	</g>
	<g>
		<rect x="690.89" y="97.01" transform="matrix(0.9923 -0.1237 0.1237 0.9923 -6.7154 86.8469)" width="9.87" height="0.96"/>
	</g>
	<g>
		<path d="M688.79,108.38c-1.45,0-2.62-1.18-2.62-2.62c0-1.45,1.18-2.62,2.62-2.62s2.62,1.18,2.62,2.62
			C691.41,107.2,690.23,108.38,688.79,108.38z M688.79,104.09c-0.92,0-1.66,0.75-1.66,1.66c0,0.92,0.75,1.66,1.66,1.66
			c0.92,0,1.66-0.75,1.66-1.66C690.45,104.84,689.71,104.09,688.79,104.09z"/>
	</g>
	<g>
		<path d="M698.58,107.76c-1.45,0-2.62-1.18-2.62-2.62c0-1.45,1.18-2.62,2.62-2.62c1.45,0,2.62,1.18,2.62,2.62
			C701.21,106.59,700.03,107.76,698.58,107.76z M698.58,103.48c-0.92,0-1.66,0.75-1.66,1.66c0,0.92,0.75,1.66,1.66,1.66
			c0.92,0,1.66-0.75,1.66-1.66C700.25,104.22,699.5,103.48,698.58,103.48z"/>
	</g>
</g>
<g>
	<g>
		<path d="M774.45,107.94c-1.62,0-3.14-0.87-3.96-2.27l-0.14-0.24l0.14-0.24c0.33-0.56,0.51-1.2,0.51-1.85
			c0-0.65-0.18-1.29-0.51-1.85l-0.14-0.24l0.14-0.24c0.83-1.4,2.35-2.27,3.96-2.27c2.54,0,4.61,2.07,4.61,4.61
			C779.06,105.88,776.99,107.94,774.45,107.94z M771.46,105.41c0.68,0.98,1.8,1.57,2.99,1.57c2.01,0,3.65-1.64,3.65-3.65
			c0-2.01-1.64-3.65-3.65-3.65c-1.19,0-2.32,0.6-2.99,1.57c0.33,0.64,0.5,1.35,0.5,2.07C771.96,104.06,771.79,104.77,771.46,105.41z
			"/>
	</g>
	<g>
		<path d="M770.92,101.77c-2.5-0.03-4.54-2.1-4.54-4.6c0-2.54,2.07-4.61,4.6-4.61c2.54,0,4.61,2.07,4.61,4.61
			c0,0.8-0.21,1.59-0.61,2.29l-0.14,0.25l-0.29-0.01l-0.08-0.49l-0.01,0.48c-1.2,0-2.33,0.6-3,1.59l0.23,0.48L770.92,101.77z
			 M770.98,93.52c-2.01,0-3.65,1.64-3.65,3.65c0,1.88,1.45,3.44,3.29,3.62c0.82-1.22,2.18-1.99,3.65-2.05
			c0.24-0.49,0.36-1.03,0.36-1.57C774.63,95.15,772.99,93.52,770.98,93.52z"/>
	</g>
	<g>
		<path d="M767.35,107.94c-2.54,0-4.6-2.07-4.6-4.61c0-2.54,2.07-4.61,4.6-4.61l0.34,0.02l0.14,0.23c0.65,1.13,1.81,1.81,3.09,1.83
			l-0.01,0.42l0.39-0.23l0,0c0,0.01,0.01,0.02,0.01,0.03l0.41,0.71l-0.08,0c0.19,0.51,0.29,1.05,0.29,1.6
			C771.96,105.88,769.89,107.94,767.35,107.94z M767.16,99.7c-1.95,0.12-3.45,1.71-3.45,3.63c0,2.01,1.64,3.65,3.65,3.65
			c2.01,0,3.65-1.64,3.65-3.65c0-0.55-0.13-1.09-0.37-1.58C769.22,101.65,767.95,100.9,767.16,99.7z"/>
	</g>
</g>
<g>
	<g>
		<path d="M848.31,108.27c-4.42,0-8.02-3.6-8.02-8.02c0-4.42,3.6-8.02,8.02-8.02c4.42,0,8.02,3.6,8.02,8.02
			C856.33,104.67,852.73,108.27,848.31,108.27z M848.31,93.19c-3.89,0-7.06,3.17-7.06,7.06c0,3.89,3.17,7.06,7.06,7.06
			c3.89,0,7.06-3.17,7.06-7.06C855.37,96.36,852.2,93.19,848.31,93.19z"/>
	</g>
	<g>
		<g>
			<circle cx="845.49" cy="100.6" r="0.71"/>
		</g>
		<g>
			<circle cx="851.13" cy="100.6" r="0.71"/>
		</g>
	</g>
	<g>
		<path d="M848.79,101.36h-0.96v-3.11c0-1.07-0.87-1.94-1.94-1.94h-1.19v-0.96h1.19c1.6,0,2.9,1.3,2.9,2.9V101.36z"/>
	</g>
	<g>
		<path d="M848.31,104.86c-1.09,0-2.02-0.75-2.16-1.73l0.95-0.14c0.07,0.52,0.59,0.91,1.21,0.91c0.61,0,1.13-0.39,1.21-0.91
			l0.95,0.14C850.33,104.12,849.4,104.86,848.31,104.86z"/>
	</g>
</g>
<g>
	<g>
		<path d="M925.34,105.55c-2.92,0-5.3-2.38-5.3-5.3s2.38-5.3,5.3-5.3s5.3,2.38,5.3,5.3S928.27,105.55,925.34,105.55z M925.34,95.74
			c-2.48,0-4.5,2.02-4.5,4.5s2.02,4.5,4.5,4.5s4.5-2.02,4.5-4.5S927.83,95.74,925.34,95.74z"/>
	</g>
	<g>
		<path d="M924.55,108.28c-0.01,0-0.03,0-0.04,0c-0.28-0.03-0.56-0.07-0.83-0.13c-0.22-0.05-0.35-0.26-0.31-0.47
			c0.05-0.22,0.26-0.35,0.47-0.31c0.25,0.05,0.5,0.09,0.75,0.12c0.22,0.02,0.38,0.22,0.36,0.44
			C924.92,108.13,924.75,108.28,924.55,108.28z M926.94,108.16c-0.18,0-0.35-0.13-0.39-0.32c-0.05-0.22,0.09-0.43,0.31-0.47
			c0.25-0.05,0.5-0.12,0.74-0.2c0.21-0.07,0.44,0.05,0.5,0.26c0.07,0.21-0.05,0.44-0.26,0.5c-0.27,0.09-0.54,0.16-0.82,0.22
			C927,108.15,926.97,108.16,926.94,108.16z M921.51,107.3c-0.07,0-0.14-0.02-0.2-0.05c-0.25-0.14-0.48-0.3-0.71-0.46
			c-0.18-0.13-0.22-0.38-0.09-0.56c0.13-0.18,0.38-0.22,0.56-0.09c0.2,0.15,0.42,0.29,0.64,0.41c0.19,0.11,0.26,0.36,0.15,0.55
			C921.78,107.23,921.65,107.3,921.51,107.3z M929.86,106.86c-0.12,0-0.25-0.06-0.32-0.16c-0.13-0.18-0.09-0.43,0.09-0.56
			c0.21-0.15,0.4-0.31,0.59-0.48c0.16-0.15,0.42-0.14,0.56,0.03c0.15,0.16,0.14,0.42-0.03,0.57c-0.21,0.19-0.43,0.37-0.66,0.53
			C930.02,106.83,929.94,106.86,929.86,106.86z M919.14,105.17c-0.12,0-0.24-0.06-0.32-0.16c-0.17-0.23-0.32-0.46-0.46-0.71
			c-0.11-0.19-0.05-0.44,0.15-0.55c0.19-0.11,0.44-0.05,0.55,0.15c0.13,0.22,0.27,0.43,0.42,0.64c0.13,0.18,0.09,0.43-0.09,0.56
			C919.3,105.14,919.22,105.17,919.14,105.17z M931.99,104.48c-0.07,0-0.14-0.02-0.2-0.05c-0.19-0.11-0.26-0.36-0.15-0.55
			c0.13-0.22,0.24-0.45,0.35-0.68c0.09-0.2,0.33-0.29,0.53-0.2c0.2,0.09,0.29,0.33,0.2,0.53c-0.12,0.26-0.24,0.51-0.38,0.75
			C932.27,104.41,932.13,104.48,931.99,104.48z M917.83,102.26c-0.18,0-0.35-0.13-0.39-0.32c-0.06-0.27-0.1-0.55-0.13-0.83
			c-0.02-0.22,0.14-0.42,0.35-0.44c0.22-0.02,0.42,0.13,0.44,0.35c0.03,0.25,0.07,0.51,0.12,0.75c0.05,0.22-0.09,0.43-0.31,0.47
			C917.89,102.25,917.86,102.26,917.83,102.26z M932.98,101.45c-0.01,0-0.03,0-0.04,0c-0.22-0.02-0.38-0.22-0.36-0.44
			c0.03-0.25,0.04-0.5,0.04-0.76c0-0.22,0.18-0.42,0.4-0.42c0.22,0,0.4,0.16,0.4,0.38h-0.4l0.4,0.01c0,0.31-0.01,0.59-0.04,0.87
			C933.36,101.29,933.18,101.45,932.98,101.45z M917.83,99.07c-0.03,0-0.06,0-0.08-0.01c-0.22-0.05-0.35-0.26-0.31-0.47
			c0.06-0.28,0.13-0.55,0.22-0.82c0.07-0.21,0.29-0.33,0.5-0.26c0.21,0.07,0.33,0.29,0.26,0.5c-0.08,0.24-0.14,0.49-0.2,0.74
			C918.18,98.94,918.01,99.07,917.83,99.07z M932.64,98.24c-0.17,0-0.32-0.11-0.38-0.27c-0.08-0.24-0.17-0.48-0.28-0.71
			c-0.09-0.2,0-0.44,0.2-0.53c0.2-0.09,0.44,0,0.53,0.2c0.11,0.26,0.22,0.52,0.31,0.79c0.07,0.21-0.04,0.44-0.25,0.51
			C932.72,98.24,932.68,98.24,932.64,98.24z M919.12,96.15c-0.08,0-0.16-0.02-0.23-0.08c-0.18-0.13-0.22-0.38-0.09-0.56
			c0.17-0.23,0.34-0.45,0.53-0.66c0.15-0.16,0.4-0.18,0.56-0.03c0.16,0.15,0.18,0.4,0.03,0.56c-0.17,0.19-0.33,0.39-0.48,0.59
			C919.36,96.09,919.24,96.15,919.12,96.15z M931.03,95.49c-0.11,0-0.22-0.04-0.3-0.13c-0.17-0.19-0.35-0.37-0.54-0.54
			c-0.16-0.15-0.18-0.4-0.03-0.56c0.15-0.16,0.4-0.18,0.56-0.03c0.21,0.19,0.41,0.39,0.6,0.6c0.15,0.16,0.14,0.42-0.03,0.56
			C931.22,95.45,931.13,95.49,931.03,95.49z M921.48,94c-0.14,0-0.27-0.07-0.35-0.2c-0.11-0.19-0.05-0.44,0.14-0.55
			c0.24-0.14,0.49-0.27,0.75-0.39c0.2-0.09,0.44,0,0.53,0.2c0.09,0.2,0,0.44-0.2,0.53c-0.23,0.1-0.46,0.22-0.68,0.35
			C921.62,93.99,921.55,94,921.48,94z M928.44,93.62c-0.05,0-0.11-0.01-0.16-0.03c-0.23-0.1-0.47-0.19-0.71-0.27
			c-0.21-0.07-0.33-0.29-0.26-0.5c0.07-0.21,0.29-0.32,0.5-0.26c0.27,0.09,0.53,0.19,0.79,0.3c0.2,0.09,0.29,0.33,0.2,0.53
			C928.74,93.53,928.6,93.62,928.44,93.62z M924.51,93.01c-0.2,0-0.38-0.15-0.4-0.36c-0.02-0.22,0.14-0.42,0.36-0.44
			c0.28-0.03,0.56-0.05,0.84-0.05h0c0.22,0,0.4,0.18,0.4,0.4c0,0.22-0.18,0.4-0.4,0.4c-0.26,0-0.51,0.01-0.76,0.04
			C924.54,93.01,924.53,93.01,924.51,93.01z"/>
	</g>
	<g>
		<path d="M925.34,102.78c-1.39,0-2.53-1.13-2.53-2.53s1.14-2.53,2.53-2.53s2.53,1.13,2.53,2.53S926.74,102.78,925.34,102.78z
			 M925.34,98.52c-0.95,0-1.73,0.78-1.73,1.73s0.78,1.73,1.73,1.73s1.73-0.78,1.73-1.73S926.3,98.52,925.34,98.52z"/>
	</g>
</g>
</svg>
