<?xml version="1.0" encoding="utf-8"?>
<!-- Generator: Adobe Illustrator 23.0.1, SVG Export Plug-In . SVG Version: 6.00 Build 0)  -->
<svg version="1.0" id="图层_1" xmlns="http://www.w3.org/2000/svg" xmlns:xlink="http://www.w3.org/1999/xlink" x="0px" y="0px"
	 viewBox="0 0 318 73" style="enable-background:new 0 0 318 73;" xml:space="preserve">
<g>
	<path d="M35.67,16.66h1.44v1.44v3.67v1.44h-1.44H28v10.02h4h1.42v1.44v3.68v1.42H32h-4v10.04h7.67h1.44v1.42v3.68v1.44h-1.44H22.89
		h-1.41V54.9V18.1v-1.44h1.41H35.67z"/>
	<path d="M54.04,16.69h1.05l0.32,1l2.28,7.53l0.94,3.13l0.96-3.13l2.28-7.53l0.3-1h1.07h3.84h1.92l-0.55,1.83L62.99,36.5l5.46,17.99
		l0.55,1.85h-1.92h-3.84h-1.07l-0.3-1l-2.28-7.53l-0.96-3.15l-0.94,3.15l-2.28,7.53l-0.32,1h-1.05h-3.83h-1.94l0.57-1.85l5.43-17.99
		l-5.43-17.99l-0.57-1.83h1.94H54.04z"/>
	<path d="M82.07,56.34h-1.42V54.9V38.35v-8.29V18.1v-1.44h1.42h3.7h2.28c2.68,0,4.97,0.95,6.87,2.85s2.85,4.19,2.85,6.87v7.35
		c0,2.68-0.95,4.97-2.85,6.87s-4.19,2.85-6.87,2.85h-0.87V54.9v1.44h-1.42H82.07z M87.18,36.91h0.87c0.87,0,1.61-0.31,2.24-0.94
		c0.62-0.59,0.94-1.34,0.94-2.24v-7.35c0-0.88-0.31-1.63-0.94-2.24c-0.62-0.62-1.37-0.94-2.24-0.94h-0.87V36.91z"/>
	<path d="M124.52,16.66h1.44v1.44v3.67v1.44h-1.44h-7.67v10.02h3.99h1.42v1.44v3.68v1.42h-1.42h-3.99v10.04h7.67h1.44v1.42v3.68
		v1.44h-1.44h-12.78h-1.42V54.9V18.1v-1.44h1.42H124.52z"/>
	<path d="M139.92,56.34h-1.42V54.9V36.91v-8.26V18.1v-1.44h1.42h3.7h2.51c2.68,0,4.97,0.95,6.87,2.85c1.9,1.9,2.85,4.19,2.85,6.87
		v5.94c0,2.47-1.05,4.61-2.69,6.44c1.64,1.84,2.69,3.99,2.69,6.44v7.49c-0.06,1.6,0.14,2.82,0.59,3.65h-6.53
		c-0.27-0.46-0.44-1.02-0.5-1.69c-0.06-0.67-0.1-1.32-0.11-1.96V45.2c0-0.88-0.31-1.63-0.94-2.24c-0.62-0.62-1.37-0.94-2.24-0.94
		h-1.1V54.9v1.44h-1.42H139.92z M145.03,35.5h1.32c0.87,0,1.61-0.31,2.24-0.94c0.62-0.62,0.94-1.37,0.94-2.24v-5.94
		c0-0.88-0.31-1.63-0.94-2.24c-0.62-0.62-1.37-0.94-2.24-0.94h-1.32V35.5z"/>
	<path d="M174.11,16.66h1.42v1.44v36.8v1.44h-1.42h-3.7H169V54.9V18.1v-1.44h1.42H174.11z"/>
	<path d="M202.98,16.66h1.44v1.44v3.67v1.44h-1.44h-7.67v10.02h3.99h1.42v1.44v3.68v1.42h-1.42h-3.99v10.04h7.67h1.44v1.42v3.68
		v1.44h-1.44h-12.78h-1.42V54.9V18.1v-1.44h1.42H202.98z"/>
	<path d="M216.94,16.66h8.77c3.52,15.93,3.7,15.29,6.39,27.05c0-6.12-0.23-20.92-0.23-27.05h6.55v39.67h-8.99
		c-3.72-15.61-4.02-16.48-5.96-26.14v26.14h-6.53V16.66z"/>
	<path d="M266.08,19.27c1.72,1.7,2.58,3.77,2.58,6.21v0.91v1.44h-1.44h-3.67h-1.44v-1.44v-0.91c0-0.62-0.22-1.16-0.66-1.6
		c-0.43-0.44-0.95-0.66-1.58-0.66s-1.16,0.22-1.6,0.66c-0.44,0.44-0.66,0.97-0.66,1.6v22.07c0,0.62,0.22,1.16,0.66,1.6
		c0.46,0.44,0.99,0.66,1.6,0.66c0.61,0,1.13-0.22,1.58-0.66s0.66-0.97,0.66-1.6v-0.91V45.2h1.44h3.67h1.44v1.44v0.91
		c0,2.42-0.86,4.49-2.58,6.21s-3.79,2.58-6.21,2.58c-2.45,0-4.52-0.86-6.21-2.58c-1.72-1.72-2.58-3.79-2.58-6.21V25.47
		c0-2.44,0.86-4.5,2.58-6.21c1.7-1.73,3.77-2.6,6.21-2.6C262.28,16.66,264.35,17.53,266.08,19.27z"/>
	<path d="M295.09,16.66h1.44v1.44v3.67v1.44h-1.44h-7.67v10.02h3.99h1.42v1.44v3.68v1.42h-1.42h-3.99v10.04h7.67h1.44v1.42v3.68
		v1.44h-1.44H282.3h-1.42V54.9V18.1v-1.44h1.42H295.09z"/>
</g>
</svg>
